<?xml version="1.0" encoding="UTF-8" standalone="no"?>
<!-- Created with Inkscape (http://www.inkscape.org/) -->

<svg
   xmlns:dc="http://purl.org/dc/elements/1.1/"
   xmlns:cc="http://creativecommons.org/ns#"
   xmlns:rdf="http://www.w3.org/1999/02/22-rdf-syntax-ns#"
   xmlns:svg="http://www.w3.org/2000/svg"
   xmlns="http://www.w3.org/2000/svg"
   xmlns:sodipodi="http://sodipodi.sourceforge.net/DTD/sodipodi-0.dtd"
   xmlns:inkscape="http://www.inkscape.org/namespaces/inkscape"
   id="svg2"
   version="1.1"
   inkscape:version="0.91 r13725"
   xml:space="preserve"
   width="2090.5513"
   height="992.12604"
   viewBox="0 0 2090.5513 992.12604"
   sodipodi:docname="call-trace-multiple-2.svg"><metadata
     id="metadata8"><rdf:RDF><cc:Work
         rdf:about=""><dc:format>image/svg+xml</dc:format><dc:type
           rdf:resource="http://purl.org/dc/dcmitype/StillImage" /><dc:title></dc:title></cc:Work></rdf:RDF></metadata><defs
     id="defs6" /><sodipodi:namedview
     pagecolor="#ffffff"
     bordercolor="#666666"
     borderopacity="1"
     objecttolerance="10"
     gridtolerance="10"
     guidetolerance="10"
     inkscape:pageopacity="0"
     inkscape:pageshadow="2"
     inkscape:window-width="1787"
     inkscape:window-height="1043"
     id="namedview4"
     showgrid="false"
     inkscape:zoom="0.40946138"
     inkscape:cx="915.92946"
     inkscape:cy="483.66406"
     inkscape:window-x="133"
     inkscape:window-y="0"
     inkscape:window-maximized="1"
     inkscape:current-layer="g10" /><g
     id="g10"
     inkscape:groupmode="layer"
     inkscape:label="call-trace-multiple"
     transform="matrix(1.25,0,0,-1.25,0,992.12601)"><g
       transform="matrix(1,0,0,-1,0,793.70081)"
       id="g14"><path
         inkscape:connector-curvature="0"
         id="path16"
         style="fill:#ffffff;fill-opacity:1;fill-rule:nonzero;stroke:#000000;stroke-width:2.84991288;stroke-linecap:butt;stroke-linejoin:miter;stroke-miterlimit:4;stroke-dasharray:none;stroke-opacity:1"
         d="m 504.988,51.039 377.445,0 0,668.563 -377.445,0 0,-668.563 z" /></g><g
       transform="matrix(1,0,0,-1,0,793.70081)"
       id="g18"><path
         inkscape:connector-curvature="0"
         id="path20"
         style="fill:#ffffff;fill-opacity:1;fill-rule:nonzero;stroke:#000000;stroke-width:2.84991288;stroke-linecap:butt;stroke-linejoin:miter;stroke-miterlimit:4;stroke-dasharray:none;stroke-opacity:1"
         d="m 981.328,1.996 682.996,0 0,789.879 -682.996,0 0,-789.879 z" /></g><g
       transform="matrix(1,0,0,-1,0,793.70081)"
       id="g22"><path
         inkscape:connector-curvature="0"
         id="path24"
         style="fill:#ffffff;fill-opacity:1;fill-rule:nonzero;stroke:#000000;stroke-width:2.84991288;stroke-linecap:butt;stroke-linejoin:miter;stroke-miterlimit:4;stroke-dasharray:none;stroke-opacity:1"
         d="m 10.031,26.582 377.445,0 0,733.691 -377.445,0 0,-733.691 z" /></g><g
       transform="matrix(1,0,0,-1,0,793.70081)"
       id="g26"><path
         inkscape:connector-curvature="0"
         id="path28"
         style="fill:#bfbfbf;fill-opacity:1;fill-rule:nonzero;stroke:#000000;stroke-width:2.84991288;stroke-linecap:butt;stroke-linejoin:miter;stroke-miterlimit:4;stroke-dasharray:none;stroke-opacity:1"
         d="m 1201.023,116.707 222.293,0 0,99.75 -222.293,0 0,-99.75 z" /></g><text
       id="text30"
       style="font-variant:normal;font-weight:normal;font-size:18.23944473px;font-family:'DejaVu Sans';-inkscape-font-specification:DejaVuSans;writing-mode:lr-tb;fill:#000000;fill-opacity:1;fill-rule:nonzero;stroke:none"
       transform="scale(1,-1)"
       x="1283.7958"
       y="-644.36108"><tspan
         id="tspan32"
         sodipodi:role="line"
         y="-644.36108"
         x="1283.7958 1296.527 1307.1423 1318.3048 1329.8687">Старт</tspan><tspan
         id="tspan34"
         y="-621.56177"
         x="1230.7162">ﬂ</tspan></text>
<text
       id="text36"
       style="font-variant:normal;font-weight:normal;font-size:18.23944473px;font-family:'DejaVu Sans';-inkscape-font-specification:DejaVuSans;writing-mode:lr-tb;fill:#000000;fill-opacity:1;fill-rule:nonzero;stroke:none"
       transform="scale(1,-1)"
       x="1242.1888"
       y="-621.56177"><tspan
         id="tspan38"
         sodipodi:role="line"
         y="-621.56177"
         x="1242.1888 1253.3513 1264.9152 1270.697 1277.2633">ag - </tspan></text>
<text
       id="text40"
       style="font-variant:normal;font-weight:normal;font-size:18.23944473px;font-family:'DejaVu Sans';-inkscape-font-specification:DejaVuSans;writing-mode:lr-tb;fill:#000000;fill-opacity:1;fill-rule:nonzero;stroke:none"
       transform="scale(1,-1)"
       x="1283.0999"
       y="-621.56177"><tspan
         id="tspan42"
         sodipodi:role="line"
         y="-621.56177"
         x="1283.0999 1295.0103 1306.2275 1318.0649 1327.75 1338.493 1349.7103 1359.7238 1370.3391 1382.2495">неизвестно</tspan></text>
<text
       id="text44"
       style="font-variant:normal;font-weight:normal;font-size:18.23944473px;font-family:'DejaVu Sans';-inkscape-font-specification:DejaVuSans;writing-mode:lr-tb;fill:#000000;fill-opacity:1;fill-rule:nonzero;stroke:none"
       transform="scale(1,-1)"
       x="1244.6451"
       y="-598.76251"><tspan
         id="tspan46"
         sodipodi:role="line"
         y="-598.76251"
         x="1244.6451 1251.0654 1256.8473 1263.4135">f - </tspan></text>
<text
       id="text48"
       style="font-variant:normal;font-weight:normal;font-size:18.23944473px;font-family:'DejaVu Sans';-inkscape-font-specification:DejaVuSans;writing-mode:lr-tb;fill:#000000;fill-opacity:1;fill-rule:nonzero;stroke:none"
       transform="scale(1,-1)"
       x="1269.1954"
       y="-598.76251"><tspan
         id="tspan50"
         sodipodi:role="line"
         y="-598.76251"
         x="1269.1954 1281.1057 1292.323 1304.1604 1313.8456 1324.5886 1335.8059 1345.874 1356.4894 1368.3998">неизвестно</tspan></text>
<g
       transform="matrix(1,0,0,-1,0,793.70081)"
       id="g52"><path
         inkscape:connector-curvature="0"
         id="path54"
         style="fill:#ffffff;fill-opacity:1;fill-rule:nonzero;stroke:#000000;stroke-width:2.84991288;stroke-linecap:butt;stroke-linejoin:miter;stroke-miterlimit:4;stroke-dasharray:none;stroke-opacity:1"
         d="m 1390.117,497.031 222.293,0 0,99.746 -222.293,0 0,-99.746 z" /></g><text
       id="text56"
       style="font-variant:normal;font-weight:normal;font-size:18.23944473px;font-family:'DejaVu Sans';-inkscape-font-specification:DejaVuSans;writing-mode:lr-tb;fill:#000000;fill-opacity:1;fill-rule:nonzero;stroke:none"
       transform="scale(1,-1)"
       x="1453.33"
       y="-252.6391"><tspan
         id="tspan58"
         y="-252.6391"
         x="1453.33">ﬂ</tspan></text>
<text
       id="text60"
       style="font-variant:normal;font-weight:normal;font-size:18.23944473px;font-family:'DejaVu Sans';-inkscape-font-specification:DejaVuSans;writing-mode:lr-tb;fill:#000000;fill-opacity:1;fill-rule:nonzero;stroke:none"
       transform="scale(1,-1)"
       x="1464.8025"
       y="-252.6391"><tspan
         id="tspan62"
         sodipodi:role="line"
         y="-252.6391"
         x="1464.8025 1475.9651 1487.5288 1493.3108 1499.877 1505.7136 1512.1339 1523.2964 1528.3488 1537.8333">ag - false</tspan><tspan
         id="tspan64"
         sodipodi:role="line"
         y="-229.8398"
         x="1433.7367 1440.157 1445.939 1452.5051">f - </tspan></text>
<text
       id="text66"
       style="font-variant:normal;font-weight:normal;font-size:18.23944473px;font-family:'DejaVu Sans';-inkscape-font-specification:DejaVuSans;writing-mode:lr-tb;fill:#000000;fill-opacity:1;fill-rule:nonzero;stroke:none"
       transform="scale(1,-1)"
       x="1458.2871"
       y="-229.8398"><tspan
         id="tspan68"
         sodipodi:role="line"
         y="-229.8398"
         x="1458.2871 1470.1975 1481.4147 1493.2521 1502.9373 1513.6803 1524.8976 1534.9657 1545.5811 1557.4915">неизвестно</tspan></text>
<g
       transform="matrix(1,0,0,-1,0,793.70081)"
       id="g70"><path
         inkscape:connector-curvature="0"
         id="path72"
         style="fill:#ffff00;fill-opacity:1;fill-rule:nonzero;stroke:#000000;stroke-width:2.84991288;stroke-linecap:butt;stroke-linejoin:miter;stroke-miterlimit:4;stroke-dasharray:none;stroke-opacity:1"
         d="m 1038.934,497.031 249.227,0 0,99.746 -249.227,0 0,-99.746 z" /></g><text
       id="text74"
       style="font-variant:normal;font-weight:normal;font-size:18.23944473px;font-family:'DejaVu Sans';-inkscape-font-specification:DejaVuSans;writing-mode:lr-tb;fill:#000000;fill-opacity:1;fill-rule:nonzero;stroke:none"
       transform="scale(1,-1)"
       x="1118.5721"
       y="-264.03876"><tspan
         id="tspan76"
         y="-264.03876"
         x="1118.5721">ﬂ</tspan></text>
<text
       id="text78"
       style="font-variant:normal;font-weight:normal;font-size:18.23944473px;font-family:'DejaVu Sans';-inkscape-font-specification:DejaVuSans;writing-mode:lr-tb;fill:#000000;fill-opacity:1;fill-rule:nonzero;stroke:none"
       transform="scale(1,-1)"
       x="1130.0447"
       y="-264.03876"><tspan
         id="tspan80"
         sodipodi:role="line"
         y="-264.03876"
         x="1130.0447 1141.2073 1152.771 1158.553 1165.1191 1170.9558 1178.1056 1185.6021 1197.1476">ag - true</tspan><tspan
         id="tspan82"
         sodipodi:role="line"
         y="-241.23944"
         x="1117.0046 1123.4249 1129.2068 1135.7731">f - </tspan></text>
<text
       id="text84"
       style="font-variant:normal;font-weight:normal;font-size:18.23944473px;font-family:'DejaVu Sans';-inkscape-font-specification:DejaVuSans;writing-mode:lr-tb;fill:#000000;fill-opacity:1;fill-rule:nonzero;stroke:none"
       transform="scale(1,-1)"
       x="1141.5549"
       y="-241.23946"><tspan
         id="tspan86"
         sodipodi:role="line"
         y="-241.23946"
         x="1141.5549 1151.24 1162.4026 1173.4192 1184.983 1199.3739">закрыт</tspan><tspan
         id="tspan88"
         sodipodi:role="line"
         y="-218.44014"
         x="1054.7162 1069.0707 1079.686 1091.3409 1102.4854 1118.9008 1130.118 1142.0284 1153.9387 1165.1013">Отложенная</tspan></text>
<text
       id="text90"
       style="font-variant:normal;font-weight:normal;font-size:18.23944473px;font-family:'DejaVu Sans';-inkscape-font-specification:DejaVuSans;writing-mode:lr-tb;fill:#000000;fill-opacity:1;fill-rule:nonzero;stroke:none"
       transform="scale(1,-1)"
       x="1181.8452"
       y="-218.44014"><tspan
         id="tspan92"
         sodipodi:role="line"
         y="-218.44014"
         x="1181.8452 1193.7556 1205.3193 1216.4636 1227.2067 1238.424 1249.9878 1261.0044">проверка</tspan></text>
<g
       transform="matrix(1,0,0,-1,0,793.70081)"
       id="g94"><path
         inkscape:connector-curvature="0"
         id="path96"
         style="fill:#ffffff;fill-opacity:1;fill-rule:nonzero;stroke:#000000;stroke-width:2.84991288;stroke-linecap:butt;stroke-linejoin:miter;stroke-miterlimit:4;stroke-dasharray:none;stroke-opacity:1"
         d="m 1390.117,663.75 222.293,0 0,99.746 -222.293,0 0,-99.746 z" /></g><text
       id="text98"
       style="font-variant:normal;font-weight:normal;font-size:18.23944473px;font-family:'DejaVu Sans';-inkscape-font-specification:DejaVuSans;writing-mode:lr-tb;fill:#000000;fill-opacity:1;fill-rule:nonzero;stroke:none"
       transform="scale(1,-1)"
       x="1471.4091"
       y="-74.519577"><tspan
         id="tspan100"
         sodipodi:role="line"
         y="-74.519577"
         x="1471.4091 1484.3408 1495.4851 1507.3955 1518.6128">Конец</tspan></text>
<g
       transform="matrix(1,0,0,-1,0,793.70081)"
       id="g102"><path
         inkscape:connector-curvature="0"
         id="path104"
         style="fill:#bfbfbf;fill-opacity:1;fill-rule:nonzero;stroke:#000000;stroke-width:2.84991288;stroke-linecap:butt;stroke-linejoin:miter;stroke-miterlimit:4;stroke-dasharray:none;stroke-opacity:1"
         d="m 1200.598,264.762 222.293,0 0,99.746 -222.293,0 0,-99.746 z" /></g><g
       transform="matrix(1,0,0,-1,0,793.70081)"
       id="g106"><path
         inkscape:connector-curvature="0"
         id="path108"
         style="fill:none;stroke:#000000;stroke-width:2.84991288;stroke-linecap:butt;stroke-linejoin:miter;stroke-miterlimit:4;stroke-dasharray:none;stroke-opacity:1"
         d="m 1312.027,217.883 -0.097,31.578" /></g><g
       transform="matrix(1,0,0,-1,0,793.70081)"
       id="g110"><path
         inkscape:connector-curvature="0"
         id="path112"
         style="fill:#000000;fill-opacity:1;fill-rule:nonzero;stroke:#000000;stroke-width:2.84991288;stroke-linecap:butt;stroke-linejoin:miter;stroke-miterlimit:4;stroke-dasharray:none;stroke-opacity:1"
         d="m 1311.898,260.148 -7.082,-14.269 7.114,3.582 7.136,-3.539 -7.168,14.226 z" /></g><g
       transform="matrix(1,0,0,-1,0,793.70081)"
       id="g114"><path
         inkscape:connector-curvature="0"
         id="path116"
         style="fill:none;stroke:#000000;stroke-width:2.84991288;stroke-linecap:butt;stroke-linejoin:miter;stroke-miterlimit:4;stroke-dasharray:none;stroke-opacity:1"
         d="m 1311.742,365.949 0,64.821 189.52,0 0,50.949" /></g><g
       transform="matrix(1,0,0,-1,0,793.70081)"
       id="g118"><path
         inkscape:connector-curvature="0"
         id="path120"
         style="fill:#000000;fill-opacity:1;fill-rule:nonzero;stroke:#000000;stroke-width:2.84991288;stroke-linecap:butt;stroke-linejoin:miter;stroke-miterlimit:4;stroke-dasharray:none;stroke-opacity:1"
         d="m 1501.262,492.406 -7.125,-14.25 7.125,3.563 7.125,-3.563 -7.125,14.25 z" /></g><g
       transform="matrix(1,0,0,-1,0,793.70081)"
       id="g122"><path
         inkscape:connector-curvature="0"
         id="path124"
         style="fill:none;stroke:#000000;stroke-width:2.84991288;stroke-linecap:butt;stroke-linejoin:miter;stroke-miterlimit:4;stroke-dasharray:none;stroke-opacity:1"
         d="m 1311.742,365.949 0,64.821 -148.195,0 0,50.949" /></g><g
       transform="matrix(1,0,0,-1,0,793.70081)"
       id="g126"><path
         inkscape:connector-curvature="0"
         id="path128"
         style="fill:#000000;fill-opacity:1;fill-rule:nonzero;stroke:#000000;stroke-width:2.84991288;stroke-linecap:butt;stroke-linejoin:miter;stroke-miterlimit:4;stroke-dasharray:none;stroke-opacity:1"
         d="m 1163.547,492.406 -7.125,-14.25 7.125,3.563 7.125,-3.563 -7.125,14.25 z" /></g><g
       transform="matrix(1,0,0,-1,0,793.70081)"
       id="g130"><path
         inkscape:connector-curvature="0"
         id="path132"
         style="fill:#ffffff;fill-opacity:1;fill-rule:nonzero;stroke:#000000;stroke-width:2.84991288;stroke-linecap:butt;stroke-linejoin:miter;stroke-miterlimit:4;stroke-dasharray:none;stroke-opacity:1"
         d="m 1052.402,660.902 222.293,0 0,99.746 -222.293,0 0,-99.746 z" /></g><text
       id="text134"
       style="font-variant:normal;font-weight:normal;font-size:18.23944473px;font-family:'DejaVu Sans';-inkscape-font-specification:DejaVuSans;writing-mode:lr-tb;fill:#000000;fill-opacity:1;fill-rule:nonzero;stroke:none"
       transform="scale(1,-1)"
       x="1133.6945"
       y="-77.369492"><tspan
         id="tspan136"
         sodipodi:role="line"
         y="-77.369492"
         x="1133.6945 1146.6262 1157.7705 1169.6809 1180.8982">Конец</tspan></text>
<g
       transform="matrix(1,0,0,-1,0,793.70081)"
       id="g138"><path
         inkscape:connector-curvature="0"
         id="path140"
         style="fill:none;stroke:#000000;stroke-width:2.84991288;stroke-linecap:butt;stroke-linejoin:miter;stroke-miterlimit:4;stroke-dasharray:none;stroke-opacity:1"
         d="m 1501.262,598.211 0,50.234" /></g><g
       transform="matrix(1,0,0,-1,0,793.70081)"
       id="g142"><path
         inkscape:connector-curvature="0"
         id="path144"
         style="fill:#000000;fill-opacity:1;fill-rule:nonzero;stroke:#000000;stroke-width:2.84991288;stroke-linecap:butt;stroke-linejoin:miter;stroke-miterlimit:4;stroke-dasharray:none;stroke-opacity:1"
         d="m 1501.262,659.129 -7.125,-14.246 7.125,3.562 7.125,-3.562 -7.125,14.246 z" /></g><g
       transform="matrix(1,0,0,-1,0,793.70081)"
       id="g146"><path
         inkscape:connector-curvature="0"
         id="path148"
         style="fill:none;stroke:#000000;stroke-width:2.84991288;stroke-linecap:butt;stroke-linejoin:miter;stroke-miterlimit:4;stroke-dasharray:none;stroke-opacity:1"
         d="m 1163.547,598.203 0,47.399" /></g><g
       transform="matrix(1,0,0,-1,0,793.70081)"
       id="g150"><path
         inkscape:connector-curvature="0"
         id="path152"
         style="fill:#000000;fill-opacity:1;fill-rule:nonzero;stroke:#000000;stroke-width:2.84991288;stroke-linecap:butt;stroke-linejoin:miter;stroke-miterlimit:4;stroke-dasharray:none;stroke-opacity:1"
         d="m 1163.547,656.289 -7.125,-14.25 7.125,3.563 7.125,-3.563 -7.125,14.25 z" /></g><g
       transform="matrix(1,0,0,-1,0,793.70081)"
       id="g154"><path
         inkscape:connector-curvature="0"
         id="path156"
         style="fill:#bfbfbf;fill-opacity:1;fill-rule:nonzero;stroke:#000000;stroke-width:2.84991288;stroke-linecap:butt;stroke-linejoin:miter;stroke-miterlimit:4;stroke-dasharray:none;stroke-opacity:1"
         d="m 67.945,123.582 263.574,0 0,99.746 -263.574,0 0,-99.746 z" /></g><text
       id="text158"
       style="font-variant:normal;font-weight:normal;font-size:18.23944473px;font-family:'DejaVu Sans';-inkscape-font-specification:DejaVuSans;writing-mode:lr-tb;fill:#000000;fill-opacity:1;fill-rule:nonzero;stroke:none"
       transform="scale(1,-1)"
       x="171.35789"
       y="-626.08887"><tspan
         id="tspan160"
         sodipodi:role="line"
         y="-626.08887"
         x="171.35789 184.08902 194.70438 205.86691 217.43073">Старт</tspan></text>
<text
       id="text162"
       style="font-variant:normal;font-weight:normal;font-size:18.23944473px;font-family:'DejaVu Sans';-inkscape-font-specification:DejaVuSans;writing-mode:lr-tb;fill:#000000;fill-opacity:1;fill-rule:nonzero;stroke:none"
       transform="scale(1,-1)"
       x="132.20721"
       y="-603.28955"><tspan
         id="tspan164"
         sodipodi:role="line"
         y="-603.28955"
         x="132.20721 138.62749 144.40939 150.9756">f - </tspan></text>
<text
       id="text166"
       style="font-variant:normal;font-weight:normal;font-size:18.23944473px;font-family:'DejaVu Sans';-inkscape-font-specification:DejaVuSans;writing-mode:lr-tb;fill:#000000;fill-opacity:1;fill-rule:nonzero;stroke:none"
       transform="scale(1,-1)"
       x="156.75751"
       y="-603.28955"><tspan
         id="tspan168"
         sodipodi:role="line"
         y="-603.28955"
         x="156.75751 168.66786 179.88512 191.72252 201.40765 212.1507 223.36795 233.43613 244.05148 255.96184">неизвестно</tspan></text>
<g
       transform="matrix(1,0,0,-1,0,793.70081)"
       id="g170"><path
         inkscape:connector-curvature="0"
         id="path172"
         style="fill:#add8e6;fill-opacity:1;fill-rule:nonzero;stroke:#000000;stroke-width:2.84991288;stroke-linecap:butt;stroke-linejoin:miter;stroke-miterlimit:4;stroke-dasharray:none;stroke-opacity:1"
         d="m 63.852,448.328 269.887,0 0,99.746 -269.887,0 0,-99.746 z" /></g><text
       id="text174"
       style="font-variant:normal;font-weight:normal;font-size:18.23944473px;font-family:'DejaVu Sans';-inkscape-font-specification:DejaVuSans;writing-mode:lr-tb;fill:#000000;fill-opacity:1;fill-rule:nonzero;stroke:none"
       transform="scale(1,-1)"
       x="79.560051"
       y="-289.94162"><tspan
         id="tspan176"
         sodipodi:role="line"
         y="-289.94162"
         x="79.560051 92.072311 106.46323 116.14838 127.29268">Вызов</tspan></text>
<text
       id="text178"
       style="font-variant:normal;font-weight:normal;font-size:18.23944473px;font-family:'DejaVu Sans';-inkscape-font-specification:DejaVuSans;writing-mode:lr-tb;fill:#000000;fill-opacity:1;fill-rule:nonzero;stroke:none"
       transform="scale(1,-1)"
       x="143.81763"
       y="-289.94162"><tspan
         id="tspan180"
         sodipodi:role="line"
         y="-289.94162"
         x="143.81763 155.38142 166.52573 173.67558 184.89285 196.43842 203.58827 208.64061 219.80315 224.85547 233.97519 243.98865 249.04097 260.18527 269.6698 280.88705">potential_close_</tspan></text>
<text
       id="text182"
       style="font-variant:normal;font-weight:normal;font-size:18.23944473px;font-family:'DejaVu Sans';-inkscape-font-specification:DejaVuSans;writing-mode:lr-tb;fill:#000000;fill-opacity:1;fill-rule:nonzero;stroke:none"
       transform="scale(1,-1)"
       x="290.00677"
       y="-289.94162"><tspan
         id="tspan184"
         y="-289.94162"
         x="290.00677">ﬁ</tspan></text>
<text
       id="text186"
       style="font-variant:normal;font-weight:normal;font-size:18.23944473px;font-family:'DejaVu Sans';-inkscape-font-specification:DejaVuSans;writing-mode:lr-tb;fill:#000000;fill-opacity:1;fill-rule:nonzero;stroke:none"
       transform="scale(1,-1)"
       x="301.47937"
       y="-289.94162"><tspan
         id="tspan188"
         sodipodi:role="line"
         y="-289.94162"
         x="301.47937 306.53171">le</tspan></text>
<g
       transform="matrix(1,0,0,-1,0,793.70081)"
       id="g190"><path
         inkscape:connector-curvature="0"
         id="path192"
         style="fill:#ffffff;fill-opacity:1;fill-rule:nonzero;stroke:#000000;stroke-width:2.84991288;stroke-linecap:butt;stroke-linejoin:miter;stroke-miterlimit:4;stroke-dasharray:none;stroke-opacity:1"
         d="m 77.672,610.773 242.242,0 0,99.746 -242.242,0 0,-99.746 z" /></g><text
       id="text194"
       style="font-variant:normal;font-weight:normal;font-size:18.23944473px;font-family:'DejaVu Sans';-inkscape-font-specification:DejaVuSans;writing-mode:lr-tb;fill:#000000;fill-opacity:1;fill-rule:nonzero;stroke:none"
       transform="scale(1,-1)"
       x="168.93903"
       y="-127.49658"><tspan
         id="tspan196"
         sodipodi:role="line"
         y="-127.49658"
         x="168.93903 181.87079 193.01509 204.92545 216.1427">Конец</tspan></text>
<g
       transform="matrix(1,0,0,-1,0,793.70081)"
       id="g198"><path
         inkscape:connector-curvature="0"
         id="path200"
         style="fill:#bfbfbf;fill-opacity:1;fill-rule:nonzero;stroke:#000000;stroke-width:2.84991288;stroke-linecap:butt;stroke-linejoin:miter;stroke-miterlimit:4;stroke-dasharray:none;stroke-opacity:1"
         d="m 66.344,274.625 265.891,0 0,99.75 -265.891,0 0,-99.75 z" /></g><text
       id="text202"
       style="font-variant:normal;font-weight:normal;font-size:18.23944473px;font-family:'DejaVu Sans';-inkscape-font-specification:DejaVuSans;writing-mode:lr-tb;fill:#000000;fill-opacity:1;fill-rule:nonzero;stroke:none"
       transform="scale(1,-1)"
       x="152.74652"
       y="-463.64383"><tspan
         id="tspan204"
         sodipodi:role="line"
         y="-463.64383"
         x="152.74652 159.16681 164.9487 171.51491">f - </tspan></text>
<text
       id="text206"
       style="font-variant:normal;font-weight:normal;font-size:18.23944473px;font-family:'DejaVu Sans';-inkscape-font-specification:DejaVuSans;writing-mode:lr-tb;fill:#000000;fill-opacity:1;fill-rule:nonzero;stroke:none"
       transform="scale(1,-1)"
       x="177.29681"
       y="-463.64383"><tspan
         id="tspan208"
         sodipodi:role="line"
         y="-463.64383"
         x="177.29681 186.98195 198.1445 209.16112 220.72493 235.11584">закрыт</tspan></text>
<g
       transform="matrix(1,0,0,-1,0,793.70081)"
       id="g210"><path
         inkscape:connector-curvature="0"
         id="path212"
         style="fill:none;stroke:#000000;stroke-width:2.84991288;stroke-linecap:butt;stroke-linejoin:miter;stroke-miterlimit:4;stroke-dasharray:none;stroke-opacity:1"
         d="M 199.582,224.758 199.48,259.32" /></g><g
       transform="matrix(1,0,0,-1,0,793.70081)"
       id="g214"><path
         inkscape:connector-curvature="0"
         id="path216"
         style="fill:#000000;fill-opacity:1;fill-rule:nonzero;stroke:#000000;stroke-width:2.84991288;stroke-linecap:butt;stroke-linejoin:miter;stroke-miterlimit:4;stroke-dasharray:none;stroke-opacity:1"
         d="m 199.449,270.008 -7.082,-14.27 7.113,3.582 7.133,-3.539 -7.164,14.227 z" /></g><g
       transform="matrix(1,0,0,-1,0,793.70081)"
       id="g218"><path
         inkscape:connector-curvature="0"
         id="path220"
         style="fill:none;stroke:#000000;stroke-width:2.84991288;stroke-linecap:butt;stroke-linejoin:miter;stroke-miterlimit:4;stroke-dasharray:none;stroke-opacity:1"
         d="m 199.141,375.77 -0.161,57.289" /></g><g
       transform="matrix(1,0,0,-1,0,793.70081)"
       id="g222"><path
         inkscape:connector-curvature="0"
         id="path224"
         style="fill:#000000;fill-opacity:1;fill-rule:nonzero;stroke:#000000;stroke-width:2.84991288;stroke-linecap:butt;stroke-linejoin:miter;stroke-miterlimit:4;stroke-dasharray:none;stroke-opacity:1"
         d="m 198.949,443.746 -7.086,-14.269 7.117,3.582 7.133,-3.543 -7.164,14.23 z" /></g><g
       transform="matrix(1,0,0,-1,0,793.70081)"
       id="g226"><path
         inkscape:connector-curvature="0"
         id="path228"
         style="fill:none;stroke:#000000;stroke-width:2.84991288;stroke-linecap:butt;stroke-linejoin:miter;stroke-miterlimit:4;stroke-dasharray:none;stroke-opacity:1"
         d="m 198.793,549.48 0,46.012" /></g><g
       transform="matrix(1,0,0,-1,0,793.70081)"
       id="g230"><path
         inkscape:connector-curvature="0"
         id="path232"
         style="fill:#000000;fill-opacity:1;fill-rule:nonzero;stroke:#000000;stroke-width:2.84991288;stroke-linecap:butt;stroke-linejoin:miter;stroke-miterlimit:4;stroke-dasharray:none;stroke-opacity:1"
         d="m 198.793,606.18 -7.125,-14.25 7.125,3.562 7.125,-3.562 -7.125,14.25 z" /></g><g
       transform="matrix(1,0,0,-1,0,793.70081)"
       id="g234"><path
         inkscape:connector-curvature="0"
         id="path236"
         style="fill:none;stroke:#000000;stroke-width:2.84991288;stroke-linecap:butt;stroke-linejoin:miter;stroke-miterlimit:4;stroke-dasharray:28.49913, 11.399652, 5.699826, 11.399652;stroke-dashoffset:0;stroke-opacity:1"
         d="m 333.738,523.137 118.731,0 0,-99.512 104.863,0" /></g><g
       transform="matrix(1,0,0,-1,0,793.70081)"
       id="g238"><path
         inkscape:connector-curvature="0"
         id="path240"
         style="fill:#000000;fill-opacity:1;fill-rule:nonzero;stroke:#000000;stroke-width:2.84991288;stroke-linecap:butt;stroke-linejoin:miter;stroke-miterlimit:4;stroke-dasharray:none;stroke-opacity:1"
         d="m 568.02,423.625 -14.25,7.125 3.562,-7.125 -3.562,-7.125 14.25,7.125 z" /></g><g
       transform="matrix(1,0,0,-1,0,793.70081)"
       id="g242"><path
         inkscape:connector-curvature="0"
         id="path244"
         style="fill:none;stroke:#000000;stroke-width:2.84991288;stroke-linecap:butt;stroke-linejoin:miter;stroke-miterlimit:4;stroke-dasharray:5.699826, 5.699826;stroke-dashoffset:0;stroke-opacity:1"
         d="m 1101.238,497.031 0,-88.918 154.93,0 0,-29.73" /></g><g
       transform="matrix(1,0,0,-1,0,793.70081)"
       id="g246"><path
         inkscape:connector-curvature="0"
         id="path248"
         style="fill:#000000;fill-opacity:1;fill-rule:nonzero;stroke:#000000;stroke-width:2.84991288;stroke-linecap:butt;stroke-linejoin:miter;stroke-miterlimit:4;stroke-dasharray:none;stroke-opacity:1"
         d="m 1256.168,367.695 7.125,14.25 -7.125,-3.562 -7.125,3.562 7.125,-14.25 z" /></g><g
       transform="matrix(1,0,0,-1,0,793.70081)"
       id="g250"><path
         inkscape:connector-curvature="0"
         id="path252"
         style="fill:none;stroke:#000000;stroke-width:2.84991288;stroke-linecap:butt;stroke-linejoin:miter;stroke-miterlimit:4;stroke-dasharray:5.699826, 5.699826;stroke-dashoffset:0;stroke-opacity:1"
         d="m 1256.168,264.762 0.301,-34.434" /></g><g
       transform="matrix(1,0,0,-1,0,793.70081)"
       id="g254"><path
         inkscape:connector-curvature="0"
         id="path256"
         style="fill:#000000;fill-opacity:1;fill-rule:nonzero;stroke:#000000;stroke-width:2.84991288;stroke-linecap:butt;stroke-linejoin:miter;stroke-miterlimit:4;stroke-dasharray:none;stroke-opacity:1"
         d="m 1256.57,219.645 6.996,14.308 -7.097,-3.625 -7.153,3.5 7.254,-14.183 z" /></g><g
       transform="matrix(1,0,0,-1,0,793.70081)"
       id="g258"><path
         inkscape:connector-curvature="0"
         id="path260"
         style="fill:none;stroke:#000000;stroke-width:2.84991288;stroke-linecap:butt;stroke-linejoin:miter;stroke-miterlimit:4;stroke-dasharray:5.699826, 5.699826;stroke-dashoffset:0;stroke-opacity:1"
         d="m 1201.023,166.582 -245.82,0 0,207.168 -121.832,0" /></g><g
       transform="matrix(1,0,0,-1,0,793.70081)"
       id="g262"><path
         inkscape:connector-curvature="0"
         id="path264"
         style="fill:#000000;fill-opacity:1;fill-rule:nonzero;stroke:#000000;stroke-width:2.84991288;stroke-linecap:butt;stroke-linejoin:miter;stroke-miterlimit:4;stroke-dasharray:none;stroke-opacity:1"
         d="m 822.684,373.75 14.25,-7.121 -3.563,7.121 3.563,7.125 -14.25,-7.125 z" /></g><g
       transform="matrix(1,0,0,-1,0,793.70081)"
       id="g266"><path
         inkscape:connector-curvature="0"
         id="path268"
         style="fill:none;stroke:#000000;stroke-width:2.84991288;stroke-linecap:butt;stroke-linejoin:miter;stroke-miterlimit:4;stroke-dasharray:5.699826, 5.699826;stroke-dashoffset:0;stroke-opacity:1"
         d="m 266.262,448.328 -0.407,-60.082" /></g><g
       transform="matrix(1,0,0,-1,0,793.70081)"
       id="g270"><path
         inkscape:connector-curvature="0"
         id="path272"
         style="fill:#000000;fill-opacity:1;fill-rule:nonzero;stroke:#000000;stroke-width:2.84991288;stroke-linecap:butt;stroke-linejoin:miter;stroke-miterlimit:4;stroke-dasharray:none;stroke-opacity:1"
         d="m 265.785,377.559 7.219,14.203 -7.149,-3.516 -7.101,3.609 7.031,-14.296 z" /></g><g
       transform="matrix(1,0,0,-1,0,793.70081)"
       id="g274"><path
         inkscape:connector-curvature="0"
         id="path276"
         style="fill:none;stroke:#000000;stroke-width:2.84991288;stroke-linecap:butt;stroke-linejoin:miter;stroke-miterlimit:4;stroke-dasharray:5.699826, 5.699826;stroke-dashoffset:0;stroke-opacity:1"
         d="m 265.762,274.625 -0.098,-37.426" /></g><g
       transform="matrix(1,0,0,-1,0,793.70081)"
       id="g278"><path
         inkscape:connector-curvature="0"
         id="path280"
         style="fill:#000000;fill-opacity:1;fill-rule:nonzero;stroke:#000000;stroke-width:2.84991288;stroke-linecap:butt;stroke-linejoin:miter;stroke-miterlimit:4;stroke-dasharray:none;stroke-opacity:1"
         d="m 265.637,226.516 7.16,14.23 -7.133,-3.547 -7.113,3.582 7.086,-14.265 z" /></g><text
       id="text282"
       style="font-variant:normal;font-weight:normal;font-size:18.23944473px;font-family:'DejaVu Sans';-inkscape-font-specification:DejaVuSans;writing-mode:lr-tb;fill:#000000;fill-opacity:1;fill-rule:nonzero;stroke:none"
       transform="scale(1,-1)"
       x="96.692863"
       y="-715.88391"><tspan
         id="tspan284"
         sodipodi:role="line"
         x="96.692863"
         y="-715.88391">Вызывающая функция</tspan><tspan
         id="tspan286"
         sodipodi:role="line"
         x="96.692863"
         y="-693.08459" /></text>
<text
       id="text288"
       style="font-variant:normal;font-weight:normal;font-size:18.23944473px;font-family:'DejaVu Sans';-inkscape-font-specification:DejaVuSans;writing-mode:lr-tb;fill:#000000;fill-opacity:1;fill-rule:nonzero;stroke:none"
       transform="scale(1,-1)"
       x="1207.142"
       y="-737.37225"><tspan
         id="tspan290"
         y="-737.37225"
         x="1207.142">Вызываемая функция 2</tspan></text>
<text
       id="text292"
       style="font-variant:normal;font-weight:normal;font-size:18.23944473px;font-family:'DejaVu Sans';-inkscape-font-specification:DejaVuSans;writing-mode:lr-tb;fill:#000000;fill-opacity:1;fill-rule:nonzero;stroke:none"
       transform="scale(1,-1)"
       x="1319.413"
       y="-737.37225"><tspan
         id="tspan294"
         sodipodi:role="line"
         x="1319.413"
         y="-737.37225" /></text>
<g
       transform="matrix(1,0,0,-1,0,793.70081)"
       id="g296"><path
         inkscape:connector-curvature="0"
         id="path298"
         style="fill:#bfbfbf;fill-opacity:1;fill-rule:nonzero;stroke:#000000;stroke-width:2.84991288;stroke-linecap:butt;stroke-linejoin:miter;stroke-miterlimit:4;stroke-dasharray:none;stroke-opacity:1"
         d="m 565.039,148.039 257.418,0 0,99.746 -257.418,0 0,-99.746 z" /></g><text
       id="text300"
       style="font-variant:normal;font-weight:normal;font-size:18.23944473px;font-family:'DejaVu Sans';-inkscape-font-specification:DejaVuSans;writing-mode:lr-tb;fill:#000000;fill-opacity:1;fill-rule:nonzero;stroke:none"
       transform="scale(1,-1)"
       x="665.37469"
       y="-601.63092"><tspan
         id="tspan302"
         sodipodi:role="line"
         y="-601.63092"
         x="665.37469 678.10577 688.72113 699.88373 711.44751">Старт</tspan></text>
<text
       id="text304"
       style="font-variant:normal;font-weight:normal;font-size:18.23944473px;font-family:'DejaVu Sans';-inkscape-font-specification:DejaVuSans;writing-mode:lr-tb;fill:#000000;fill-opacity:1;fill-rule:nonzero;stroke:none"
       transform="scale(1,-1)"
       x="626.224"
       y="-578.8316"><tspan
         id="tspan306"
         sodipodi:role="line"
         y="-578.8316"
         x="626.224 632.64429 638.42621 644.99237">f - </tspan></text>
<text
       id="text308"
       style="font-variant:normal;font-weight:normal;font-size:18.23944473px;font-family:'DejaVu Sans';-inkscape-font-specification:DejaVuSans;writing-mode:lr-tb;fill:#000000;fill-opacity:1;fill-rule:nonzero;stroke:none"
       transform="scale(1,-1)"
       x="650.77429"
       y="-578.8316"><tspan
         id="tspan310"
         sodipodi:role="line"
         y="-578.8316"
         x="650.77429 662.68463 673.90192 685.73932 695.42444 706.16748 717.38477 727.45288 738.06824 749.97864">неизвестно</tspan></text>
<g
       transform="matrix(1,0,0,-1,0,793.70081)"
       id="g312"><path
         inkscape:connector-curvature="0"
         id="path314"
         style="fill:#add8e6;fill-opacity:1;fill-rule:nonzero;stroke:#000000;stroke-width:2.84991288;stroke-linecap:butt;stroke-linejoin:miter;stroke-miterlimit:4;stroke-dasharray:none;stroke-opacity:1"
         d="m 571.203,348.816 248.293,0 0,99.746 -248.293,0 0,-99.746 z" /></g><text
       id="text316"
       style="font-variant:normal;font-weight:normal;font-size:18.23944473px;font-family:'DejaVu Sans';-inkscape-font-specification:DejaVuSans;writing-mode:lr-tb;fill:#000000;fill-opacity:1;fill-rule:nonzero;stroke:none"
       transform="scale(1,-1)"
       x="621.25299"
       y="-389.4549"><tspan
         id="tspan318"
         sodipodi:role="line"
         y="-389.4549"
         x="621.25299 633.76526 648.15619 657.84131 668.9856">Вызов</tspan></text>
<text
       id="text320"
       style="font-variant:normal;font-weight:normal;font-size:18.23944473px;font-family:'DejaVu Sans';-inkscape-font-specification:DejaVuSans;writing-mode:lr-tb;fill:#000000;fill-opacity:1;fill-rule:nonzero;stroke:none"
       transform="scale(1,-1)"
       x="685.51056"
       y="-389.4549"><tspan
         id="tspan322"
         sodipodi:role="line"
         y="-389.4549"
         x="685.51056 695.52399 700.57629 711.72064 721.20514 732.42236">close_</tspan></text>
<text
       id="text324"
       style="font-variant:normal;font-weight:normal;font-size:18.23944473px;font-family:'DejaVu Sans';-inkscape-font-specification:DejaVuSans;writing-mode:lr-tb;fill:#000000;fill-opacity:1;fill-rule:nonzero;stroke:none"
       transform="scale(1,-1)"
       x="741.54211"
       y="-389.4549"><tspan
         id="tspan326"
         y="-389.4549"
         x="741.54211">ﬁ</tspan></text>
<text
       id="text328"
       style="font-variant:normal;font-weight:normal;font-size:18.23944473px;font-family:'DejaVu Sans';-inkscape-font-specification:DejaVuSans;writing-mode:lr-tb;fill:#000000;fill-opacity:1;fill-rule:nonzero;stroke:none"
       transform="scale(1,-1)"
       x="753.01471"
       y="-389.4549"><tspan
         id="tspan330"
         sodipodi:role="line"
         y="-389.4549"
         x="753.01471 758.06702">le</tspan></text>
<g
       transform="matrix(1,0,0,-1,0,793.70081)"
       id="g332"><path
         inkscape:connector-curvature="0"
         id="path334"
         style="fill:#ffffff;fill-opacity:1;fill-rule:nonzero;stroke:#000000;stroke-width:2.84991288;stroke-linecap:butt;stroke-linejoin:miter;stroke-miterlimit:4;stroke-dasharray:none;stroke-opacity:1"
         d="m 572.629,539.758 242.242,0 0,99.75 -242.242,0 0,-99.75 z" /></g><text
       id="text336"
       style="font-variant:normal;font-weight:normal;font-size:18.23944473px;font-family:'DejaVu Sans';-inkscape-font-specification:DejaVuSans;writing-mode:lr-tb;fill:#000000;fill-opacity:1;fill-rule:nonzero;stroke:none"
       transform="scale(1,-1)"
       x="663.89764"
       y="-198.51071"><tspan
         id="tspan338"
         sodipodi:role="line"
         y="-198.51071"
         x="663.89764 676.82941 687.97375 699.88409 711.10138">Конец</tspan></text>
<g
       transform="matrix(1,0,0,-1,0,793.70081)"
       id="g340"><path
         inkscape:connector-curvature="0"
         id="path342"
         style="fill:none;stroke:#000000;stroke-width:2.84991288;stroke-linecap:butt;stroke-linejoin:miter;stroke-miterlimit:4;stroke-dasharray:none;stroke-opacity:1"
         d="m 694.156,249.211 0.676,84.309" /></g><g
       transform="matrix(1,0,0,-1,0,793.70081)"
       id="g344"><path
         inkscape:connector-curvature="0"
         id="path346"
         style="fill:#000000;fill-opacity:1;fill-rule:nonzero;stroke:#000000;stroke-width:2.84991288;stroke-linecap:butt;stroke-linejoin:miter;stroke-miterlimit:4;stroke-dasharray:none;stroke-opacity:1"
         d="m 694.918,344.207 -7.242,-14.195 7.156,3.508 7.094,-3.622 -7.008,14.309 z" /></g><g
       transform="matrix(1,0,0,-1,0,793.70081)"
       id="g348"><path
         inkscape:connector-curvature="0"
         id="path350"
         style="fill:none;stroke:#000000;stroke-width:2.84991288;stroke-linecap:butt;stroke-linejoin:miter;stroke-miterlimit:4;stroke-dasharray:none;stroke-opacity:1"
         d="m 694.922,449.992 -0.625,74.465" /></g><g
       transform="matrix(1,0,0,-1,0,793.70081)"
       id="g352"><path
         inkscape:connector-curvature="0"
         id="path354"
         style="fill:#000000;fill-opacity:1;fill-rule:nonzero;stroke:#000000;stroke-width:2.84991288;stroke-linecap:butt;stroke-linejoin:miter;stroke-miterlimit:4;stroke-dasharray:none;stroke-opacity:1"
         d="m 694.207,535.145 -7.004,-14.309 7.094,3.621 7.152,-3.5 -7.242,14.188 z" /></g><g
       transform="matrix(1,0,0,-1,0,793.70081)"
       id="g356"><path
         inkscape:connector-curvature="0"
         id="path358"
         style="fill:none;stroke:#000000;stroke-width:2.84991288;stroke-linecap:butt;stroke-linejoin:miter;stroke-miterlimit:4;stroke-dasharray:5.699826, 5.699826;stroke-dashoffset:0;stroke-opacity:1"
         d="m 757.422,348.816 0.59,-87.156" /></g><g
       transform="matrix(1,0,0,-1,0,793.70081)"
       id="g360"><path
         inkscape:connector-curvature="0"
         id="path362"
         style="fill:#000000;fill-opacity:1;fill-rule:nonzero;stroke:#000000;stroke-width:2.84991288;stroke-linecap:butt;stroke-linejoin:miter;stroke-miterlimit:4;stroke-dasharray:none;stroke-opacity:1"
         d="m 758.082,250.973 7.027,14.297 -7.097,-3.61 -7.149,3.512 7.219,-14.199 z" /></g><text
       id="text364"
       style="font-variant:normal;font-weight:normal;font-size:18.23944473px;font-family:'DejaVu Sans';-inkscape-font-specification:DejaVuSans;writing-mode:lr-tb;fill:#000000;fill-opacity:1;fill-rule:nonzero;stroke:none"
       transform="scale(1,-1)"
       x="588.57733"
       y="-697.12579"><tspan
         id="tspan366"
         sodipodi:role="line"
         x="588.57733"
         y="-697.12579">Вызываемая функция 1</tspan></text>
<g
       transform="matrix(1,0,0,-1,0,793.70081)"
       id="g368"><path
         inkscape:connector-curvature="0"
         id="path370"
         style="fill:none;stroke:#000000;stroke-width:2.84991288;stroke-linecap:butt;stroke-linejoin:miter;stroke-miterlimit:4;stroke-dasharray:5.699826, 5.699826;stroke-dashoffset:0;stroke-opacity:1"
         d="m 565.039,172.977 -144.406,0 0,300.289 -73.024,0" /></g><g
       transform="matrix(1,0,0,-1,0,793.70081)"
       id="g372"><path
         inkscape:connector-curvature="0"
         id="path374"
         style="fill:#000000;fill-opacity:1;fill-rule:nonzero;stroke:#000000;stroke-width:2.84991288;stroke-linecap:butt;stroke-linejoin:miter;stroke-miterlimit:4;stroke-dasharray:none;stroke-opacity:1"
         d="m 336.922,473.266 14.25,-7.125 -3.563,7.125 3.563,7.125 -14.25,-7.125 z" /></g><g
       transform="matrix(1,0,0,-1,0,793.70081)"
       id="g376"><path
         inkscape:connector-curvature="0"
         id="path378"
         style="fill:none;stroke:#000000;stroke-width:2.84991288;stroke-linecap:butt;stroke-linejoin:miter;stroke-miterlimit:4;stroke-dasharray:28.49913, 11.399652, 5.699826, 11.399652;stroke-dashoffset:0;stroke-opacity:1"
         d="m 819.496,423.625 109.004,0 0,123.277 95.129,0" /></g><g
       transform="matrix(1,0,0,-1,0,793.70081)"
       id="g380"><path
         inkscape:connector-curvature="0"
         id="path382"
         style="fill:#000000;fill-opacity:1;fill-rule:nonzero;stroke:#000000;stroke-width:2.84991288;stroke-linecap:butt;stroke-linejoin:miter;stroke-miterlimit:4;stroke-dasharray:none;stroke-opacity:1"
         d="m 1034.316,546.902 -14.25,7.125 3.563,-7.125 -3.563,-7.125 14.25,7.125 z" /></g><text
       id="text384"
       style="font-variant:normal;font-weight:normal;font-size:18.23944473px;font-family:'DejaVu Sans';-inkscape-font-specification:DejaVuSans;writing-mode:lr-tb;fill:#000000;fill-opacity:1;fill-rule:nonzero;stroke:none"
       transform="scale(1,-1)"
       x="76.316849"
       y="-492.71292"><tspan
         id="tspan386"
         sodipodi:role="line"
         y="-492.71292"
         x="76.316849 87.917137">13</tspan><tspan
         id="tspan388"
         sodipodi:role="line"
         y="-645.07782"
         x="77.00367 88.603958">12</tspan><tspan
         id="tspan390"
         sodipodi:role="line"
         y="-318.19278"
         x="75.151215 86.751503">14</tspan><tspan
         id="tspan392"
         y="-617.00616"
         x="584.7157">8</tspan><tspan
         id="tspan394"
         y="-420.36218"
         x="584.7157">9</tspan><tspan
         id="tspan396"
         y="-650.77765"
         x="1214.119">1</tspan><tspan
         id="tspan398"
         y="-269.31677"
         x="1053.5264">4</tspan><tspan
         id="tspan400"
         y="-269.74426"
         x="1403.2108">5</tspan></text>
</g></svg>