<?xml version="1.0" encoding="UTF-8" standalone="no"?>
<!-- Created with Inkscape (http://www.inkscape.org/) -->

<svg
   xmlns:dc="http://purl.org/dc/elements/1.1/"
   xmlns:cc="http://creativecommons.org/ns#"
   xmlns:rdf="http://www.w3.org/1999/02/22-rdf-syntax-ns#"
   xmlns:svg="http://www.w3.org/2000/svg"
   xmlns="http://www.w3.org/2000/svg"
   xmlns:sodipodi="http://sodipodi.sourceforge.net/DTD/sodipodi-0.dtd"
   xmlns:inkscape="http://www.inkscape.org/namespaces/inkscape"
   id="svg2"
   version="1.1"
   inkscape:version="0.91 r13725"
   xml:space="preserve"
   width="2170.2761"
   height="537.74103"
   viewBox="0 0 2170.2761 537.74103"
   sodipodi:docname="complexity-1.svg"><metadata
     id="metadata8"><rdf:RDF><cc:Work
         rdf:about=""><dc:format>image/svg+xml</dc:format><dc:type
           rdf:resource="http://purl.org/dc/dcmitype/StillImage" /><dc:title></dc:title></cc:Work></rdf:RDF></metadata><defs
     id="defs6" /><sodipodi:namedview
     pagecolor="#ffffff"
     bordercolor="#666666"
     borderopacity="1"
     objecttolerance="10"
     gridtolerance="10"
     guidetolerance="10"
     inkscape:pageopacity="0"
     inkscape:pageshadow="2"
     inkscape:window-width="1280"
     inkscape:window-height="741"
     id="namedview4"
     showgrid="false"
     fit-margin-top="0"
     fit-margin-left="0"
     fit-margin-right="0"
     fit-margin-bottom="0"
     inkscape:zoom="0.40645161"
     inkscape:cx="1015.3621"
     inkscape:cy="83.582561"
     inkscape:window-x="0"
     inkscape:window-y="0"
     inkscape:window-maximized="1"
     inkscape:current-layer="g10" /><g
     id="g10"
     inkscape:groupmode="layer"
     inkscape:label="complexity"
     transform="matrix(1.25,0,0,-1.25,0.00114743,778.8824)"><g
       transform="matrix(1,0,0,-1,0,638)"
       id="g14"><path
         inkscape:connector-curvature="0"
         id="path16"
         style="fill:#ffffff;fill-opacity:1;fill-rule:nonzero;stroke:#000000;stroke-width:3.57983589;stroke-linecap:butt;stroke-linejoin:miter;stroke-miterlimit:4;stroke-dasharray:none;stroke-opacity:1"
         d="m 640.809,16.684 454.641,0 0,93.078 -454.641,0 0,-93.078 z" /></g><text
       id="text18"
       style="font-variant:normal;font-weight:normal;font-size:22.90917969px;font-family:'DejaVu Sans';-inkscape-font-specification:DejaVuSans;writing-mode:lr-tb;fill:#000000;fill-opacity:1;fill-rule:nonzero;stroke:none"
       transform="scale(1,-1)"
       x="668.92969"
       y="-566.22034"><tspan
         id="tspan20"
         sodipodi:role="line"
         y="-566.22034"
         x="668.92969 684.92029 699.55927 713.55676 734.17505 749.1347 763.13226 775.70941 789.04254">Сложность</tspan></text>
<text
       id="text22"
       style="font-variant:normal;font-weight:normal;font-size:22.90917969px;font-family:'DejaVu Sans';-inkscape-font-specification:DejaVuSans;writing-mode:lr-tb;fill:#000000;fill-opacity:1;fill-rule:nonzero;stroke:none"
       transform="scale(1,-1)"
       x="809.79822"
       y="-566.22034"><tspan
         id="tspan24"
         sodipodi:role="line"
         y="-566.22034"
         x="809.79822 824.75793 839.28235 853.27985 865.30719 879.8316 893.85199 911.12555 928.39905 943.35876 961.43408">программных</tspan></text>
<text
       id="text26"
       style="font-variant:normal;font-weight:normal;font-size:22.90917969px;font-family:'DejaVu Sans';-inkscape-font-specification:DejaVuSans;writing-mode:lr-tb;fill:#000000;fill-opacity:1;fill-rule:nonzero;stroke:none"
       transform="scale(1,-1)"
       x="982.23566"
       y="-566.22034"><tspan
         id="tspan28"
         sodipodi:role="line"
         y="-566.22034"
         x="982.23566 994.81274 1009.6808 1022.258 1035.5911 1049.6803">систем</tspan></text>
<g
       transform="matrix(1,0,0,-1,0,638)"
       id="g30"><path
         inkscape:connector-curvature="0"
         id="path32"
         style="fill:#ffffff;fill-opacity:1;fill-rule:nonzero;stroke:#000000;stroke-width:3.57983589;stroke-linecap:butt;stroke-linejoin:miter;stroke-miterlimit:4;stroke-dasharray:none;stroke-opacity:1"
         d="m 1.789,203.449 300.707,0 0,96.652 -300.707,0 0,-96.652 z" /></g><text
       id="text34"
       style="font-variant:normal;font-weight:normal;font-size:22.90917969px;font-family:'DejaVu Sans';-inkscape-font-specification:DejaVuSans;writing-mode:lr-tb;fill:#000000;fill-opacity:1;fill-rule:nonzero;stroke:none"
       transform="scale(1,-1)"
       x="64.226562"
       y="-377.66959"><tspan
         id="tspan36"
         sodipodi:role="line"
         y="-377.66959"
         x="64.226562 82.118629 96.986687 111.94638 125.9668 143.24033 158.10838 171.6248 185.71394 198.29108 212.12823 226.14865">Динамическая</tspan></text>
<g
       transform="matrix(1,0,0,-1,0,638)"
       id="g38"><path
         inkscape:connector-curvature="0"
         id="path40"
         style="fill:#bfbfbf;fill-opacity:1;fill-rule:nonzero;stroke:#000000;stroke-width:3.57983589;stroke-linecap:butt;stroke-linejoin:miter;stroke-miterlimit:4;stroke-dasharray:none;stroke-opacity:1"
         d="m 359.773,203.449 300.707,0 0,96.652 -300.707,0 0,-96.652 z" /></g><text
       id="text42"
       style="font-variant:normal;font-weight:normal;font-size:22.90917969px;font-family:'DejaVu Sans';-inkscape-font-specification:DejaVuSans;writing-mode:lr-tb;fill:#000000;fill-opacity:1;fill-rule:nonzero;stroke:none"
       transform="scale(1,-1)"
       x="432.37891"
       y="-377.66959"><tspan
         id="tspan44"
         sodipodi:role="line"
         y="-377.66959"
         x="432.37891 448.36951 461.70267 476.22708 489.76642 503.60355 516.93671 530.47601 545.00043 559.96014 573.98053">Структурная</tspan></text>
<g
       transform="matrix(1,0,0,-1,0,638)"
       id="g46"><path
         inkscape:connector-curvature="0"
         id="path48"
         style="fill:#ffffff;fill-opacity:1;fill-rule:nonzero;stroke:#000000;stroke-width:3.57983589;stroke-linecap:butt;stroke-linejoin:miter;stroke-miterlimit:4;stroke-dasharray:none;stroke-opacity:1"
         d="m 717.758,203.449 300.707,0 0,96.652 -300.707,0 0,-96.652 z" /></g><text
       id="text50"
       style="font-variant:normal;font-weight:normal;font-size:22.90917969px;font-family:'DejaVu Sans';-inkscape-font-specification:DejaVuSans;writing-mode:lr-tb;fill:#000000;fill-opacity:1;fill-rule:nonzero;stroke:none"
       transform="scale(1,-1)"
       x="761.19531"
       y="-377.66959"><tspan
         id="tspan52"
         sodipodi:role="line"
         y="-377.66959"
         x="761.19531 778.33136 793.29108 812.85553 826.85303 841.37744 858.65094 872.67139 888.24963 903.11768 917.11517 932.07489 947.03455 961.05499">Информационная</tspan></text>
<g
       transform="matrix(1,0,0,-1,0,638)"
       id="g54"><path
         inkscape:connector-curvature="0"
         id="path56"
         style="fill:#ffffff;fill-opacity:1;fill-rule:nonzero;stroke:#000000;stroke-width:3.57983589;stroke-linecap:butt;stroke-linejoin:miter;stroke-miterlimit:4;stroke-dasharray:none;stroke-opacity:1"
         d="m 1075.742,203.449 300.703,0 0,96.652 -300.703,0 0,-96.652 z" /></g><text
       id="text58"
       style="font-variant:normal;font-weight:normal;font-size:22.90917969px;font-family:'DejaVu Sans';-inkscape-font-specification:DejaVuSans;writing-mode:lr-tb;fill:#000000;fill-opacity:1;fill-rule:nonzero;stroke:none"
       transform="scale(1,-1)"
       x="1124.7383"
       y="-377.66959"><tspan
         id="tspan60"
         sodipodi:role="line"
         y="-377.66959"
         x="1124.7383 1140.454 1158.5293 1172.0458 1186.9138 1199.491 1214.1299 1228.9979 1242.3312 1256.4203 1271.0592 1284.5527 1299.5125 1313.5328">Вычислительная</tspan></text>
<g
       transform="matrix(1,0,0,-1,0,638)"
       id="g62"><path
         inkscape:connector-curvature="0"
         id="path64"
         style="fill:#ffffff;fill-opacity:1;fill-rule:nonzero;stroke:#000000;stroke-width:3.57983589;stroke-linecap:butt;stroke-linejoin:miter;stroke-miterlimit:4;stroke-dasharray:none;stroke-opacity:1"
         d="m 1433.723,203.449 300.707,0 0,96.652 -300.707,0 0,-96.652 z" /></g><text
       id="text66"
       style="font-variant:normal;font-weight:normal;font-size:22.90917969px;font-family:'DejaVu Sans';-inkscape-font-specification:DejaVuSans;writing-mode:lr-tb;fill:#000000;fill-opacity:1;fill-rule:nonzero;stroke:none"
       transform="scale(1,-1)"
       x="1477.4922"
       y="-377.66959"><tspan
         id="tspan68"
         sodipodi:role="line"
         y="-377.66959"
         x="1477.4922 1493.1621 1507.801 1519.8284 1533.8259 1548.3503 1563.2184 1576.5515 1593.8251 1608.6931 1622.2095 1636.2986 1648.8757 1662.7129 1676.7333">Алгоритмическая</tspan></text>
<g
       transform="matrix(1,0,0,-1,0,638)"
       id="g70"><path
         inkscape:connector-curvature="0"
         id="path72"
         style="fill:#ffffff;fill-opacity:1;fill-rule:nonzero;stroke:#000000;stroke-width:3.57983589;stroke-linecap:butt;stroke-linejoin:miter;stroke-miterlimit:4;stroke-dasharray:none;stroke-opacity:1"
         d="m 1.789,346.641 300.707,0 0,96.656 -300.707,0 0,-96.656 z" /></g><text
       id="text74"
       style="font-variant:normal;font-weight:normal;font-size:22.90917969px;font-family:'DejaVu Sans';-inkscape-font-specification:DejaVuSans;writing-mode:lr-tb;fill:#000000;fill-opacity:1;fill-rule:nonzero;stroke:none"
       transform="scale(1,-1)"
       x="34.574219"
       y="-248.79459"><tspan
         id="tspan76"
         sodipodi:role="line"
         y="-248.79459"
         x="34.574219 50.564827 65.203796 79.201302 99.819565 114.77926 128.79968">Сложная</tspan></text>
<text
       id="text78"
       style="font-variant:normal;font-weight:normal;font-size:22.90917969px;font-family:'DejaVu Sans';-inkscape-font-specification:DejaVuSans;writing-mode:lr-tb;fill:#000000;fill-opacity:1;fill-rule:nonzero;stroke:none"
       transform="scale(1,-1)"
       x="149.83031"
       y="-248.79459"><tspan
         id="tspan80"
         sodipodi:role="line"
         y="-248.79459"
         x="149.83031 165.66054 180.52859 195.4883 209.50871 226.78224 241.6503 255.48744">динамика</tspan></text>
<text
       id="text82"
       style="font-variant:normal;font-weight:normal;font-size:22.90917969px;font-family:'DejaVu Sans';-inkscape-font-specification:DejaVuSans;writing-mode:lr-tb;fill:#000000;fill-opacity:1;fill-rule:nonzero;stroke:none"
       transform="scale(1,-1)"
       x="100.70312"
       y="-220.15396"><tspan
         id="tspan84"
         sodipodi:role="line"
         y="-220.15396"
         x="100.70312 113.28026 128.14832 140.72546 154.05859 168.14775 185.42126">системы</tspan></text>
<g
       transform="matrix(1,0,0,-1,0,638)"
       id="g86"><path
         inkscape:connector-curvature="0"
         id="path88"
         style="fill:#bfbfbf;fill-opacity:1;fill-rule:nonzero;stroke:#000000;stroke-width:3.57983589;stroke-linecap:butt;stroke-linejoin:miter;stroke-miterlimit:4;stroke-dasharray:none;stroke-opacity:1"
         d="m 350.023,346.641 321.914,0 0,96.656 -321.914,0 0,-96.656 z" /></g><text
       id="text90"
       style="font-variant:normal;font-weight:normal;font-size:22.90917969px;font-family:'DejaVu Sans';-inkscape-font-specification:DejaVuSans;writing-mode:lr-tb;fill:#000000;fill-opacity:1;fill-rule:nonzero;stroke:none"
       transform="scale(1,-1)"
       x="369.875"
       y="-248.79459"><tspan
         id="tspan92"
         sodipodi:role="line"
         y="-248.79459"
         x="369.875 383.84961 398.37402 411.91333 427.74359 442.70328 456.70081 470.6983 484.03143 496.60858 511.24756 525.33667 545.95496 560.823 574.31653 588.33691 602.42609 619.69958 637.77496">Трудноотслеживаемые</tspan></text>
<text
       id="text94"
       style="font-variant:normal;font-weight:normal;font-size:22.90917969px;font-family:'DejaVu Sans';-inkscape-font-specification:DejaVuSans;writing-mode:lr-tb;fill:#000000;fill-opacity:1;fill-rule:nonzero;stroke:none"
       transform="scale(1,-1)"
       x="477.51172"
       y="-220.15396"><tspan
         id="tspan96"
         sodipodi:role="line"
         y="-220.15396"
         x="477.51172 490.08887 503.58237 517.35077 529.51556">связи</tspan></text>
<g
       transform="matrix(1,0,0,-1,0,638)"
       id="g98"><path
         inkscape:connector-curvature="0"
         id="path100"
         style="fill:#ffffff;fill-opacity:1;fill-rule:nonzero;stroke:#000000;stroke-width:3.57983589;stroke-linecap:butt;stroke-linejoin:miter;stroke-miterlimit:4;stroke-dasharray:none;stroke-opacity:1"
         d="m 717.758,346.641 300.707,0 0,96.656 -300.707,0 0,-96.656 z" /></g><text
       id="text102"
       style="font-variant:normal;font-weight:normal;font-size:22.90917969px;font-family:'DejaVu Sans';-inkscape-font-specification:DejaVuSans;writing-mode:lr-tb;fill:#000000;fill-opacity:1;fill-rule:nonzero;stroke:none"
       transform="scale(1,-1)"
       x="753.05078"
       y="-248.79459"><tspan
         id="tspan104"
         sodipodi:role="line"
         y="-248.79459"
         x="753.05078 769.04138 783.68036 797.67786 818.29614 833.2558 847.2533">Сложное</tspan></text>
<text
       id="text106"
       style="font-variant:normal;font-weight:normal;font-size:22.90917969px;font-family:'DejaVu Sans';-inkscape-font-specification:DejaVuSans;writing-mode:lr-tb;fill:#000000;fill-opacity:1;fill-rule:nonzero;stroke:none"
       transform="scale(1,-1)"
       x="868.60468"
       y="-248.79459"><tspan
         id="tspan108"
         sodipodi:role="line"
         y="-248.79459"
         x="868.60468 882.60217 897.56189 912.42993 925.00708 939.02753 953.98718 968.85522">описание</tspan></text>
<text
       id="text110"
       style="font-variant:normal;font-weight:normal;font-size:22.90917969px;font-family:'DejaVu Sans';-inkscape-font-specification:DejaVuSans;writing-mode:lr-tb;fill:#000000;fill-opacity:1;fill-rule:nonzero;stroke:none"
       transform="scale(1,-1)"
       x="816.67188"
       y="-220.15396"><tspan
         id="tspan112"
         sodipodi:role="line"
         y="-220.15396"
         x="816.67188 829.24902 844.11707 856.69421 870.02734 884.11652 901.39001">системы</tspan></text>
<g
       transform="matrix(1,0,0,-1,0,638)"
       id="g114"><path
         inkscape:connector-curvature="0"
         id="path116"
         style="fill:#ffffff;fill-opacity:1;fill-rule:nonzero;stroke:#000000;stroke-width:3.57983589;stroke-linecap:butt;stroke-linejoin:miter;stroke-miterlimit:4;stroke-dasharray:none;stroke-opacity:1"
         d="m 1074.766,346.641 304.914,0 0,96.656 -304.914,0 0,-96.656 z" /></g><text
       id="text118"
       style="font-variant:normal;font-weight:normal;font-size:22.90917969px;font-family:'DejaVu Sans';-inkscape-font-specification:DejaVuSans;writing-mode:lr-tb;fill:#000000;fill-opacity:1;fill-rule:nonzero;stroke:none"
       transform="scale(1,-1)"
       x="1094.5977"
       y="-248.79459"><tspan
         id="tspan120"
         sodipodi:role="line"
         y="-248.79459"
         x="1094.5977 1110.5883 1125.2273 1139.2247 1159.843 1174.8027 1188.8003 1201.3774 1214.7106">Сложность</tspan></text>
<text
       id="text122"
       style="font-variant:normal;font-weight:normal;font-size:22.90917969px;font-family:'DejaVu Sans';-inkscape-font-specification:DejaVuSans;writing-mode:lr-tb;fill:#000000;fill-opacity:1;fill-rule:nonzero;stroke:none"
       transform="scale(1,-1)"
       x="1235.4662"
       y="-248.79459"><tspan
         id="tspan124"
         sodipodi:role="line"
         y="-248.79459"
         x="1235.4662 1250.4259 1264.9503 1278.9479 1290.9751 1305.9348 1319.9324 1332.0972 1346.0946">прогнозов</tspan></text>
<text
       id="text126"
       style="font-variant:normal;font-weight:normal;font-size:22.90917969px;font-family:'DejaVu Sans';-inkscape-font-specification:DejaVuSans;writing-mode:lr-tb;fill:#000000;fill-opacity:1;fill-rule:nonzero;stroke:none"
       transform="scale(1,-1)"
       x="1095.6758"
       y="-220.15396"><tspan
         id="tspan128"
         y="-220.15396"
         x="1095.6758">и</tspan></text>
<text
       id="text130"
       style="font-variant:normal;font-weight:normal;font-size:22.90917969px;font-family:'DejaVu Sans';-inkscape-font-specification:DejaVuSans;writing-mode:lr-tb;fill:#000000;fill-opacity:1;fill-rule:nonzero;stroke:none"
       transform="scale(1,-1)"
       x="1117.806"
       y="-220.15396"><tspan
         id="tspan132"
         sodipodi:role="line"
         y="-220.15396"
         x="1117.806 1132.3304 1146.3508 1158.928 1172.4443 1186.5336 1199.8667 1213.8641">расчётов</tspan></text>
<text
       id="text134"
       style="font-variant:normal;font-weight:normal;font-size:22.90917969px;font-family:'DejaVu Sans';-inkscape-font-specification:DejaVuSans;writing-mode:lr-tb;fill:#000000;fill-opacity:1;fill-rule:nonzero;stroke:none"
       transform="scale(1,-1)"
       x="1234.62"
       y="-220.15396"><tspan
         id="tspan136"
         sodipodi:role="line"
         y="-220.15396"
         x="1234.62 1247.1971 1261.1947 1273.7717 1287.105 1301.1024 1314.8708 1329.8306 1344.6986">состояния</tspan></text>
<g
       transform="matrix(1,0,0,-1,0,638)"
       id="g138"><path
         inkscape:connector-curvature="0"
         id="path140"
         style="fill:#ffffff;fill-opacity:1;fill-rule:nonzero;stroke:#000000;stroke-width:3.57983589;stroke-linecap:butt;stroke-linejoin:miter;stroke-miterlimit:4;stroke-dasharray:none;stroke-opacity:1"
         d="m 1433.723,346.641 300.707,0 0,96.656 -300.707,0 0,-96.656 z" /></g><text
       id="text142"
       style="font-variant:normal;font-weight:normal;font-size:22.90917969px;font-family:'DejaVu Sans';-inkscape-font-specification:DejaVuSans;writing-mode:lr-tb;fill:#000000;fill-opacity:1;fill-rule:nonzero;stroke:none"
       transform="scale(1,-1)"
       x="1469.0195"
       y="-248.79459"><tspan
         id="tspan144"
         sodipodi:role="line"
         y="-248.79459"
         x="1469.0195 1485.0101 1499.649 1513.6466 1534.2649 1549.2245 1563.222">Сложное</tspan></text>
<text
       id="text146"
       style="font-variant:normal;font-weight:normal;font-size:22.90917969px;font-family:'DejaVu Sans';-inkscape-font-specification:DejaVuSans;writing-mode:lr-tb;fill:#000000;fill-opacity:1;fill-rule:nonzero;stroke:none"
       transform="scale(1,-1)"
       x="1584.5734"
       y="-248.79459"><tspan
         id="tspan148"
         sodipodi:role="line"
         y="-248.79459"
         x="1584.5734 1598.5709 1613.5306 1628.3987 1640.9758 1654.9962 1669.9559 1684.824">описание</tspan></text>
<text
       id="text150"
       style="font-variant:normal;font-weight:normal;font-size:22.90917969px;font-family:'DejaVu Sans';-inkscape-font-specification:DejaVuSans;writing-mode:lr-tb;fill:#000000;fill-opacity:1;fill-rule:nonzero;stroke:none"
       transform="scale(1,-1)"
       x="1530.418"
       y="-220.15396"><tspan
         id="tspan152"
         sodipodi:role="line"
         y="-220.15396"
         x="1530.418 1549.9824 1563.5217 1578.4814 1592.3186 1607.8969 1622.7649">функций</tspan></text>
<g
       transform="matrix(1,0,0,-1,0,638)"
       id="g154"><path
         inkscape:connector-curvature="0"
         id="path156"
         style="fill:none;stroke:#000000;stroke-width:3.57983589;stroke-linecap:butt;stroke-linejoin:miter;stroke-miterlimit:4;stroke-dasharray:none;stroke-opacity:1"
         d="m 152.145,301.871 0,25.574" /></g><g
       transform="matrix(1,0,0,-1,0,638)"
       id="g158"><path
         inkscape:connector-curvature="0"
         id="path160"
         style="fill:#000000;fill-opacity:1;fill-rule:nonzero;stroke:#000000;stroke-width:3.57983589;stroke-linecap:butt;stroke-linejoin:miter;stroke-miterlimit:4;stroke-dasharray:none;stroke-opacity:1"
         d="m 152.145,340.871 -8.95,-17.898 8.95,4.472 8.949,-4.472 -8.949,17.898 z" /></g><g
       transform="matrix(1,0,0,-1,0,638)"
       id="g162"><path
         inkscape:connector-curvature="0"
         id="path164"
         style="fill:none;stroke:#000000;stroke-width:3.57983589;stroke-linecap:butt;stroke-linejoin:miter;stroke-miterlimit:4;stroke-dasharray:none;stroke-opacity:1"
         d="m 510.426,301.871 0.152,25.574" /></g><g
       transform="matrix(1,0,0,-1,0,638)"
       id="g166"><path
         inkscape:connector-curvature="0"
         id="path168"
         style="fill:#000000;fill-opacity:1;fill-rule:nonzero;stroke:#000000;stroke-width:3.57983589;stroke-linecap:butt;stroke-linejoin:miter;stroke-miterlimit:4;stroke-dasharray:none;stroke-opacity:1"
         d="m 510.66,340.871 -9.058,-17.848 8.976,4.422 8.922,-4.527 -8.84,17.953 z" /></g><g
       transform="matrix(1,0,0,-1,0,638)"
       id="g170"><path
         inkscape:connector-curvature="0"
         id="path172"
         style="fill:none;stroke:#000000;stroke-width:3.57983589;stroke-linecap:butt;stroke-linejoin:miter;stroke-miterlimit:4;stroke-dasharray:none;stroke-opacity:1"
         d="m 868.109,301.871 0,25.574" /></g><g
       transform="matrix(1,0,0,-1,0,638)"
       id="g174"><path
         inkscape:connector-curvature="0"
         id="path176"
         style="fill:#000000;fill-opacity:1;fill-rule:nonzero;stroke:#000000;stroke-width:3.57983589;stroke-linecap:butt;stroke-linejoin:miter;stroke-miterlimit:4;stroke-dasharray:none;stroke-opacity:1"
         d="m 868.109,340.871 -8.949,-17.898 8.949,4.472 8.95,-4.472 -8.95,17.898 z" /></g><g
       transform="matrix(1,0,0,-1,0,638)"
       id="g178"><path
         inkscape:connector-curvature="0"
         id="path180"
         style="fill:none;stroke:#000000;stroke-width:3.57983589;stroke-linecap:butt;stroke-linejoin:miter;stroke-miterlimit:4;stroke-dasharray:none;stroke-opacity:1"
         d="m 1226.488,301.871 0.203,25.574" /></g><g
       transform="matrix(1,0,0,-1,0,638)"
       id="g182"><path
         inkscape:connector-curvature="0"
         id="path184"
         style="fill:#000000;fill-opacity:1;fill-rule:nonzero;stroke:#000000;stroke-width:3.57983589;stroke-linecap:butt;stroke-linejoin:miter;stroke-miterlimit:4;stroke-dasharray:none;stroke-opacity:1"
         d="m 1226.797,340.871 -9.094,-17.828 8.988,4.402 8.914,-4.543 -8.808,17.969 z" /></g><g
       transform="matrix(1,0,0,-1,0,638)"
       id="g186"><path
         inkscape:connector-curvature="0"
         id="path188"
         style="fill:none;stroke:#000000;stroke-width:3.57983589;stroke-linecap:butt;stroke-linejoin:miter;stroke-miterlimit:4;stroke-dasharray:none;stroke-opacity:1"
         d="m 1584.078,301.871 0,25.574" /></g><g
       transform="matrix(1,0,0,-1,0,638)"
       id="g190"><path
         inkscape:connector-curvature="0"
         id="path192"
         style="fill:#000000;fill-opacity:1;fill-rule:nonzero;stroke:#000000;stroke-width:3.57983589;stroke-linecap:butt;stroke-linejoin:miter;stroke-miterlimit:4;stroke-dasharray:none;stroke-opacity:1"
         d="m 1584.078,340.871 -8.949,-17.898 8.949,4.472 8.949,-4.472 -8.949,17.898 z" /></g><g
       transform="matrix(1,0,0,-1,0,638)"
       id="g194"><path
         inkscape:connector-curvature="0"
         id="path196"
         style="fill:none;stroke:#000000;stroke-width:3.57983589;stroke-linecap:butt;stroke-linejoin:miter;stroke-miterlimit:4;stroke-dasharray:none;stroke-opacity:1"
         d="m 868.129,111.563 0,45.042 -715.984,0 0,27.614" /></g><g
       transform="matrix(1,0,0,-1,0,638)"
       id="g198"><path
         inkscape:connector-curvature="0"
         id="path200"
         style="fill:#000000;fill-opacity:1;fill-rule:nonzero;stroke:#000000;stroke-width:3.57983589;stroke-linecap:butt;stroke-linejoin:miter;stroke-miterlimit:4;stroke-dasharray:none;stroke-opacity:1"
         d="m 152.145,197.645 -8.95,-17.903 8.95,4.477 8.949,-4.477 -8.949,17.903 z" /></g><g
       transform="matrix(1,0,0,-1,0,638)"
       id="g202"><path
         inkscape:connector-curvature="0"
         id="path204"
         style="fill:none;stroke:#000000;stroke-width:3.57983589;stroke-linecap:butt;stroke-linejoin:miter;stroke-miterlimit:4;stroke-dasharray:none;stroke-opacity:1"
         d="m 868.129,111.563 0,45.042 -358.004,0 0,27.614" /></g><g
       transform="matrix(1,0,0,-1,0,638)"
       id="g206"><path
         inkscape:connector-curvature="0"
         id="path208"
         style="fill:#000000;fill-opacity:1;fill-rule:nonzero;stroke:#000000;stroke-width:3.57983589;stroke-linecap:butt;stroke-linejoin:miter;stroke-miterlimit:4;stroke-dasharray:none;stroke-opacity:1"
         d="m 510.125,197.645 -8.949,-17.903 8.949,4.477 8.953,-4.477 -8.953,17.903 z" /></g><g
       transform="matrix(1,0,0,-1,0,638)"
       id="g210"><path
         inkscape:connector-curvature="0"
         id="path212"
         style="fill:none;stroke:#000000;stroke-width:3.57983589;stroke-linecap:butt;stroke-linejoin:miter;stroke-miterlimit:4;stroke-dasharray:none;stroke-opacity:1"
         d="m 868.129,111.563 0,45.042 -0.02,0 0,27.614" /></g><g
       transform="matrix(1,0,0,-1,0,638)"
       id="g214"><path
         inkscape:connector-curvature="0"
         id="path216"
         style="fill:#000000;fill-opacity:1;fill-rule:nonzero;stroke:#000000;stroke-width:3.57983589;stroke-linecap:butt;stroke-linejoin:miter;stroke-miterlimit:4;stroke-dasharray:none;stroke-opacity:1"
         d="m 868.109,197.645 -8.949,-17.903 8.949,4.477 8.95,-4.477 -8.95,17.903 z" /></g><g
       transform="matrix(1,0,0,-1,0,638)"
       id="g218"><path
         inkscape:connector-curvature="0"
         id="path220"
         style="fill:none;stroke:#000000;stroke-width:3.57983589;stroke-linecap:butt;stroke-linejoin:miter;stroke-miterlimit:4;stroke-dasharray:none;stroke-opacity:1"
         d="m 868.129,111.563 0,45.042 357.965,0 0,27.614" /></g><g
       transform="matrix(1,0,0,-1,0,638)"
       id="g222"><path
         inkscape:connector-curvature="0"
         id="path224"
         style="fill:#000000;fill-opacity:1;fill-rule:nonzero;stroke:#000000;stroke-width:3.57983589;stroke-linecap:butt;stroke-linejoin:miter;stroke-miterlimit:4;stroke-dasharray:none;stroke-opacity:1"
         d="m 1226.094,197.645 -8.949,-17.903 8.949,4.477 8.949,-4.477 -8.949,17.903 z" /></g><g
       transform="matrix(1,0,0,-1,0,638)"
       id="g226"><path
         inkscape:connector-curvature="0"
         id="path228"
         style="fill:none;stroke:#000000;stroke-width:3.57983589;stroke-linecap:butt;stroke-linejoin:miter;stroke-miterlimit:4;stroke-dasharray:none;stroke-opacity:1"
         d="m 868.129,111.563 0,45.042 715.949,0 0,27.614" /></g><g
       transform="matrix(1,0,0,-1,0,638)"
       id="g230"><path
         inkscape:connector-curvature="0"
         id="path232"
         style="fill:#000000;fill-opacity:1;fill-rule:nonzero;stroke:#000000;stroke-width:3.57983589;stroke-linecap:butt;stroke-linejoin:miter;stroke-miterlimit:4;stroke-dasharray:none;stroke-opacity:1"
         d="m 1584.078,197.645 -8.949,-17.903 8.949,4.477 8.949,-4.477 -8.949,17.903 z" /></g></g></svg>