<?xml version="1.0" encoding="UTF-8" standalone="no"?>
<svg xmlns="http://www.w3.org/2000/svg"
     xmlns:xlink="http://www.w3.org/1999/xlink"
     width="576px" height="432px" viewBox="0 0 576 432">
<title>glps_renderer figure</title>
<desc>
Creator: GL2PS 1.3.8, (C) 1999-2012 C. Geuzaine
For: Octave
CreationDate: Sun Nov  8 16:24:06 2015
</desc>
<defs>
</defs>
<g shape-rendering="crispEdges">
<polygon fill="#ffffff" points="521.28,384.48 521.28,32.4 521.28,384.48"/>
<polygon fill="#ffffff" points="521.28,32.4 521.28,32.4 521.28,384.48"/>
<polygon fill="#ffffff" points="74.88,32.4 521.28,32.4 74.88,32.4"/>
<polygon fill="#ffffff" points="521.28,32.4 521.28,32.4 74.88,32.4"/>
<polygon fill="#ffffff" points="74.88,384.48 521.28,384.48 74.88,32.4"/>
<polygon fill="#ffffff" points="521.28,384.48 521.28,32.4 74.88,32.4"/>
<polyline fill="none" stroke="#000000" stroke-width="0.5" stroke-dasharray="16,0" points="74.88,384.48 521.28,384.48"/>
<polyline fill="none" stroke="#000000" stroke-width="0.5" stroke-dasharray="16,0" points="74.88,32.4 521.28,32.4"/>
<polyline fill="none" stroke="#000000" stroke-width="0.5" stroke-dasharray="16,0" points="74.88,32.4 521.28,32.4"/>
<polyline fill="none" stroke="#000000" stroke-width="0.5" stroke-dasharray="16,0" points="74.88,384.48 521.28,384.48"/>
<polyline fill="none" stroke="#000000" stroke-width="0.5" stroke-dasharray="16,0" points="74.88,384.48 74.88,32.4"/>
<polyline fill="none" stroke="#000000" stroke-width="0.5" stroke-dasharray="16,0" points="521.28,384.48 521.28,32.4"/>
<polyline fill="none" stroke="#000000" stroke-width="0.5" stroke-dasharray="16,0" points="521.28,384.48 521.28,32.4"/>
<polyline fill="none" stroke="#000000" stroke-width="0.5" stroke-dasharray="16,0" points="74.88,384.48 74.88,32.4 74.88,32.4"/>
<polyline fill="none" stroke="#000000" stroke-width="0.5" stroke-dasharray="16,0" points="521.28,32.4 521.28,32.4"/>
<polyline fill="none" stroke="#000000" stroke-width="0.5" stroke-dasharray="16,0" points="521.28,384.48 521.28,384.48"/>
<polyline fill="none" stroke="#000000" stroke-width="0.5" stroke-dasharray="16,0" points="74.88,384.48 74.88,384.48"/>
<polyline fill="none" stroke="#000000" stroke-width="0.5" stroke-dasharray="0,3,1,3,1,3,1,3,1,0" points="74.88,384.48 74.88,32.4"/>
<polyline fill="none" stroke="#000000" stroke-width="0.5" stroke-dasharray="0,3,1,3,1,3,1,3,1,0" points="138.651,384.48 138.651,32.4"/>
<polyline fill="none" stroke="#000000" stroke-width="0.5" stroke-dasharray="0,3,1,3,1,3,1,3,1,0" points="202.423,384.48 202.423,32.4"/>
<polyline fill="none" stroke="#000000" stroke-width="0.5" stroke-dasharray="0,3,1,3,1,3,1,3,1,0" points="266.194,384.48 266.194,32.4"/>
<polyline fill="none" stroke="#000000" stroke-width="0.5" stroke-dasharray="0,3,1,3,1,3,1,3,1,0" points="329.966,384.48 329.966,32.4"/>
<polyline fill="none" stroke="#000000" stroke-width="0.5" stroke-dasharray="0,3,1,3,1,3,1,3,1,0" points="393.737,384.48 393.737,32.4"/>
<polyline fill="none" stroke="#000000" stroke-width="0.5" stroke-dasharray="0,3,1,3,1,3,1,3,1,0" points="457.509,384.48 457.509,32.4"/>
<polyline fill="none" stroke="#000000" stroke-width="0.5" stroke-dasharray="0,3,1,3,1,3,1,3,1,0" points="521.28,384.48 521.28,32.4"/>
<polyline fill="none" stroke="#000000" stroke-width="0.5" stroke-dasharray="16,0" points="74.88,384.48 74.88,380.015"/>
<polyline fill="none" stroke="#000000" stroke-width="0.5" stroke-dasharray="16,0" points="74.88,32.4 74.88,36.8649"/>
<polyline fill="none" stroke="#000000" stroke-width="0.5" stroke-dasharray="16,0" points="138.651,384.48 138.651,380.015"/>
<polyline fill="none" stroke="#000000" stroke-width="0.5" stroke-dasharray="16,0" points="138.651,32.4 138.651,36.8649"/>
<polyline fill="none" stroke="#000000" stroke-width="0.5" stroke-dasharray="16,0" points="202.423,384.48 202.423,380.015"/>
<polyline fill="none" stroke="#000000" stroke-width="0.5" stroke-dasharray="16,0" points="202.423,32.4 202.423,36.8649"/>
<polyline fill="none" stroke="#000000" stroke-width="0.5" stroke-dasharray="16,0" points="266.194,384.48 266.194,380.015"/>
<polyline fill="none" stroke="#000000" stroke-width="0.5" stroke-dasharray="16,0" points="266.194,32.4 266.194,36.8649"/>
<polyline fill="none" stroke="#000000" stroke-width="0.5" stroke-dasharray="16,0" points="329.966,384.48 329.966,380.015"/>
<polyline fill="none" stroke="#000000" stroke-width="0.5" stroke-dasharray="16,0" points="329.966,32.4 329.966,36.8649"/>
<polyline fill="none" stroke="#000000" stroke-width="0.5" stroke-dasharray="16,0" points="393.737,384.48 393.737,380.015"/>
<polyline fill="none" stroke="#000000" stroke-width="0.5" stroke-dasharray="16,0" points="393.737,32.4 393.737,36.8649"/>
<polyline fill="none" stroke="#000000" stroke-width="0.5" stroke-dasharray="16,0" points="457.509,384.48 457.509,380.015"/>
<polyline fill="none" stroke="#000000" stroke-width="0.5" stroke-dasharray="16,0" points="457.509,32.4 457.509,36.8649"/>
<polyline fill="none" stroke="#000000" stroke-width="0.5" stroke-dasharray="16,0" points="521.28,384.48 521.28,380.015"/>
<polyline fill="none" stroke="#000000" stroke-width="0.5" stroke-dasharray="16,0" points="521.28,32.4 521.28,36.8649"/>
<text fill="#000000" x="74.88" y="389.481" font-size="14" text-anchor="middle" baseline-shift="-14" font-family="Helvetica">0</text>
<text fill="#000000" x="138.651" y="389.481" font-size="14" text-anchor="middle" baseline-shift="-14" font-family="Helvetica">50</text>
<text fill="#000000" x="202.423" y="389.481" font-size="14" text-anchor="middle" baseline-shift="-14" font-family="Helvetica">100</text>
<text fill="#000000" x="266.194" y="389.481" font-size="14" text-anchor="middle" baseline-shift="-14" font-family="Helvetica">150</text>
<text fill="#000000" x="329.966" y="389.481" font-size="14" text-anchor="middle" baseline-shift="-14" font-family="Helvetica">200</text>
<text fill="#000000" x="393.737" y="389.481" font-size="14" text-anchor="middle" baseline-shift="-14" font-family="Helvetica">250</text>
<text fill="#000000" x="457.509" y="389.481" font-size="14" text-anchor="middle" baseline-shift="-14" font-family="Helvetica">300</text>
<text fill="#000000" x="521.28" y="389.481" font-size="14" text-anchor="middle" baseline-shift="-14" font-family="Helvetica">350</text>
<polyline fill="none" stroke="#000000" stroke-width="0.5" stroke-dasharray="0,3,1,3,1,3,1,3,1,0" points="74.88,384.48 521.28,384.48"/>
<polyline fill="none" stroke="#000000" stroke-width="0.5" stroke-dasharray="0,3,1,3,1,3,1,3,1,0" points="74.88,296.46 521.28,296.46"/>
<polyline fill="none" stroke="#000000" stroke-width="0.5" stroke-dasharray="0,3,1,3,1,3,1,3,1,0" points="74.88,208.44 521.28,208.44"/>
<polyline fill="none" stroke="#000000" stroke-width="0.5" stroke-dasharray="0,3,1,3,1,3,1,3,1,0" points="74.88,120.42 521.28,120.42"/>
<polyline fill="none" stroke="#000000" stroke-width="0.5" stroke-dasharray="0,3,1,3,1,3,1,3,1,0" points="74.88,32.4 521.28,32.4"/>
<polyline fill="none" stroke="#000000" stroke-width="0.5" stroke-dasharray="16,0" points="74.88,384.48 79.348,384.48"/>
<polyline fill="none" stroke="#000000" stroke-width="0.5" stroke-dasharray="16,0" points="521.28,384.48 516.812,384.48"/>
<polyline fill="none" stroke="#000000" stroke-width="0.5" stroke-dasharray="16,0" points="74.88,296.46 79.348,296.46"/>
<polyline fill="none" stroke="#000000" stroke-width="0.5" stroke-dasharray="16,0" points="521.28,296.46 516.812,296.46"/>
<polyline fill="none" stroke="#000000" stroke-width="0.5" stroke-dasharray="16,0" points="74.88,208.44 79.348,208.44"/>
<polyline fill="none" stroke="#000000" stroke-width="0.5" stroke-dasharray="16,0" points="521.28,208.44 516.812,208.44"/>
<polyline fill="none" stroke="#000000" stroke-width="0.5" stroke-dasharray="16,0" points="74.88,120.42 79.348,120.42"/>
<polyline fill="none" stroke="#000000" stroke-width="0.5" stroke-dasharray="16,0" points="521.28,120.42 516.812,120.42"/>
<polyline fill="none" stroke="#000000" stroke-width="0.5" stroke-dasharray="16,0" points="74.88,32.4 79.348,32.4"/>
<polyline fill="none" stroke="#000000" stroke-width="0.5" stroke-dasharray="16,0" points="521.28,32.4 516.812,32.4"/>
<text fill="#000000" x="69.8755" y="384.48" font-size="14" text-anchor="end" baseline-shift="-7" font-family="Helvetica">1e+08</text>
<text fill="#000000" x="69.8755" y="296.46" font-size="14" text-anchor="end" baseline-shift="-7" font-family="Helvetica">1e+09</text>
<text fill="#000000" x="69.8755" y="208.44" font-size="14" text-anchor="end" baseline-shift="-7" font-family="Helvetica">1e+10</text>
<text fill="#000000" x="69.8755" y="120.42" font-size="14" text-anchor="end" baseline-shift="-7" font-family="Helvetica">1e+11</text>
<text fill="#000000" x="69.8755" y="32.4" font-size="14" text-anchor="end" baseline-shift="-7" font-family="Helvetica">1e+12</text>
<polyline fill="none" stroke="#000000" stroke-width="0.5" stroke-dasharray="0,3,1,3,1,3,1,3,1,0" points="74.88,357.983 521.28,357.983"/>
<polyline fill="none" stroke="#000000" stroke-width="0.5" stroke-dasharray="0,3,1,3,1,3,1,3,1,0" points="74.88,342.484 521.28,342.484"/>
<polyline fill="none" stroke="#000000" stroke-width="0.5" stroke-dasharray="0,3,1,3,1,3,1,3,1,0" points="74.88,331.487 521.28,331.487"/>
<polyline fill="none" stroke="#000000" stroke-width="0.5" stroke-dasharray="0,3,1,3,1,3,1,3,1,0" points="74.88,322.957 521.28,322.957"/>
<polyline fill="none" stroke="#000000" stroke-width="0.5" stroke-dasharray="0,3,1,3,1,3,1,3,1,0" points="74.88,315.987 521.28,315.987"/>
<polyline fill="none" stroke="#000000" stroke-width="0.5" stroke-dasharray="0,3,1,3,1,3,1,3,1,0" points="74.88,310.094 521.28,310.094"/>
<polyline fill="none" stroke="#000000" stroke-width="0.5" stroke-dasharray="0,3,1,3,1,3,1,3,1,0" points="74.88,304.99 521.28,304.99"/>
<polyline fill="none" stroke="#000000" stroke-width="0.5" stroke-dasharray="0,3,1,3,1,3,1,3,1,0" points="74.88,300.488 521.28,300.488"/>
<polyline fill="none" stroke="#000000" stroke-width="0.5" stroke-dasharray="0,3,1,3,1,3,1,3,1,0" points="74.88,269.963 521.28,269.963"/>
<polyline fill="none" stroke="#000000" stroke-width="0.5" stroke-dasharray="0,3,1,3,1,3,1,3,1,0" points="74.88,254.464 521.28,254.464"/>
<polyline fill="none" stroke="#000000" stroke-width="0.5" stroke-dasharray="0,3,1,3,1,3,1,3,1,0" points="74.88,243.467 521.28,243.467"/>
<polyline fill="none" stroke="#000000" stroke-width="0.5" stroke-dasharray="0,3,1,3,1,3,1,3,1,0" points="74.88,234.937 521.28,234.937"/>
<polyline fill="none" stroke="#000000" stroke-width="0.5" stroke-dasharray="0,3,1,3,1,3,1,3,1,0" points="74.88,227.967 521.28,227.967"/>
<polyline fill="none" stroke="#000000" stroke-width="0.5" stroke-dasharray="0,3,1,3,1,3,1,3,1,0" points="74.88,222.074 521.28,222.074"/>
<polyline fill="none" stroke="#000000" stroke-width="0.5" stroke-dasharray="0,3,1,3,1,3,1,3,1,0" points="74.88,216.97 521.28,216.97"/>
<polyline fill="none" stroke="#000000" stroke-width="0.5" stroke-dasharray="0,3,1,3,1,3,1,3,1,0" points="74.88,212.468 521.28,212.468"/>
<polyline fill="none" stroke="#000000" stroke-width="0.5" stroke-dasharray="0,3,1,3,1,3,1,3,1,0" points="74.88,181.943 521.28,181.943"/>
<polyline fill="none" stroke="#000000" stroke-width="0.5" stroke-dasharray="0,3,1,3,1,3,1,3,1,0" points="74.88,166.444 521.28,166.444"/>
<polyline fill="none" stroke="#000000" stroke-width="0.5" stroke-dasharray="0,3,1,3,1,3,1,3,1,0" points="74.88,155.447 521.28,155.447"/>
<polyline fill="none" stroke="#000000" stroke-width="0.5" stroke-dasharray="0,3,1,3,1,3,1,3,1,0" points="74.88,146.917 521.28,146.917"/>
<polyline fill="none" stroke="#000000" stroke-width="0.5" stroke-dasharray="0,3,1,3,1,3,1,3,1,0" points="74.88,139.947 521.28,139.947"/>
<polyline fill="none" stroke="#000000" stroke-width="0.5" stroke-dasharray="0,3,1,3,1,3,1,3,1,0" points="74.88,134.054 521.28,134.054"/>
<polyline fill="none" stroke="#000000" stroke-width="0.5" stroke-dasharray="0,3,1,3,1,3,1,3,1,0" points="74.88,128.95 521.28,128.95"/>
<polyline fill="none" stroke="#000000" stroke-width="0.5" stroke-dasharray="0,3,1,3,1,3,1,3,1,0" points="74.88,124.448 521.28,124.448"/>
<polyline fill="none" stroke="#000000" stroke-width="0.5" stroke-dasharray="0,3,1,3,1,3,1,3,1,0" points="74.88,93.9233 521.28,93.9233"/>
<polyline fill="none" stroke="#000000" stroke-width="0.5" stroke-dasharray="0,3,1,3,1,3,1,3,1,0" points="74.88,78.4237 521.28,78.4237"/>
<polyline fill="none" stroke="#000000" stroke-width="0.5" stroke-dasharray="0,3,1,3,1,3,1,3,1,0" points="74.88,67.4267 521.28,67.4267"/>
<polyline fill="none" stroke="#000000" stroke-width="0.5" stroke-dasharray="0,3,1,3,1,3,1,3,1,0" points="74.88,58.8967 521.28,58.8967"/>
<polyline fill="none" stroke="#000000" stroke-width="0.5" stroke-dasharray="0,3,1,3,1,3,1,3,1,0" points="74.88,51.9271 521.28,51.9271"/>
<polyline fill="none" stroke="#000000" stroke-width="0.5" stroke-dasharray="0,3,1,3,1,3,1,3,1,0" points="74.88,46.0344 521.28,46.0344"/>
<polyline fill="none" stroke="#000000" stroke-width="0.5" stroke-dasharray="0,3,1,3,1,3,1,3,1,0" points="74.88,40.93 521.28,40.93"/>
<polyline fill="none" stroke="#000000" stroke-width="0.5" stroke-dasharray="0,3,1,3,1,3,1,3,1,0" points="74.88,36.4275 521.28,36.4275"/>
<polyline fill="none" stroke="#000000" stroke-width="0.5" stroke-dasharray="16,0" points="74.88,357.983 77.114,357.983"/>
<polyline fill="none" stroke="#000000" stroke-width="0.5" stroke-dasharray="16,0" points="521.28,357.983 519.046,357.983"/>
<polyline fill="none" stroke="#000000" stroke-width="0.5" stroke-dasharray="16,0" points="74.88,342.484 77.114,342.484"/>
<polyline fill="none" stroke="#000000" stroke-width="0.5" stroke-dasharray="16,0" points="521.28,342.484 519.046,342.484"/>
<polyline fill="none" stroke="#000000" stroke-width="0.5" stroke-dasharray="16,0" points="74.88,331.487 77.114,331.487"/>
<polyline fill="none" stroke="#000000" stroke-width="0.5" stroke-dasharray="16,0" points="521.28,331.487 519.046,331.487"/>
<polyline fill="none" stroke="#000000" stroke-width="0.5" stroke-dasharray="16,0" points="74.88,322.957 77.114,322.957"/>
<polyline fill="none" stroke="#000000" stroke-width="0.5" stroke-dasharray="16,0" points="521.28,322.957 519.046,322.957"/>
<polyline fill="none" stroke="#000000" stroke-width="0.5" stroke-dasharray="16,0" points="74.88,315.987 77.114,315.987"/>
<polyline fill="none" stroke="#000000" stroke-width="0.5" stroke-dasharray="16,0" points="521.28,315.987 519.046,315.987"/>
<polyline fill="none" stroke="#000000" stroke-width="0.5" stroke-dasharray="16,0" points="74.88,310.094 77.114,310.094"/>
<polyline fill="none" stroke="#000000" stroke-width="0.5" stroke-dasharray="16,0" points="521.28,310.094 519.046,310.094"/>
<polyline fill="none" stroke="#000000" stroke-width="0.5" stroke-dasharray="16,0" points="74.88,304.99 77.114,304.99"/>
<polyline fill="none" stroke="#000000" stroke-width="0.5" stroke-dasharray="16,0" points="521.28,304.99 519.046,304.99"/>
<polyline fill="none" stroke="#000000" stroke-width="0.5" stroke-dasharray="16,0" points="74.88,300.488 77.114,300.488"/>
<polyline fill="none" stroke="#000000" stroke-width="0.5" stroke-dasharray="16,0" points="521.28,300.488 519.046,300.488"/>
<polyline fill="none" stroke="#000000" stroke-width="0.5" stroke-dasharray="16,0" points="74.88,269.963 77.114,269.963"/>
<polyline fill="none" stroke="#000000" stroke-width="0.5" stroke-dasharray="16,0" points="521.28,269.963 519.046,269.963"/>
<polyline fill="none" stroke="#000000" stroke-width="0.5" stroke-dasharray="16,0" points="74.88,254.464 77.114,254.464"/>
<polyline fill="none" stroke="#000000" stroke-width="0.5" stroke-dasharray="16,0" points="521.28,254.464 519.046,254.464"/>
<polyline fill="none" stroke="#000000" stroke-width="0.5" stroke-dasharray="16,0" points="74.88,243.467 77.114,243.467"/>
<polyline fill="none" stroke="#000000" stroke-width="0.5" stroke-dasharray="16,0" points="521.28,243.467 519.046,243.467"/>
<polyline fill="none" stroke="#000000" stroke-width="0.5" stroke-dasharray="16,0" points="74.88,234.937 77.114,234.937"/>
<polyline fill="none" stroke="#000000" stroke-width="0.5" stroke-dasharray="16,0" points="521.28,234.937 519.046,234.937"/>
<polyline fill="none" stroke="#000000" stroke-width="0.5" stroke-dasharray="16,0" points="74.88,227.967 77.114,227.967"/>
<polyline fill="none" stroke="#000000" stroke-width="0.5" stroke-dasharray="16,0" points="521.28,227.967 519.046,227.967"/>
<polyline fill="none" stroke="#000000" stroke-width="0.5" stroke-dasharray="16,0" points="74.88,222.074 77.114,222.074"/>
<polyline fill="none" stroke="#000000" stroke-width="0.5" stroke-dasharray="16,0" points="521.28,222.074 519.046,222.074"/>
<polyline fill="none" stroke="#000000" stroke-width="0.5" stroke-dasharray="16,0" points="74.88,216.97 77.114,216.97"/>
<polyline fill="none" stroke="#000000" stroke-width="0.5" stroke-dasharray="16,0" points="521.28,216.97 519.046,216.97"/>
<polyline fill="none" stroke="#000000" stroke-width="0.5" stroke-dasharray="16,0" points="74.88,212.468 77.114,212.468"/>
<polyline fill="none" stroke="#000000" stroke-width="0.5" stroke-dasharray="16,0" points="521.28,212.468 519.046,212.468"/>
<polyline fill="none" stroke="#000000" stroke-width="0.5" stroke-dasharray="16,0" points="74.88,181.943 77.114,181.943"/>
<polyline fill="none" stroke="#000000" stroke-width="0.5" stroke-dasharray="16,0" points="521.28,181.943 519.046,181.943"/>
<polyline fill="none" stroke="#000000" stroke-width="0.5" stroke-dasharray="16,0" points="74.88,166.444 77.114,166.444"/>
<polyline fill="none" stroke="#000000" stroke-width="0.5" stroke-dasharray="16,0" points="521.28,166.444 519.046,166.444"/>
<polyline fill="none" stroke="#000000" stroke-width="0.5" stroke-dasharray="16,0" points="74.88,155.447 77.114,155.447"/>
<polyline fill="none" stroke="#000000" stroke-width="0.5" stroke-dasharray="16,0" points="521.28,155.447 519.046,155.447"/>
<polyline fill="none" stroke="#000000" stroke-width="0.5" stroke-dasharray="16,0" points="74.88,146.917 77.114,146.917"/>
<polyline fill="none" stroke="#000000" stroke-width="0.5" stroke-dasharray="16,0" points="521.28,146.917 519.046,146.917"/>
<polyline fill="none" stroke="#000000" stroke-width="0.5" stroke-dasharray="16,0" points="74.88,139.947 77.114,139.947"/>
<polyline fill="none" stroke="#000000" stroke-width="0.5" stroke-dasharray="16,0" points="521.28,139.947 519.046,139.947"/>
<polyline fill="none" stroke="#000000" stroke-width="0.5" stroke-dasharray="16,0" points="74.88,134.054 77.114,134.054"/>
<polyline fill="none" stroke="#000000" stroke-width="0.5" stroke-dasharray="16,0" points="521.28,134.054 519.046,134.054"/>
<polyline fill="none" stroke="#000000" stroke-width="0.5" stroke-dasharray="16,0" points="74.88,128.95 77.114,128.95"/>
<polyline fill="none" stroke="#000000" stroke-width="0.5" stroke-dasharray="16,0" points="521.28,128.95 519.046,128.95"/>
<polyline fill="none" stroke="#000000" stroke-width="0.5" stroke-dasharray="16,0" points="74.88,124.448 77.114,124.448"/>
<polyline fill="none" stroke="#000000" stroke-width="0.5" stroke-dasharray="16,0" points="521.28,124.448 519.046,124.448"/>
<polyline fill="none" stroke="#000000" stroke-width="0.5" stroke-dasharray="16,0" points="74.88,93.9233 77.114,93.9233"/>
<polyline fill="none" stroke="#000000" stroke-width="0.5" stroke-dasharray="16,0" points="521.28,93.9233 519.046,93.9233"/>
<polyline fill="none" stroke="#000000" stroke-width="0.5" stroke-dasharray="16,0" points="74.88,78.4237 77.114,78.4237"/>
<polyline fill="none" stroke="#000000" stroke-width="0.5" stroke-dasharray="16,0" points="521.28,78.4237 519.046,78.4237"/>
<polyline fill="none" stroke="#000000" stroke-width="0.5" stroke-dasharray="16,0" points="74.88,67.4267 77.114,67.4267"/>
<polyline fill="none" stroke="#000000" stroke-width="0.5" stroke-dasharray="16,0" points="521.28,67.4267 519.046,67.4267"/>
<polyline fill="none" stroke="#000000" stroke-width="0.5" stroke-dasharray="16,0" points="74.88,58.8967 77.114,58.8967"/>
<polyline fill="none" stroke="#000000" stroke-width="0.5" stroke-dasharray="16,0" points="521.28,58.8967 519.046,58.8967"/>
<polyline fill="none" stroke="#000000" stroke-width="0.5" stroke-dasharray="16,0" points="74.88,51.9271 77.114,51.9271"/>
<polyline fill="none" stroke="#000000" stroke-width="0.5" stroke-dasharray="16,0" points="521.28,51.9271 519.046,51.9271"/>
<polyline fill="none" stroke="#000000" stroke-width="0.5" stroke-dasharray="16,0" points="74.88,46.0344 77.114,46.0344"/>
<polyline fill="none" stroke="#000000" stroke-width="0.5" stroke-dasharray="16,0" points="521.28,46.0344 519.046,46.0344"/>
<polyline fill="none" stroke="#000000" stroke-width="0.5" stroke-dasharray="16,0" points="74.88,40.93 77.114,40.93"/>
<polyline fill="none" stroke="#000000" stroke-width="0.5" stroke-dasharray="16,0" points="521.28,40.93 519.046,40.93"/>
<polyline fill="none" stroke="#000000" stroke-width="0.5" stroke-dasharray="16,0" points="74.88,36.4275 77.114,36.4275"/>
<polyline fill="none" stroke="#000000" stroke-width="0.5" stroke-dasharray="16,0" points="521.28,36.4275 519.046,36.4275"/>
<text fill="#000000" x="298.08" y="406.481" font-size="14" text-anchor="middle" baseline-shift="-14" font-family="Helvetica">Время анализа (мин)</text>
<text fill="#000000" x="17.8755" y="208.44" font-size="14" transform="rotate(-90, 17.8755, 208.44)" text-anchor="middle" baseline-shift="0" font-family="Helvetica">Количество срабатываний</text>
<polyline fill="none" stroke="#0000ff" stroke-width="3" stroke-dasharray="12,4" points="79.9817,346.54 87.6343,322.994 101.664,299.439 129.723,275.751 180.741,251.892 284.05,227.932 483.017,203.739"/>
<polyline fill="none" stroke="#0000ff" stroke-width="3" points="76.9817,343.54 82.9817,349.54"/>
<polyline fill="none" stroke="#0000ff" stroke-width="3" points="76.9817,349.54 82.9817,343.54"/>
<polyline fill="none" stroke="#0000ff" stroke-width="3" points="84.6343,319.994 90.6343,325.994"/>
<polyline fill="none" stroke="#0000ff" stroke-width="3" points="84.6343,325.994 90.6343,319.994"/>
<polyline fill="none" stroke="#0000ff" stroke-width="3" points="98.664,296.439 104.664,302.439"/>
<polyline fill="none" stroke="#0000ff" stroke-width="3" points="98.664,302.439 104.664,296.439"/>
<polyline fill="none" stroke="#0000ff" stroke-width="3" points="126.723,272.751 132.723,278.751"/>
<polyline fill="none" stroke="#0000ff" stroke-width="3" points="126.723,278.751 132.723,272.751"/>
<polyline fill="none" stroke="#0000ff" stroke-width="3" points="177.741,248.892 183.741,254.892"/>
<polyline fill="none" stroke="#0000ff" stroke-width="3" points="177.741,254.892 183.741,248.892"/>
<polyline fill="none" stroke="#0000ff" stroke-width="3" points="281.05,224.932 287.05,230.932"/>
<polyline fill="none" stroke="#0000ff" stroke-width="3" points="281.05,230.932 287.05,224.932"/>
<polyline fill="none" stroke="#0000ff" stroke-width="3" points="480.017,200.739 486.017,206.739"/>
<polyline fill="none" stroke="#0000ff" stroke-width="3" points="480.017,206.739 486.017,200.739"/>
<polyline fill="none" stroke="#ff0000" stroke-width="3" points="78.0686,271.134 81.2571,244.409 90.1851,214.693 106.766,188.681 132.274,162.719 190.944,135.738 295.529,108.469"/>
<polyline fill="none" stroke="#ff0000" stroke-width="3" points="81.0686,271.134 80.4956,272.897 78.9956,273.987 77.1415,273.987 75.6415,272.897 75.0686,271.134 75.6415,269.371 77.1415,268.281 78.9956,268.281 80.4956,269.371 81.0686,271.134"/>
<polyline fill="none" stroke="#ff0000" stroke-width="3" points="84.2572,244.409 83.6842,246.173 82.1842,247.263 80.3301,247.263 78.8301,246.173 78.2571,244.409 78.8301,242.646 80.3301,241.556 82.1842,241.556 83.6842,242.646 84.2572,244.409"/>
<polyline fill="none" stroke="#ff0000" stroke-width="3" points="93.1852,214.693 92.6122,216.456 91.1122,217.546 89.2581,217.546 87.7581,216.456 87.1852,214.693 87.7581,212.929 89.2581,211.839 91.1122,211.839 92.6122,212.929 93.1852,214.693"/>
<polyline fill="none" stroke="#ff0000" stroke-width="3" points="109.766,188.681 109.193,190.445 107.693,191.535 105.839,191.535 104.339,190.445 103.766,188.681 104.339,186.918 105.839,185.828 107.693,185.828 109.193,186.918 109.766,188.681"/>
<polyline fill="none" stroke="#ff0000" stroke-width="3" points="135.274,162.719 134.701,164.482 133.201,165.572 131.347,165.572 129.847,164.482 129.274,162.719 129.847,160.956 131.347,159.866 133.201,159.866 134.701,160.956 135.274,162.719"/>
<polyline fill="none" stroke="#ff0000" stroke-width="3" points="193.944,135.739 193.371,137.502 191.871,138.592 190.017,138.592 188.517,137.502 187.944,135.739 188.517,133.975 190.017,132.885 191.871,132.885 193.371,133.975 193.944,135.739"/>
<polyline fill="none" stroke="#ff0000" stroke-width="3" points="298.529,108.469 297.956,110.233 296.456,111.322 294.602,111.322 293.102,110.233 292.529,108.469 293.102,106.706 294.602,105.616 296.456,105.616 297.956,106.706 298.529,108.469"/>
<polygon fill="#ffffff" points="388.223,381.729 388.223,341.257 388.223,381.729"/>
<polygon fill="#ffffff" points="388.223,341.257 388.223,341.257 388.223,381.729"/>
<polygon fill="#ffffff" points="209.171,341.257 388.223,341.257 209.171,341.257"/>
<polygon fill="#ffffff" points="388.223,341.257 388.223,341.257 209.171,341.257"/>
<polygon fill="#ffffff" points="209.171,381.729 388.223,381.729 209.171,341.257"/>
<polygon fill="#ffffff" points="388.223,381.729 388.223,341.257 209.171,341.257"/>
<polyline fill="none" stroke="#000000" stroke-width="0.5" stroke-dasharray="16,0" points="209.171,381.729 388.223,381.729"/>
<polyline fill="none" stroke="#000000" stroke-width="0.5" stroke-dasharray="16,0" points="209.171,341.257 388.223,341.257"/>
<polyline fill="none" stroke="#000000" stroke-width="0.5" stroke-dasharray="16,0" points="209.171,341.257 388.223,341.257"/>
<polyline fill="none" stroke="#000000" stroke-width="0.5" stroke-dasharray="16,0" points="209.171,381.729 388.223,381.729"/>
<polyline fill="none" stroke="#000000" stroke-width="0.5" stroke-dasharray="16,0" points="209.171,381.729 209.171,341.257"/>
<polyline fill="none" stroke="#000000" stroke-width="0.5" stroke-dasharray="16,0" points="388.223,381.729 388.223,341.257"/>
<polyline fill="none" stroke="#000000" stroke-width="0.5" stroke-dasharray="16,0" points="388.223,381.729 388.223,341.257"/>
<polyline fill="none" stroke="#000000" stroke-width="0.5" stroke-dasharray="16,0" points="209.171,381.729 209.171,341.257 209.171,341.257"/>
<polyline fill="none" stroke="#000000" stroke-width="0.5" stroke-dasharray="16,0" points="388.223,341.257 388.223,341.257"/>
<polyline fill="none" stroke="#000000" stroke-width="0.5" stroke-dasharray="16,0" points="388.223,381.729 388.223,381.729"/>
<polyline fill="none" stroke="#000000" stroke-width="0.5" stroke-dasharray="16,0" points="209.171,381.729 209.171,381.729"/>
<text fill="#000000" x="235.301" y="351.375" font-size="14" text-anchor="start" baseline-shift="-7" font-family="Helvetica">Метод встраивания</text>
<text fill="#000000" x="235.301" y="371.611" font-size="14" text-anchor="start" baseline-shift="-7" font-family="Helvetica">Метод резюме</text>
<polyline fill="none" stroke="#0000ff" stroke-width="0.5" stroke-dasharray="12,4" points="211.922,351.375 232.551,351.375"/>
<polyline fill="none" stroke="#0000ff" stroke-width="0.5" points="219.236,348.375 225.236,354.375"/>
<polyline fill="none" stroke="#0000ff" stroke-width="0.5" points="219.236,354.375 225.236,348.375"/>
<polyline fill="none" stroke="#ff0000" stroke-width="0.5" points="211.922,371.611 232.551,371.611"/>
<polyline fill="none" stroke="#ff0000" stroke-width="0.5" points="225.236,371.611 224.663,373.375 223.163,374.465 221.309,374.465 219.809,373.375 219.236,371.611 219.809,369.848 221.309,368.758 223.163,368.758 224.663,369.848 225.236,371.611"/>
</g>
</svg>
