<?xml version="1.0" encoding="UTF-8" standalone="no"?>
<svg xmlns="http://www.w3.org/2000/svg"
     xmlns:xlink="http://www.w3.org/1999/xlink"
     width="576px" height="432px" viewBox="0 0 576 432">
<title>glps_renderer figure</title>
<desc>
Creator: GL2PS 1.3.8, (C) 1999-2012 C. Geuzaine
For: Octave
CreationDate: Sun Nov  8 16:09:20 2015
</desc>
<defs>
</defs>
<g shape-rendering="crispEdges">
<polygon fill="#ffffff" points="521.28,384.48 521.28,32.4 521.28,384.48"/>
<polygon fill="#ffffff" points="521.28,32.4 521.28,32.4 521.28,384.48"/>
<polygon fill="#ffffff" points="74.88,32.4 521.28,32.4 74.88,32.4"/>
<polygon fill="#ffffff" points="521.28,32.4 521.28,32.4 74.88,32.4"/>
<polygon fill="#ffffff" points="74.88,384.48 521.28,384.48 74.88,32.4"/>
<polygon fill="#ffffff" points="521.28,384.48 521.28,32.4 74.88,32.4"/>
<polyline fill="none" stroke="#000000" stroke-width="0.5" stroke-dasharray="16,0" points="74.88,384.48 521.28,384.48"/>
<polyline fill="none" stroke="#000000" stroke-width="0.5" stroke-dasharray="16,0" points="74.88,32.4 521.28,32.4"/>
<polyline fill="none" stroke="#000000" stroke-width="0.5" stroke-dasharray="16,0" points="74.88,32.4 521.28,32.4"/>
<polyline fill="none" stroke="#000000" stroke-width="0.5" stroke-dasharray="16,0" points="74.88,384.48 521.28,384.48"/>
<polyline fill="none" stroke="#000000" stroke-width="0.5" stroke-dasharray="16,0" points="74.88,384.48 74.88,32.4"/>
<polyline fill="none" stroke="#000000" stroke-width="0.5" stroke-dasharray="16,0" points="521.28,384.48 521.28,32.4"/>
<polyline fill="none" stroke="#000000" stroke-width="0.5" stroke-dasharray="16,0" points="521.28,384.48 521.28,32.4"/>
<polyline fill="none" stroke="#000000" stroke-width="0.5" stroke-dasharray="16,0" points="74.88,384.48 74.88,32.4 74.88,32.4"/>
<polyline fill="none" stroke="#000000" stroke-width="0.5" stroke-dasharray="16,0" points="521.28,32.4 521.28,32.4"/>
<polyline fill="none" stroke="#000000" stroke-width="0.5" stroke-dasharray="16,0" points="521.28,384.48 521.28,384.48"/>
<polyline fill="none" stroke="#000000" stroke-width="0.5" stroke-dasharray="16,0" points="74.88,384.48 74.88,384.48"/>
<polyline fill="none" stroke="#000000" stroke-width="0.5" stroke-dasharray="0,3,1,3,1,3,1,3,1,0" points="74.88,384.48 74.88,32.4"/>
<polyline fill="none" stroke="#000000" stroke-width="0.5" stroke-dasharray="0,3,1,3,1,3,1,3,1,0" points="138.651,384.48 138.651,32.4"/>
<polyline fill="none" stroke="#000000" stroke-width="0.5" stroke-dasharray="0,3,1,3,1,3,1,3,1,0" points="202.423,384.48 202.423,32.4"/>
<polyline fill="none" stroke="#000000" stroke-width="0.5" stroke-dasharray="0,3,1,3,1,3,1,3,1,0" points="266.194,384.48 266.194,32.4"/>
<polyline fill="none" stroke="#000000" stroke-width="0.5" stroke-dasharray="0,3,1,3,1,3,1,3,1,0" points="329.966,384.48 329.966,32.4"/>
<polyline fill="none" stroke="#000000" stroke-width="0.5" stroke-dasharray="0,3,1,3,1,3,1,3,1,0" points="393.737,384.48 393.737,32.4"/>
<polyline fill="none" stroke="#000000" stroke-width="0.5" stroke-dasharray="0,3,1,3,1,3,1,3,1,0" points="457.509,384.48 457.509,32.4"/>
<polyline fill="none" stroke="#000000" stroke-width="0.5" stroke-dasharray="0,3,1,3,1,3,1,3,1,0" points="521.28,384.48 521.28,32.4"/>
<polyline fill="none" stroke="#000000" stroke-width="0.5" stroke-dasharray="16,0" points="74.88,384.48 74.88,380.015"/>
<polyline fill="none" stroke="#000000" stroke-width="0.5" stroke-dasharray="16,0" points="74.88,32.4 74.88,36.865"/>
<polyline fill="none" stroke="#000000" stroke-width="0.5" stroke-dasharray="16,0" points="138.651,384.48 138.651,380.015"/>
<polyline fill="none" stroke="#000000" stroke-width="0.5" stroke-dasharray="16,0" points="138.651,32.4 138.651,36.865"/>
<polyline fill="none" stroke="#000000" stroke-width="0.5" stroke-dasharray="16,0" points="202.423,384.48 202.423,380.015"/>
<polyline fill="none" stroke="#000000" stroke-width="0.5" stroke-dasharray="16,0" points="202.423,32.4 202.423,36.865"/>
<polyline fill="none" stroke="#000000" stroke-width="0.5" stroke-dasharray="16,0" points="266.194,384.48 266.194,380.015"/>
<polyline fill="none" stroke="#000000" stroke-width="0.5" stroke-dasharray="16,0" points="266.194,32.4 266.194,36.865"/>
<polyline fill="none" stroke="#000000" stroke-width="0.5" stroke-dasharray="16,0" points="329.966,384.48 329.966,380.015"/>
<polyline fill="none" stroke="#000000" stroke-width="0.5" stroke-dasharray="16,0" points="329.966,32.4 329.966,36.865"/>
<polyline fill="none" stroke="#000000" stroke-width="0.5" stroke-dasharray="16,0" points="393.737,384.48 393.737,380.015"/>
<polyline fill="none" stroke="#000000" stroke-width="0.5" stroke-dasharray="16,0" points="393.737,32.4 393.737,36.865"/>
<polyline fill="none" stroke="#000000" stroke-width="0.5" stroke-dasharray="16,0" points="457.509,384.48 457.509,380.015"/>
<polyline fill="none" stroke="#000000" stroke-width="0.5" stroke-dasharray="16,0" points="457.509,32.4 457.509,36.865"/>
<polyline fill="none" stroke="#000000" stroke-width="0.5" stroke-dasharray="16,0" points="521.28,384.48 521.28,380.015"/>
<polyline fill="none" stroke="#000000" stroke-width="0.5" stroke-dasharray="16,0" points="521.28,32.4 521.28,36.865"/>
<text fill="#000000" x="74.88" y="389.481" font-size="14" text-anchor="middle" baseline-shift="-14" font-family="Helvetica">0</text>
<text fill="#000000" x="138.651" y="389.481" font-size="14" text-anchor="middle" baseline-shift="-14" font-family="Helvetica">50</text>
<text fill="#000000" x="202.423" y="389.481" font-size="14" text-anchor="middle" baseline-shift="-14" font-family="Helvetica">100</text>
<text fill="#000000" x="266.194" y="389.481" font-size="14" text-anchor="middle" baseline-shift="-14" font-family="Helvetica">150</text>
<text fill="#000000" x="329.966" y="389.481" font-size="14" text-anchor="middle" baseline-shift="-14" font-family="Helvetica">200</text>
<text fill="#000000" x="393.737" y="389.481" font-size="14" text-anchor="middle" baseline-shift="-14" font-family="Helvetica">250</text>
<text fill="#000000" x="457.509" y="389.481" font-size="14" text-anchor="middle" baseline-shift="-14" font-family="Helvetica">300</text>
<text fill="#000000" x="521.28" y="389.481" font-size="14" text-anchor="middle" baseline-shift="-14" font-family="Helvetica">350</text>
<polyline fill="none" stroke="#000000" stroke-width="0.5" stroke-dasharray="0,3,1,3,1,3,1,3,1,0" points="74.88,384.48 521.28,384.48"/>
<polyline fill="none" stroke="#000000" stroke-width="0.5" stroke-dasharray="0,3,1,3,1,3,1,3,1,0" points="74.88,314.064 521.28,314.064"/>
<polyline fill="none" stroke="#000000" stroke-width="0.5" stroke-dasharray="0,3,1,3,1,3,1,3,1,0" points="74.88,243.648 521.28,243.648"/>
<polyline fill="none" stroke="#000000" stroke-width="0.5" stroke-dasharray="0,3,1,3,1,3,1,3,1,0" points="74.88,173.232 521.28,173.232"/>
<polyline fill="none" stroke="#000000" stroke-width="0.5" stroke-dasharray="0,3,1,3,1,3,1,3,1,0" points="74.88,102.816 521.28,102.816"/>
<polyline fill="none" stroke="#000000" stroke-width="0.5" stroke-dasharray="0,3,1,3,1,3,1,3,1,0" points="74.88,32.4 521.28,32.4"/>
<polyline fill="none" stroke="#000000" stroke-width="0.5" stroke-dasharray="16,0" points="74.88,384.48 79.348,384.48"/>
<polyline fill="none" stroke="#000000" stroke-width="0.5" stroke-dasharray="16,0" points="521.28,384.48 516.812,384.48"/>
<polyline fill="none" stroke="#000000" stroke-width="0.5" stroke-dasharray="16,0" points="74.88,314.064 79.348,314.064"/>
<polyline fill="none" stroke="#000000" stroke-width="0.5" stroke-dasharray="16,0" points="521.28,314.064 516.812,314.064"/>
<polyline fill="none" stroke="#000000" stroke-width="0.5" stroke-dasharray="16,0" points="74.88,243.648 79.348,243.648"/>
<polyline fill="none" stroke="#000000" stroke-width="0.5" stroke-dasharray="16,0" points="521.28,243.648 516.812,243.648"/>
<polyline fill="none" stroke="#000000" stroke-width="0.5" stroke-dasharray="16,0" points="74.88,173.232 79.348,173.232"/>
<polyline fill="none" stroke="#000000" stroke-width="0.5" stroke-dasharray="16,0" points="521.28,173.232 516.812,173.232"/>
<polyline fill="none" stroke="#000000" stroke-width="0.5" stroke-dasharray="16,0" points="74.88,102.816 79.348,102.816"/>
<polyline fill="none" stroke="#000000" stroke-width="0.5" stroke-dasharray="16,0" points="521.28,102.816 516.812,102.816"/>
<polyline fill="none" stroke="#000000" stroke-width="0.5" stroke-dasharray="16,0" points="74.88,32.4 79.348,32.4"/>
<polyline fill="none" stroke="#000000" stroke-width="0.5" stroke-dasharray="16,0" points="521.28,32.4 516.812,32.4"/>
<text fill="#000000" x="69.8755" y="384.48" font-size="14" text-anchor="end" baseline-shift="-7" font-family="Helvetica">0</text>
<text fill="#000000" x="69.8755" y="314.064" font-size="14" text-anchor="end" baseline-shift="-7" font-family="Helvetica">2e+06</text>
<text fill="#000000" x="69.8755" y="243.648" font-size="14" text-anchor="end" baseline-shift="-7" font-family="Helvetica">4e+06</text>
<text fill="#000000" x="69.8755" y="173.232" font-size="14" text-anchor="end" baseline-shift="-7" font-family="Helvetica">6e+06</text>
<text fill="#000000" x="69.8755" y="102.816" font-size="14" text-anchor="end" baseline-shift="-7" font-family="Helvetica">8e+06</text>
<text fill="#000000" x="69.8755" y="32.4" font-size="14" text-anchor="end" baseline-shift="-7" font-family="Helvetica">1e+07</text>
<text fill="#000000" x="298.08" y="406.481" font-size="14" text-anchor="middle" baseline-shift="-14" font-family="Helvetica">Время анализа (мин)</text>
<text fill="#000000" x="17.8755" y="208.44" font-size="14" transform="rotate(-90, 17.8755, 208.44)" text-anchor="middle" baseline-shift="0" font-family="Helvetica">Количество срабатываний</text>
<polyline fill="none" stroke="#0000ff" stroke-width="3" stroke-dasharray="12,4" points="79.9817,381.598 87.6343,378.686 101.664,373.264 129.723,362.504 180.741,342.234 284.05,305.536 483.017,236.975"/>
<polyline fill="none" stroke="#0000ff" stroke-width="3" points="76.9817,378.598 82.9817,384.598"/>
<polyline fill="none" stroke="#0000ff" stroke-width="3" points="76.9817,384.598 82.9817,378.598"/>
<polyline fill="none" stroke="#0000ff" stroke-width="3" points="84.6343,375.686 90.6343,381.687"/>
<polyline fill="none" stroke="#0000ff" stroke-width="3" points="84.6343,381.687 90.6343,375.686"/>
<polyline fill="none" stroke="#0000ff" stroke-width="3" points="98.664,370.264 104.664,376.264"/>
<polyline fill="none" stroke="#0000ff" stroke-width="3" points="98.664,376.264 104.664,370.264"/>
<polyline fill="none" stroke="#0000ff" stroke-width="3" points="126.723,359.504 132.723,365.504"/>
<polyline fill="none" stroke="#0000ff" stroke-width="3" points="126.723,365.504 132.723,359.504"/>
<polyline fill="none" stroke="#0000ff" stroke-width="3" points="177.741,339.234 183.741,345.234"/>
<polyline fill="none" stroke="#0000ff" stroke-width="3" points="177.741,345.234 183.741,339.234"/>
<polyline fill="none" stroke="#0000ff" stroke-width="3" points="281.05,302.536 287.05,308.536"/>
<polyline fill="none" stroke="#0000ff" stroke-width="3" points="281.05,308.536 287.05,302.536"/>
<polyline fill="none" stroke="#0000ff" stroke-width="3" points="480.017,233.975 486.017,239.975"/>
<polyline fill="none" stroke="#0000ff" stroke-width="3" points="480.017,239.975 486.017,233.975"/>
<polyline fill="none" stroke="#ff0000" stroke-width="3" points="78.0686,377.12 81.2571,371.566 90.1851,361.278 106.766,343.115 132.274,301.434 190.944,227.256 295.529,79.5334"/>
<polyline fill="none" stroke="#ff0000" stroke-width="3" points="81.0686,377.12 80.4956,378.884 78.9956,379.973 77.1415,379.973 75.6415,378.884 75.0686,377.12 75.6415,375.357 77.1415,374.267 78.9956,374.267 80.4956,375.357 81.0686,377.12"/>
<polyline fill="none" stroke="#ff0000" stroke-width="3" points="84.2572,371.566 83.6842,373.33 82.1842,374.42 80.3301,374.42 78.8301,373.33 78.2571,371.566 78.8301,369.803 80.3301,368.713 82.1842,368.713 83.6842,369.803 84.2572,371.566"/>
<polyline fill="none" stroke="#ff0000" stroke-width="3" points="93.1852,361.278 92.6122,363.042 91.1122,364.131 89.2581,364.131 87.7581,363.042 87.1852,361.278 87.7581,359.515 89.2581,358.425 91.1122,358.425 92.6122,359.515 93.1852,361.278"/>
<polyline fill="none" stroke="#ff0000" stroke-width="3" points="109.766,343.115 109.193,344.879 107.693,345.968 105.839,345.968 104.339,344.879 103.766,343.115 104.339,341.352 105.839,340.262 107.693,340.262 109.193,341.352 109.766,343.115"/>
<polyline fill="none" stroke="#ff0000" stroke-width="3" points="135.274,301.434 134.701,303.198 133.201,304.288 131.347,304.288 129.847,303.198 129.274,301.434 129.847,299.671 131.347,298.581 133.201,298.581 134.701,299.671 135.274,301.434"/>
<polyline fill="none" stroke="#ff0000" stroke-width="3" points="193.944,227.256 193.371,229.02 191.871,230.109 190.017,230.109 188.517,229.02 187.944,227.256 188.517,225.493 190.017,224.403 191.871,224.403 193.371,225.493 193.944,227.256"/>
<polyline fill="none" stroke="#ff0000" stroke-width="3" points="298.529,79.5334 297.956,81.2968 296.456,82.3866 294.602,82.3866 293.102,81.2968 292.529,79.5334 293.102,77.7701 294.602,76.6802 296.456,76.6802 297.956,77.7701 298.529,79.5334"/>
<polygon fill="#ffffff" points="388.223,381.729 388.223,341.257 388.223,381.729"/>
<polygon fill="#ffffff" points="388.223,341.257 388.223,341.257 388.223,381.729"/>
<polygon fill="#ffffff" points="209.171,341.257 388.223,341.257 209.171,341.257"/>
<polygon fill="#ffffff" points="388.223,341.257 388.223,341.257 209.171,341.257"/>
<polygon fill="#ffffff" points="209.171,381.729 388.223,381.729 209.171,341.257"/>
<polygon fill="#ffffff" points="388.223,381.729 388.223,341.257 209.171,341.257"/>
<polyline fill="none" stroke="#000000" stroke-width="0.5" stroke-dasharray="16,0" points="209.171,381.729 388.223,381.729"/>
<polyline fill="none" stroke="#000000" stroke-width="0.5" stroke-dasharray="16,0" points="209.171,341.257 388.223,341.257"/>
<polyline fill="none" stroke="#000000" stroke-width="0.5" stroke-dasharray="16,0" points="209.171,341.257 388.223,341.257"/>
<polyline fill="none" stroke="#000000" stroke-width="0.5" stroke-dasharray="16,0" points="209.171,381.729 388.223,381.729"/>
<polyline fill="none" stroke="#000000" stroke-width="0.5" stroke-dasharray="16,0" points="209.171,381.729 209.171,341.257"/>
<polyline fill="none" stroke="#000000" stroke-width="0.5" stroke-dasharray="16,0" points="388.223,381.729 388.223,341.257"/>
<polyline fill="none" stroke="#000000" stroke-width="0.5" stroke-dasharray="16,0" points="388.223,381.729 388.223,341.257"/>
<polyline fill="none" stroke="#000000" stroke-width="0.5" stroke-dasharray="16,0" points="209.171,381.729 209.171,341.257 209.171,341.257"/>
<polyline fill="none" stroke="#000000" stroke-width="0.5" stroke-dasharray="16,0" points="388.223,341.257 388.223,341.257"/>
<polyline fill="none" stroke="#000000" stroke-width="0.5" stroke-dasharray="16,0" points="388.223,381.729 388.223,381.729"/>
<polyline fill="none" stroke="#000000" stroke-width="0.5" stroke-dasharray="16,0" points="209.171,381.729 209.171,381.729"/>
<text fill="#000000" x="235.301" y="351.375" font-size="14" text-anchor="start" baseline-shift="-7" font-family="Helvetica">Метод встраивания</text>
<text fill="#000000" x="235.301" y="371.611" font-size="14" text-anchor="start" baseline-shift="-7" font-family="Helvetica">Метод резюме</text>
<polyline fill="none" stroke="#0000ff" stroke-width="0.5" stroke-dasharray="12,4" points="211.922,351.375 232.551,351.375"/>
<polyline fill="none" stroke="#0000ff" stroke-width="0.5" points="219.236,348.375 225.236,354.375"/>
<polyline fill="none" stroke="#0000ff" stroke-width="0.5" points="219.236,354.375 225.236,348.375"/>
<polyline fill="none" stroke="#ff0000" stroke-width="0.5" points="211.922,371.611 232.551,371.611"/>
<polyline fill="none" stroke="#ff0000" stroke-width="0.5" points="225.236,371.611 224.663,373.375 223.163,374.465 221.309,374.465 219.809,373.375 219.236,371.611 219.809,369.848 221.309,368.758 223.163,368.758 224.663,369.848 225.236,371.611"/>
</g>
</svg>
