<?xml version="1.0" encoding="UTF-8" standalone="no"?>
<!DOCTYPE svg PUBLIC "-//W3C//DTD SVG 1.0//EN" "http://www.w3.org/TR/2001/PR-SVG-20010719/DTD/svg10.dtd">
<svg width="80cm" height="32cm" viewBox="89 102 1584 639" xmlns="http://www.w3.org/2000/svg" xmlns:xlink="http://www.w3.org/1999/xlink">
  <g>
    <rect style="fill: #ffffff" x="500" y="240" width="180" height="80"/>
    <rect style="fill: none; fill-opacity:0; stroke-width: 2; stroke: #000000" x="500" y="240" width="180" height="80"/>
    <text font-size="12.7998" style="fill: #000000;text-anchor:middle;font-family:sans-serif;font-style:normal;font-weight:700" x="590" y="267.9">
      <tspan x="590" y="267.9">Отсечение</tspan>
      <tspan x="590" y="283.9">недостижимых</tspan>
      <tspan x="590" y="299.9">ветвей</tspan>
    </text>
    <text font-size="9.59985" style="fill: #000000;text-anchor:end;font-family:sans-serif;font-style:normal;font-weight:700" x="676.4" y="316.4">A32</text>
  </g>
  <g>
    <rect style="fill: #ffffff" x="240" y="120" width="182.65" height="80"/>
    <rect style="fill: none; fill-opacity:0; stroke-width: 2; stroke: #000000" x="240" y="120" width="182.65" height="80"/>
    <text font-size="12.7998" style="fill: #000000;text-anchor:middle;font-family:sans-serif;font-style:normal;font-weight:700" x="331.325" y="147.9">
      <tspan x="331.325" y="147.9">Определение</tspan>
      <tspan x="331.325" y="163.9">новых множеств</tspan>
      <tspan x="331.325" y="179.9">конкретных значений</tspan>
    </text>
    <text font-size="9.59985" style="fill: #000000;text-anchor:end;font-family:sans-serif;font-style:normal;font-weight:700" x="419.05" y="196.4">A31</text>
  </g>
  <g>
    <rect style="fill: #ffffff" x="1280" y="580" width="180" height="80"/>
    <rect style="fill: none; fill-opacity:0; stroke-width: 2; stroke: #000000" x="1280" y="580" width="180" height="80"/>
    <text font-size="12.7998" style="fill: #000000;text-anchor:middle;font-family:sans-serif;font-style:normal;font-weight:700" x="1370" y="607.9">
      <tspan x="1370" y="607.9">Применение</tspan>
      <tspan x="1370" y="623.9">резюме проверя-</tspan>
      <tspan x="1370" y="639.9">ющими модулями</tspan>
    </text>
    <text font-size="9.59985" style="fill: #000000;text-anchor:end;font-family:sans-serif;font-style:normal;font-weight:700" x="1456.4" y="656.4">A35</text>
  </g>
  <g>
    <rect style="fill: #ffffff" x="1020" y="480" width="180" height="80"/>
    <rect style="fill: none; fill-opacity:0; stroke-width: 2; stroke: #000000" x="1020" y="480" width="180" height="80"/>
    <text font-size="12.7998" style="fill: #000000;text-anchor:middle;font-family:sans-serif;font-style:normal;font-weight:700" x="1110" y="507.9">
      <tspan x="1110" y="507.9">Связывание</tspan>
      <tspan x="1110" y="523.9">возвращаемого</tspan>
      <tspan x="1110" y="539.9">значения</tspan>
    </text>
    <text font-size="9.59985" style="fill: #000000;text-anchor:end;font-family:sans-serif;font-style:normal;font-weight:700" x="1196.4" y="556.4">A34</text>
  </g>
  <g>
    <rect style="fill: #ffffff" x="760" y="360" width="180" height="80"/>
    <rect style="fill: none; fill-opacity:0; stroke-width: 2; stroke: #000000" x="760" y="360" width="180" height="80"/>
    <text font-size="12.7998" style="fill: #000000;text-anchor:middle;font-family:sans-serif;font-style:normal;font-weight:700" x="850" y="387.9">
      <tspan x="850" y="387.9">Запись новых</tspan>
      <tspan x="850" y="403.9">значений в память,</tspan>
      <tspan x="850" y="419.9">инвалидация</tspan>
    </text>
    <text font-size="9.59985" style="fill: #000000;text-anchor:end;font-family:sans-serif;font-style:normal;font-weight:700" x="936.4" y="436.4">A33</text>
  </g>
  <g>
    <path style="fill: none; fill-opacity:0; stroke-width: 2; stroke: #000000" d="M 460,173.205 A 13.2052,13.2052 0 0 0 446.795,160"/>
    <line style="fill: none; fill-opacity:0; stroke-width: 2; stroke: #000000" x1="422.65" y1="160" x2="446.795" y2="160"/>
    <path style="fill: none; fill-opacity:0; stroke-width: 2; stroke: #000000" d="M 460,251.868 A 8.13173,8.13173 0 0 0 468.132,260"/>
    <line style="fill: none; fill-opacity:0; stroke-width: 2; stroke: #000000" x1="460" y1="173.205" x2="460" y2="251.868"/>
    <line style="fill: none; fill-opacity:0; stroke-width: 2; stroke: #000000" x1="468.132" y1="260" x2="483" y2="260"/>
    <polygon style="fill: #000000" points="483,268 499,260 483,252 "/>
    <polygon style="fill: none; fill-opacity:0; stroke-width: 2; stroke: #000000" points="483,268 499,260 483,252 "/>
  </g>
  <g>
    <line style="fill: none; fill-opacity:0; stroke-width: 2; stroke: #000000" x1="100" y1="140" x2="230.264" y2="140"/>
    <polygon style="fill: #000000" points="237.764,140 227.764,145 230.264,140 227.764,135 "/>
    <polygon style="fill: none; fill-opacity:0; stroke-width: 2; stroke: #000000" points="237.764,140 227.764,145 230.264,140 227.764,135 "/>
  </g>
  <g>
    <path style="fill: none; fill-opacity:0; stroke-width: 2; stroke: #000000" d="M 717.35,293.205 A 13.2052,13.2052 0 0 0 704.145,280"/>
    <line style="fill: none; fill-opacity:0; stroke-width: 2; stroke: #000000" x1="680" y1="280" x2="704.145" y2="280"/>
    <path style="fill: none; fill-opacity:0; stroke-width: 2; stroke: #000000" d="M 717.35,371.868 A 8.13173,8.13173 0 0 0 725.482,380"/>
    <line style="fill: none; fill-opacity:0; stroke-width: 2; stroke: #000000" x1="717.35" y1="293.205" x2="717.35" y2="371.868"/>
    <line style="fill: none; fill-opacity:0; stroke-width: 2; stroke: #000000" x1="725.482" y1="380" x2="740.35" y2="380"/>
    <polygon style="fill: #000000" points="740.35,388 756.35,380 740.35,372 "/>
    <polygon style="fill: none; fill-opacity:0; stroke-width: 2; stroke: #000000" points="740.35,388 756.35,380 740.35,372 "/>
  </g>
  <g>
    <path style="fill: none; fill-opacity:0; stroke-width: 2; stroke: #000000" d="M 977.35,413.205 A 13.2052,13.2052 0 0 0 964.145,400"/>
    <line style="fill: none; fill-opacity:0; stroke-width: 2; stroke: #000000" x1="940" y1="400" x2="964.145" y2="400"/>
    <path style="fill: none; fill-opacity:0; stroke-width: 2; stroke: #000000" d="M 977.35,491.868 A 8.13173,8.13173 0 0 0 985.482,500"/>
    <line style="fill: none; fill-opacity:0; stroke-width: 2; stroke: #000000" x1="977.35" y1="413.205" x2="977.35" y2="491.868"/>
    <line style="fill: none; fill-opacity:0; stroke-width: 2; stroke: #000000" x1="985.482" y1="500" x2="1000.35" y2="500"/>
    <polygon style="fill: #000000" points="1000.35,508 1016.35,500 1000.35,492 "/>
    <polygon style="fill: none; fill-opacity:0; stroke-width: 2; stroke: #000000" points="1000.35,508 1016.35,500 1000.35,492 "/>
  </g>
  <g>
    <path style="fill: none; fill-opacity:0; stroke-width: 2; stroke: #000000" d="M 1237.35,513.205 A 13.2052,13.2052 0 0 0 1224.14,500"/>
    <line style="fill: none; fill-opacity:0; stroke-width: 2; stroke: #000000" x1="1200" y1="500" x2="1224.14" y2="500"/>
    <path style="fill: none; fill-opacity:0; stroke-width: 2; stroke: #000000" d="M 1237.35,591.868 A 8.13173,8.13173 0 0 0 1245.48,600"/>
    <line style="fill: none; fill-opacity:0; stroke-width: 2; stroke: #000000" x1="1237.35" y1="513.205" x2="1237.35" y2="591.868"/>
    <line style="fill: none; fill-opacity:0; stroke-width: 2; stroke: #000000" x1="1245.48" y1="600" x2="1260.35" y2="600"/>
    <polygon style="fill: #000000" points="1260.35,608 1276.35,600 1260.35,592 "/>
    <polygon style="fill: none; fill-opacity:0; stroke-width: 2; stroke: #000000" points="1260.35,608 1276.35,600 1260.35,592 "/>
  </g>
  <text font-size="12.7998" style="fill: #000000;text-anchor:start;font-family:sans-serif;font-style:normal;font-weight:normal" x="89" y="114">
    <tspan x="89" y="114">Состояние программы</tspan>
    <tspan x="89" y="130">на момент вызова</tspan>
  </text>
  <text font-size="12.7998" style="fill: #000000;text-anchor:start;font-family:sans-serif;font-style:normal;font-weight:normal" x="480" y="180">
    <tspan x="480" y="180">Набор состояний программы</tspan>
    <tspan x="480" y="196">с уточнёнными множествами</tspan>
    <tspan x="480" y="212">конкретных значений</tspan>
  </text>
  <text font-size="12.7998" style="fill: #000000;text-anchor:start;font-family:sans-serif;font-style:normal;font-weight:normal" x="740" y="300">
    <tspan x="740" y="300">Множество достижимых</tspan>
    <tspan x="740" y="316">состояний программы</tspan>
  </text>
  <text font-size="12.7998" style="fill: #000000;text-anchor:start;font-family:sans-serif;font-style:normal;font-weight:normal" x="1000" y="420">
    <tspan x="1000" y="420">Множество состояний</tspan>
    <tspan x="1000" y="436">программы с учётом</tspan>
    <tspan x="1000" y="452">записей в память</tspan>
  </text>
  <text font-size="12.7998" style="fill: #000000;text-anchor:start;font-family:sans-serif;font-style:normal;font-weight:normal" x="1260" y="520">
    <tspan x="1260" y="520">Множество состояний</tspan>
    <tspan x="1260" y="536">программы со связанным</tspan>
    <tspan x="1260" y="552">возвращаемым значением</tspan>
  </text>
  <g>
    <line style="fill: none; fill-opacity:0; stroke-width: 2; stroke: #000000" x1="1460" y1="620" x2="1610.26" y2="620"/>
    <polygon style="fill: #000000" points="1617.76,620 1607.76,625 1610.26,620 1607.76,615 "/>
    <polygon style="fill: none; fill-opacity:0; stroke-width: 2; stroke: #000000" points="1617.76,620 1607.76,625 1610.26,620 1607.76,615 "/>
  </g>
  <text font-size="12.7998" style="fill: #000000;text-anchor:start;font-family:sans-serif;font-style:normal;font-weight:normal" x="1477" y="555">
    <tspan x="1477" y="555">Результирующее множество</tspan>
    <tspan x="1477" y="571">узлов графа выполнения</tspan>
    <tspan x="1477" y="587">с учётом информации</tspan>
    <tspan x="1477" y="603">проверяющих модулей</tspan>
  </text>
  <g>
    <line style="fill: none; fill-opacity:0; stroke-width: 2; stroke: #000000" x1="100" y1="180" x2="230.264" y2="180"/>
    <polygon style="fill: #000000" points="237.764,180 227.764,185 230.264,180 227.764,175 "/>
    <polygon style="fill: none; fill-opacity:0; stroke-width: 2; stroke: #000000" points="237.764,180 227.764,185 230.264,180 227.764,175 "/>
  </g>
  <g>
    <path style="fill: none; fill-opacity:0; stroke-width: 2; stroke: #000000" d="M 220,195 A 15,15 0 0 0 205,180"/>
    <line style="fill: none; fill-opacity:0; stroke-width: 2; stroke: #000000" x1="100" y1="180" x2="205" y2="180"/>
    <path style="fill: none; fill-opacity:0; stroke-width: 2; stroke: #000000" d="M 220,285 A 15,15 0 0 0 235,300"/>
    <line style="fill: none; fill-opacity:0; stroke-width: 2; stroke: #000000" x1="220" y1="195" x2="220" y2="285"/>
    <line style="fill: none; fill-opacity:0; stroke-width: 2; stroke: #000000" x1="235" y1="300" x2="483" y2="300"/>
    <polygon style="fill: #000000" points="483,308 499,300 483,292 "/>
    <polygon style="fill: none; fill-opacity:0; stroke-width: 2; stroke: #000000" points="483,308 499,300 483,292 "/>
  </g>
  <g>
    <path style="fill: none; fill-opacity:0; stroke-width: 2; stroke: #000000" d="M 200,195 A 15,15 0 0 0 185,180"/>
    <line style="fill: none; fill-opacity:0; stroke-width: 2; stroke: #000000" x1="100" y1="180" x2="185" y2="180"/>
    <path style="fill: none; fill-opacity:0; stroke-width: 2; stroke: #000000" d="M 200,405 A 15,15 0 0 0 215,420"/>
    <line style="fill: none; fill-opacity:0; stroke-width: 2; stroke: #000000" x1="200" y1="195" x2="200" y2="405"/>
    <line style="fill: none; fill-opacity:0; stroke-width: 2; stroke: #000000" x1="215" y1="420" x2="743" y2="420"/>
    <polygon style="fill: #000000" points="743,428 759,420 743,412 "/>
    <polygon style="fill: none; fill-opacity:0; stroke-width: 2; stroke: #000000" points="743,428 759,420 743,412 "/>
  </g>
  <g>
    <path style="fill: none; fill-opacity:0; stroke-width: 2; stroke: #000000" d="M 180,195 A 15,15 0 0 0 165,180"/>
    <line style="fill: none; fill-opacity:0; stroke-width: 2; stroke: #000000" x1="100" y1="180" x2="165" y2="180"/>
    <path style="fill: none; fill-opacity:0; stroke-width: 2; stroke: #000000" d="M 180,525 A 15,15 0 0 0 195,540"/>
    <line style="fill: none; fill-opacity:0; stroke-width: 2; stroke: #000000" x1="180" y1="195" x2="180" y2="525"/>
    <line style="fill: none; fill-opacity:0; stroke-width: 2; stroke: #000000" x1="195" y1="540" x2="1003" y2="540"/>
    <polygon style="fill: #000000" points="1003,548 1019,540 1003,532 "/>
    <polygon style="fill: none; fill-opacity:0; stroke-width: 2; stroke: #000000" points="1003,548 1019,540 1003,532 "/>
  </g>
  <g>
    <path style="fill: none; fill-opacity:0; stroke-width: 2; stroke: #000000" d="M 160,195 A 15,15 0 0 0 145,180"/>
    <line style="fill: none; fill-opacity:0; stroke-width: 2; stroke: #000000" x1="100" y1="180" x2="145" y2="180"/>
    <path style="fill: none; fill-opacity:0; stroke-width: 2; stroke: #000000" d="M 160,625 A 15,15 0 0 0 175,640"/>
    <line style="fill: none; fill-opacity:0; stroke-width: 2; stroke: #000000" x1="160" y1="195" x2="160" y2="625"/>
    <line style="fill: none; fill-opacity:0; stroke-width: 2; stroke: #000000" x1="175" y1="640" x2="1263" y2="640"/>
    <polygon style="fill: #000000" points="1263,648 1279,640 1263,632 "/>
    <polygon style="fill: none; fill-opacity:0; stroke-width: 2; stroke: #000000" points="1263,648 1279,640 1263,632 "/>
  </g>
  <text font-size="12.7998" style="fill: #000000;text-anchor:start;font-family:sans-serif;font-style:normal;font-weight:normal" x="90" y="159">
    <tspan x="90" y="159">Резюме вызываемой</tspan>
    <tspan x="90" y="175">функции</tspan>
  </text>
  <g>
    <line style="fill: none; fill-opacity:0; stroke-width: 2; stroke: #000000" x1="340" y1="740" x2="340" y2="209.736"/>
    <polygon style="fill: #000000" points="340,202.236 345,212.236 340,209.736 335,212.236 "/>
    <polygon style="fill: none; fill-opacity:0; stroke-width: 2; stroke: #000000" points="340,202.236 345,212.236 340,209.736 335,212.236 "/>
  </g>
  <g>
    <path style="fill: none; fill-opacity:0; stroke-width: 2; stroke: #727272" d="M 355,380 A 15,15 0 0 0 340,395"/>
    <line style="fill: none; fill-opacity:0; stroke-width: 2; stroke: #727272" x1="340" y1="740" x2="340" y2="395"/>
    <path style="fill: none; fill-opacity:0; stroke-width: 2; stroke: #727272" d="M 575,380 A 15,15 0 0 0 590,365"/>
    <line style="fill: none; fill-opacity:0; stroke-width: 2; stroke: #727272" x1="355" y1="380" x2="575" y2="380"/>
    <line style="fill: none; fill-opacity:0; stroke-width: 2; stroke: #727272" x1="590" y1="365" x2="590" y2="337"/>
    <polygon style="fill: #727272" points="598,337 590,321 582,337 "/>
    <polygon style="fill: none; fill-opacity:0; stroke-width: 2; stroke: #727272" points="598,337 590,321 582,337 "/>
  </g>
  <text font-size="12.7998" style="fill: #000000;text-anchor:start;font-family:sans-serif;font-style:normal;font-weight:normal" x="360" y="700">
    <tspan x="360" y="700">Символьный</tspan>
    <tspan x="360" y="716">решатель</tspan>
  </text>
  <g>
    <line style="fill: none; fill-opacity:0; stroke-width: 2; stroke: #000000" x1="860" y1="740" x2="860" y2="449.736"/>
    <polygon style="fill: #000000" points="860,442.236 865,452.236 860,449.736 855,452.236 "/>
    <polygon style="fill: none; fill-opacity:0; stroke-width: 2; stroke: #000000" points="860,442.236 865,452.236 860,449.736 855,452.236 "/>
  </g>
  <text font-size="12.7998" style="fill: #000000;text-anchor:start;font-family:sans-serif;font-style:normal;font-weight:normal" x="740" y="700">
    <tspan x="740" y="700">Модель памяти</tspan>
  </text>
  <g>
    <line style="fill: none; fill-opacity:0; stroke-width: 2; stroke: #000000" x1="1380" y1="740" x2="1380" y2="669.736"/>
    <polygon style="fill: #000000" points="1380,662.236 1385,672.236 1380,669.736 1375,672.236 "/>
    <polygon style="fill: none; fill-opacity:0; stroke-width: 2; stroke: #000000" points="1380,662.236 1385,672.236 1380,669.736 1375,672.236 "/>
  </g>
  <text font-size="12.7998" style="fill: #000000;text-anchor:start;font-family:sans-serif;font-style:normal;font-weight:normal" x="1280" y="700">
    <tspan x="1280" y="700">Проверяющие</tspan>
    <tspan x="1280" y="716">модули</tspan>
  </text>
</svg>
