<?xml version="1.0" encoding="UTF-8" standalone="no"?>
<svg
   xmlns:dc="http://purl.org/dc/elements/1.1/"
   xmlns:cc="http://creativecommons.org/ns#"
   xmlns:rdf="http://www.w3.org/1999/02/22-rdf-syntax-ns#"
   xmlns:svg="http://www.w3.org/2000/svg"
   xmlns="http://www.w3.org/2000/svg"
   xmlns:sodipodi="http://sodipodi.sourceforge.net/DTD/sodipodi-0.dtd"
   xmlns:inkscape="http://www.inkscape.org/namespaces/inkscape"
   width="576px"
   height="432px"
   viewBox="0 0 576 432"
   id="svg2"
   version="1.1"
   inkscape:version="0.48.4 r9939"
   sodipodi:docname="xtu-unified.svg"
   inkscape:export-filename="/home/avs/Russian-Phd-LaTeX-Dissertation-Template/Dissertation/images/xtu-unified.png"
   inkscape:export-xdpi="600"
   inkscape:export-ydpi="600">
  <metadata
     id="metadata244">
    <rdf:RDF>
      <cc:Work
         rdf:about="">
        <dc:format>image/svg+xml</dc:format>
        <dc:type
           rdf:resource="http://purl.org/dc/dcmitype/StillImage" />
        <dc:title>glps_renderer figure</dc:title>
      </cc:Work>
    </rdf:RDF>
  </metadata>
  <sodipodi:namedview
     pagecolor="#ffffff"
     bordercolor="#666666"
     borderopacity="1"
     objecttolerance="10"
     gridtolerance="10"
     guidetolerance="10"
     inkscape:pageopacity="0"
     inkscape:pageshadow="2"
     inkscape:window-width="1814"
     inkscape:window-height="1060"
     id="namedview242"
     showgrid="false"
     inkscape:zoom="1.5451593"
     inkscape:cx="473.5746"
     inkscape:cy="307.16874"
     inkscape:window-x="104"
     inkscape:window-y="-3"
     inkscape:window-maximized="1"
     inkscape:current-layer="svg2" />
  <title
     id="title4">glps_renderer figure</title>
  <desc
     id="desc6">
Creator: GL2PS 1.3.8, (C) 1999-2012 C. Geuzaine
For: Octave
CreationDate: Tue Oct 27 18:53:24 2015
</desc>
  <defs
     id="defs8" />
  <polygon
     style="fill:#ffffff"
     id="polygon12"
     points="521.28,384.48 521.28,384.48 521.28,32.3999 " />
  <polygon
     style="fill:#ffffff"
     id="polygon14"
     points="521.28,384.48 521.28,32.3999 521.28,32.3999 " />
  <polygon
     style="fill:#ffffff"
     id="polygon16"
     points="74.88,32.3999 74.88,32.3999 521.28,32.3999 " />
  <polygon
     style="fill:#ffffff"
     id="polygon18"
     points="74.88,32.3999 521.28,32.3999 521.28,32.3999 " />
  <polygon
     style="fill:#ffffff"
     id="polygon20"
     points="74.88,32.3999 74.88,384.48 521.28,384.48 " />
  <polygon
     style="fill:#ffffff"
     id="polygon22"
     points="74.88,32.3999 521.28,384.48 521.28,32.3999 " />
  <polyline
     style="fill:none;stroke:#000000;stroke-width:0.5;stroke-dasharray:16, 0"
     id="polyline24"
     points="74.88,384.48 521.28,384.48" />
  <polyline
     style="fill:none;stroke:#000000;stroke-width:0.5;stroke-dasharray:16, 0"
     id="polyline26"
     points="74.88,32.3999 521.28,32.3999" />
  <polyline
     style="fill:none;stroke:#000000;stroke-width:0.5;stroke-dasharray:16, 0"
     id="polyline28"
     points="74.88,32.3999 521.28,32.3999" />
  <polyline
     style="fill:none;stroke:#000000;stroke-width:0.5;stroke-dasharray:16, 0"
     id="polyline30"
     points="74.88,384.48 521.28,384.48" />
  <polyline
     style="fill:none;stroke:#000000;stroke-width:0.5;stroke-dasharray:16, 0"
     id="polyline32"
     points="74.88,384.48 74.88,32.3999" />
  <polyline
     style="fill:none;stroke:#000000;stroke-width:0.5;stroke-dasharray:16, 0"
     id="polyline34"
     points="521.28,384.48 521.28,32.3999" />
  <polyline
     style="fill:none;stroke:#000000;stroke-width:0.5;stroke-dasharray:16, 0"
     id="polyline36"
     points="521.28,384.48 521.28,32.3999" />
  <polyline
     style="fill:none;stroke:#000000;stroke-width:0.5;stroke-dasharray:16, 0"
     id="polyline38"
     points="74.88,384.48 74.88,32.3999 74.88,32.3999" />
  <polyline
     style="fill:none;stroke:#000000;stroke-width:0.5;stroke-dasharray:16, 0"
     id="polyline40"
     points="521.28,32.3999 521.28,32.3999" />
  <polyline
     style="fill:none;stroke:#000000;stroke-width:0.5;stroke-dasharray:16, 0"
     id="polyline42"
     points="521.28,384.48 521.28,384.48" />
  <polyline
     style="fill:none;stroke:#000000;stroke-width:0.5;stroke-dasharray:16, 0"
     id="polyline44"
     points="74.88,384.48 74.88,384.48" />
  <polyline
     style="fill:none;stroke:#000000;stroke-width:0.5;stroke-dasharray:0, 3, 1, 3, 1, 3, 1, 3, 1, 0"
     id="polyline46"
     points="74.88,384.48 74.88,32.3999" />
  <polyline
     style="fill:none;stroke:#000000;stroke-width:0.5;stroke-dasharray:0, 3, 1, 3, 1, 3, 1, 3, 1, 0"
     id="polyline48"
     points="149.28,384.48 149.28,32.3999" />
  <polyline
     style="fill:none;stroke:#000000;stroke-width:0.5;stroke-dasharray:0, 3, 1, 3, 1, 3, 1, 3, 1, 0"
     id="polyline50"
     points="223.68,384.48 223.68,32.3999" />
  <polyline
     style="fill:none;stroke:#000000;stroke-width:0.5;stroke-dasharray:0, 3, 1, 3, 1, 3, 1, 3, 1, 0"
     id="polyline52"
     points="298.08,384.48 298.08,32.3999" />
  <polyline
     style="fill:none;stroke:#000000;stroke-width:0.5;stroke-dasharray:0, 3, 1, 3, 1, 3, 1, 3, 1, 0"
     id="polyline54"
     points="372.48,384.48 372.48,32.3999" />
  <polyline
     style="fill:none;stroke:#000000;stroke-width:0.5;stroke-dasharray:0, 3, 1, 3, 1, 3, 1, 3, 1, 0"
     id="polyline56"
     points="446.88,384.48 446.88,32.3999" />
  <polyline
     style="fill:none;stroke:#000000;stroke-width:0.5;stroke-dasharray:0, 3, 1, 3, 1, 3, 1, 3, 1, 0"
     id="polyline58"
     points="521.28,384.48 521.28,32.3999" />
  <polyline
     style="fill:none;stroke:#000000;stroke-width:0.5;stroke-dasharray:16, 0"
     id="polyline60"
     points="74.88,384.48 74.88,380.015" />
  <polyline
     style="fill:none;stroke:#000000;stroke-width:0.5;stroke-dasharray:16, 0"
     id="polyline62"
     points="74.88,32.3999 74.88,36.8651" />
  <polyline
     style="fill:none;stroke:#000000;stroke-width:0.5;stroke-dasharray:16, 0"
     id="polyline64"
     points="149.28,384.48 149.28,380.015" />
  <polyline
     style="fill:none;stroke:#000000;stroke-width:0.5;stroke-dasharray:16, 0"
     id="polyline66"
     points="149.28,32.3999 149.28,36.8651" />
  <polyline
     style="fill:none;stroke:#000000;stroke-width:0.5;stroke-dasharray:16, 0"
     id="polyline68"
     points="223.68,384.48 223.68,380.015" />
  <polyline
     style="fill:none;stroke:#000000;stroke-width:0.5;stroke-dasharray:16, 0"
     id="polyline70"
     points="223.68,32.3999 223.68,36.8651" />
  <polyline
     style="fill:none;stroke:#000000;stroke-width:0.5;stroke-dasharray:16, 0"
     id="polyline72"
     points="298.08,384.48 298.08,380.015" />
  <polyline
     style="fill:none;stroke:#000000;stroke-width:0.5;stroke-dasharray:16, 0"
     id="polyline74"
     points="298.08,32.3999 298.08,36.8651" />
  <polyline
     style="fill:none;stroke:#000000;stroke-width:0.5;stroke-dasharray:16, 0"
     id="polyline76"
     points="372.48,384.48 372.48,380.015" />
  <polyline
     style="fill:none;stroke:#000000;stroke-width:0.5;stroke-dasharray:16, 0"
     id="polyline78"
     points="372.48,32.3999 372.48,36.8651" />
  <polyline
     style="fill:none;stroke:#000000;stroke-width:0.5;stroke-dasharray:16, 0"
     id="polyline80"
     points="446.88,384.48 446.88,380.015" />
  <polyline
     style="fill:none;stroke:#000000;stroke-width:0.5;stroke-dasharray:16, 0"
     id="polyline82"
     points="446.88,32.3999 446.88,36.8651" />
  <polyline
     style="fill:none;stroke:#000000;stroke-width:0.5;stroke-dasharray:16, 0"
     id="polyline84"
     points="521.28,384.48 521.28,380.015" />
  <polyline
     style="fill:none;stroke:#000000;stroke-width:0.5;stroke-dasharray:16, 0"
     id="polyline86"
     points="521.28,32.3999 521.28,36.8651" />
  <text
     style="font-size:14px;text-anchor:middle;baseline-shift:-14px;fill:#000000;font-family:Helvetica"
     id="text88"
     baseline-shift="-14"
     font-size="14"
     y="389.48099"
     x="74.879997">0</text>
  <text
     style="font-size:14px;text-anchor:middle;baseline-shift:-14px;fill:#000000;font-family:Helvetica"
     id="text90"
     baseline-shift="-14"
     font-size="14"
     y="389.48099"
     x="149.28">50</text>
  <text
     style="font-size:14px;text-anchor:middle;baseline-shift:-14px;fill:#000000;font-family:Helvetica"
     id="text92"
     baseline-shift="-14"
     font-size="14"
     y="389.48099"
     x="223.67999">100</text>
  <text
     style="font-size:14px;text-anchor:middle;baseline-shift:-14px;fill:#000000;font-family:Helvetica"
     id="text94"
     baseline-shift="-14"
     font-size="14"
     y="389.48099"
     x="298.07999">150</text>
  <text
     style="font-size:14px;text-anchor:middle;baseline-shift:-14px;fill:#000000;font-family:Helvetica"
     id="text96"
     baseline-shift="-14"
     font-size="14"
     y="389.48099"
     x="372.48001">200</text>
  <text
     style="font-size:14px;text-anchor:middle;baseline-shift:-14px;fill:#000000;font-family:Helvetica"
     id="text98"
     baseline-shift="-14"
     font-size="14"
     y="389.48099"
     x="446.88">250</text>
  <text
     style="font-size:14px;text-anchor:middle;baseline-shift:-14px;fill:#000000;font-family:Helvetica"
     id="text100"
     baseline-shift="-14"
     font-size="14"
     y="389.48099"
     x="521.28003">300</text>
  <polyline
     style="fill:none;stroke:#000000;stroke-width:0.5;stroke-dasharray:0, 3, 1, 3, 1, 3, 1, 3, 1, 0"
     id="polyline102"
     points="74.88,384.48 521.28,384.48" />
  <polyline
     style="fill:none;stroke:#000000;stroke-width:0.5;stroke-dasharray:0, 3, 1, 3, 1, 3, 1, 3, 1, 0"
     id="polyline104"
     points="74.88,314.064 521.28,314.064" />
  <polyline
     style="fill:none;stroke:#000000;stroke-width:0.5;stroke-dasharray:0, 3, 1, 3, 1, 3, 1, 3, 1, 0"
     id="polyline106"
     points="74.88,243.648 521.28,243.648" />
  <polyline
     style="fill:none;stroke:#000000;stroke-width:0.5;stroke-dasharray:0, 3, 1, 3, 1, 3, 1, 3, 1, 0"
     id="polyline108"
     points="74.88,173.232 521.28,173.232" />
  <polyline
     style="fill:none;stroke:#000000;stroke-width:0.5;stroke-dasharray:0, 3, 1, 3, 1, 3, 1, 3, 1, 0"
     id="polyline110"
     points="74.88,102.816 521.28,102.816" />
  <polyline
     style="fill:none;stroke:#000000;stroke-width:0.5;stroke-dasharray:0, 3, 1, 3, 1, 3, 1, 3, 1, 0"
     id="polyline112"
     points="74.88,32.3999 521.28,32.3999" />
  <polyline
     style="fill:none;stroke:#000000;stroke-width:0.5;stroke-dasharray:16, 0"
     id="polyline114"
     points="74.88,384.48 79.348,384.48" />
  <polyline
     style="fill:none;stroke:#000000;stroke-width:0.5;stroke-dasharray:16, 0"
     id="polyline116"
     points="521.28,384.48 516.812,384.48" />
  <polyline
     style="fill:none;stroke:#000000;stroke-width:0.5;stroke-dasharray:16, 0"
     id="polyline118"
     points="74.88,314.064 79.348,314.064" />
  <polyline
     style="fill:none;stroke:#000000;stroke-width:0.5;stroke-dasharray:16, 0"
     id="polyline120"
     points="521.28,314.064 516.812,314.064" />
  <polyline
     style="fill:none;stroke:#000000;stroke-width:0.5;stroke-dasharray:16, 0"
     id="polyline122"
     points="74.88,243.648 79.348,243.648" />
  <polyline
     style="fill:none;stroke:#000000;stroke-width:0.5;stroke-dasharray:16, 0"
     id="polyline124"
     points="521.28,243.648 516.812,243.648" />
  <polyline
     style="fill:none;stroke:#000000;stroke-width:0.5;stroke-dasharray:16, 0"
     id="polyline126"
     points="74.88,173.232 79.348,173.232" />
  <polyline
     style="fill:none;stroke:#000000;stroke-width:0.5;stroke-dasharray:16, 0"
     id="polyline128"
     points="521.28,173.232 516.812,173.232" />
  <polyline
     style="fill:none;stroke:#000000;stroke-width:0.5;stroke-dasharray:16, 0"
     id="polyline130"
     points="74.88,102.816 79.348,102.816" />
  <polyline
     style="fill:none;stroke:#000000;stroke-width:0.5;stroke-dasharray:16, 0"
     id="polyline132"
     points="521.28,102.816 516.812,102.816" />
  <polyline
     style="fill:none;stroke:#000000;stroke-width:0.5;stroke-dasharray:16, 0"
     id="polyline134"
     points="74.88,32.3999 79.348,32.3999" />
  <polyline
     style="fill:none;stroke:#000000;stroke-width:0.5;stroke-dasharray:16, 0"
     id="polyline136"
     points="521.28,32.3999 516.812,32.3999" />
  <text
     style="font-size:14px;text-anchor:end;baseline-shift:-7px;fill:#000000;font-family:Helvetica"
     id="text138"
     baseline-shift="-7"
     font-size="14"
     y="384.48001"
     x="69.875504">1600</text>
  <text
     style="font-size:14px;text-anchor:end;baseline-shift:-7px;fill:#000000;font-family:Helvetica"
     id="text140"
     baseline-shift="-7"
     font-size="14"
     y="314.064"
     x="69.875504">1800</text>
  <text
     style="font-size:14px;text-anchor:end;baseline-shift:-7px;fill:#000000;font-family:Helvetica"
     id="text142"
     baseline-shift="-7"
     font-size="14"
     y="243.64799"
     x="69.875504">2000</text>
  <text
     style="font-size:14px;text-anchor:end;baseline-shift:-7px;fill:#000000;font-family:Helvetica"
     id="text144"
     baseline-shift="-7"
     font-size="14"
     y="173.23199"
     x="69.875504">2200</text>
  <text
     style="font-size:14px;text-anchor:end;baseline-shift:-7px;fill:#000000;font-family:Helvetica"
     id="text146"
     baseline-shift="-7"
     font-size="14"
     y="102.816"
     x="69.875504">2400</text>
  <text
     style="font-size:14px;text-anchor:end;baseline-shift:-7px;fill:#000000;font-family:Helvetica"
     id="text148"
     baseline-shift="-7"
     font-size="14"
     y="32.399899"
     x="69.875504">2600</text>
  <text
     style="font-size:14px;text-anchor:middle;baseline-shift:-14px;fill:#000000;font-family:Helvetica"
     id="text150"
     baseline-shift="-14"
     font-size="14"
     y="406.48099"
     x="298.07999">Analysis time (min)</text>
  <text
     style="font-size:14px;text-anchor:middle;baseline-shift:0px;fill:#000000;font-family:Helvetica"
     id="text152"
     baseline-shift="0"
     transform="matrix(0,-1,1,0,0,0)"
     font-size="14"
     y="25.875504"
     x="-208.44">Defects found</text>
  <polyline
     style="fill:none;stroke:#0000ff;stroke-width:3;stroke-dasharray:12, 4"
     id="polyline154"
     points="113.568,324.978 123.984,276.391 144.816,226.748 183.504,193.301 263.856,175.344 426.048,144.713" />
  <polyline
     style="fill:none;stroke:#0000ff;stroke-width:3"
     id="polyline156"
     points="110.568,321.978 116.568,327.979" />
  <polyline
     style="fill:none;stroke:#0000ff;stroke-width:3"
     id="polyline158"
     points="110.568,327.979 116.568,321.978" />
  <polyline
     style="fill:none;stroke:#0000ff;stroke-width:3"
     id="polyline160"
     points="120.984,273.391 126.984,279.391" />
  <polyline
     style="fill:none;stroke:#0000ff;stroke-width:3"
     id="polyline162"
     points="120.984,279.391 126.984,273.391" />
  <polyline
     style="fill:none;stroke:#0000ff;stroke-width:3"
     id="polyline164"
     points="141.816,223.748 147.816,229.748" />
  <polyline
     style="fill:none;stroke:#0000ff;stroke-width:3"
     id="polyline166"
     points="141.816,229.748 147.816,223.748" />
  <polyline
     style="fill:none;stroke:#0000ff;stroke-width:3"
     id="polyline168"
     points="180.504,190.301 186.504,196.301" />
  <polyline
     style="fill:none;stroke:#0000ff;stroke-width:3"
     id="polyline170"
     points="180.504,196.301 186.504,190.301" />
  <polyline
     style="fill:none;stroke:#0000ff;stroke-width:3"
     id="polyline172"
     points="260.856,172.344 266.856,178.344" />
  <polyline
     style="fill:none;stroke:#0000ff;stroke-width:3"
     id="polyline174"
     points="260.856,178.344 266.856,172.344" />
  <polyline
     style="fill:none;stroke:#0000ff;stroke-width:3"
     id="polyline176"
     points="423.048,141.714 429.048,147.714" />
  <polyline
     style="fill:none;stroke:#0000ff;stroke-width:3"
     id="polyline178"
     points="423.048,147.714 429.048,141.714" />
  <polyline
     style="fill:none;stroke:#ff0000;stroke-width:3"
     id="polyline180"
     points="116.544,343.991 135.888,278.856 153.744,220.411 198.384,146.826 280.224,128.87 493.008,92.2536" />
  <polyline
     style="fill:none;stroke:#ff0000;stroke-width:3"
     id="polyline182"
     points="119.544,343.991 118.971,345.754 117.471,346.844 115.617,346.844 114.117,345.754 113.544,343.991 114.117,342.227 115.617,341.138 117.471,341.138 118.971,342.227 119.544,343.991" />
  <polyline
     style="fill:none;stroke:#ff0000;stroke-width:3"
     id="polyline184"
     points="138.888,278.856 138.315,280.619 136.815,281.709 134.961,281.709 133.461,280.619 132.888,278.856 133.461,277.093 134.961,276.003 136.815,276.003 138.315,277.093 138.888,278.856" />
  <polyline
     style="fill:none;stroke:#ff0000;stroke-width:3"
     id="polyline186"
     points="156.744,220.411 156.171,222.174 154.671,223.264 152.817,223.264 151.317,222.174 150.744,220.411 151.317,218.647 152.817,217.558 154.671,217.558 156.171,218.647 156.744,220.411" />
  <polyline
     style="fill:none;stroke:#ff0000;stroke-width:3"
     id="polyline188"
     points="201.384,146.826 200.811,148.589 199.311,149.679 197.457,149.679 195.957,148.589 195.384,146.826 195.957,145.063 197.457,143.973 199.311,143.973 200.811,145.063 201.384,146.826" />
  <polyline
     style="fill:none;stroke:#ff0000;stroke-width:3"
     id="polyline190"
     points="283.224,128.87 282.651,130.633 281.151,131.723 279.297,131.723 277.797,130.633 277.224,128.87 277.797,127.107 279.297,126.017 281.151,126.017 282.651,127.107 283.224,128.87" />
  <polyline
     style="fill:none;stroke:#ff0000;stroke-width:3"
     id="polyline192"
     points="496.008,92.2536 495.435,94.017 493.935,95.1068 492.081,95.1068 490.581,94.017 490.008,92.2536 490.581,90.4902 492.081,89.4005 493.935,89.4005 495.435,90.4902 496.008,92.2536" />
  <polygon
     style="fill:#ffffff"
     id="polygon194"
     points="370.635,381.729 370.635,341.257 370.635,381.729 "
     transform="translate(-48,0)" />
  <polygon
     style="fill:#ffffff"
     id="polygon196"
     points="370.635,341.257 370.635,341.257 370.635,381.729 "
     transform="translate(-48,0)" />
  <polygon
     style="fill:#ffffff"
     id="polygon198"
     points="225.525,341.257 370.635,341.257 225.525,341.257 "
     transform="translate(-48,0)" />
  <polygon
     style="fill:#ffffff"
     id="polygon200"
     points="370.635,341.257 370.635,341.257 225.525,341.257 "
     transform="translate(-48,0)" />
  <polygon
     style="fill:#ffffff"
     id="polygon202"
     points="370.635,381.729 225.525,341.257 225.525,381.729 "
     transform="matrix(1.714706,0,0,1,-209.18408,0)" />
  <polygon
     style="fill:#ffffff"
     id="polygon204"
     points="225.525,341.257 370.635,381.729 370.635,341.257 "
     transform="matrix(1.73108,0,0,1,-212.87683,0)" />
  <polyline
     style="fill:none;stroke:#000000;stroke-width:0.5;stroke-dasharray:16, 0"
     id="polyline206"
     points="225.525,381.729 370.635,381.729"
     transform="translate(-48,0)" />
  <polyline
     style="fill:none;stroke:#000000;stroke-width:0.5;stroke-dasharray:16, 0"
     id="polyline208"
     points="225.525,341.257 370.635,341.257"
     transform="translate(-48,0)" />
  <polyline
     style="fill:none;stroke:#000000;stroke-width:0.5;stroke-dasharray:16, 0"
     id="polyline210"
     points="225.525,341.257 370.635,341.257"
     transform="matrix(1.7144742,0,0,1.7144742,-208.95317,-243.81931)" />
  <polyline
     style="fill:none;stroke:#000000;stroke-width:0.5;stroke-dasharray:16, 0"
     id="polyline212"
     points="225.525,381.729 370.635,381.729"
     transform="matrix(1.7166965,0,0,1.7166965,-209.4538,-273.58383)" />
  <polyline
     style="fill:none;stroke:#000000;stroke-width:0.5;stroke-dasharray:16, 0"
     id="polyline214"
     points="225.525,381.729 225.525,341.257"
     transform="translate(-48,0)" />
  <polyline
     style="fill:none;stroke:#000000;stroke-width:0.5;stroke-dasharray:16, 0"
     id="polyline216"
     points="370.635,381.729 370.635,341.257"
     transform="translate(56,0)" />
  <polyline
     style="fill:none;stroke:#000000;stroke-width:0.5;stroke-dasharray:16, 0"
     id="polyline218"
     points="370.635,381.729 370.635,341.257"
     transform="translate(56,0)" />
  <polyline
     style="fill:none;stroke:#000000;stroke-width:0.5;stroke-dasharray:16, 0"
     id="polyline220"
     points="225.525,381.729 225.525,341.257 225.525,341.257"
     transform="translate(-48,0)" />
  <polyline
     style="fill:none;stroke:#000000;stroke-width:0.5;stroke-dasharray:16, 0"
     id="polyline222"
     points="370.635,341.257 370.635,341.257"
     transform="translate(-48,0)" />
  <polyline
     style="fill:none;stroke:#000000;stroke-width:0.5;stroke-dasharray:16, 0"
     id="polyline224"
     points="370.635,381.729 370.635,381.729"
     transform="translate(-48,0)" />
  <polyline
     style="fill:none;stroke:#000000;stroke-width:0.5;stroke-dasharray:16, 0"
     id="polyline226"
     points="225.525,381.729 225.525,381.729"
     transform="translate(-48,0)" />
  <text
     style="font-size:14px;text-anchor:start;baseline-shift:-7px;fill:#000000;font-family:Helvetica"
     id="text228"
     baseline-shift="-7"
     font-size="14"
     y="351.375"
     x="203.655">Default</text>
  <text
     style="font-size:14px;text-anchor:start;baseline-shift:-7px;fill:#000000;font-family:Helvetica"
     id="text230"
     baseline-shift="-7"
     font-size="14"
     y="371.61099"
     x="203.655">Summary-based analysis (by SRR)</text>
  <polyline
     style="fill:none;stroke:#0000ff;stroke-width:0.5;stroke-dasharray:12, 4"
     id="polyline232"
     points="228.276,351.375 248.905,351.375"
     transform="translate(-48,0)" />
  <polyline
     style="fill:none;stroke:#0000ff;stroke-width:0.5"
     id="polyline234"
     points="235.59,348.375 241.59,354.375"
     transform="translate(-48,0)" />
  <polyline
     style="fill:none;stroke:#0000ff;stroke-width:0.5"
     id="polyline236"
     points="235.59,354.375 241.59,348.375"
     transform="translate(-48,0)" />
  <polyline
     style="fill:none;stroke:#ff0000;stroke-width:0.5"
     id="polyline238"
     points="228.276,371.611 248.905,371.611"
     transform="translate(-48,0)" />
  <polyline
     style="fill:none;stroke:#ff0000;stroke-width:0.5"
     id="polyline240"
     points="241.59,371.611 241.018,373.375 239.518,374.465 237.663,374.465 236.163,373.375 235.59,371.611 236.163,369.848 237.663,368.758 239.518,368.758 241.018,369.848 241.59,371.611"
     transform="translate(-48,0)" />
  <text
     xml:space="preserve"
     style="font-size:40px;font-style:normal;font-weight:normal;line-height:125%;letter-spacing:0px;word-spacing:0px;fill:#000000;fill-opacity:1;stroke:none;font-family:Sans"
     x="99.322647"
     y="9.9954395"
     id="text3108"
     sodipodi:linespacing="125%"><tspan
       sodipodi:role="line"
       id="tspan3110"
       x="99.322647"
       y="9.9954395"
       style="font-size:28px;font-style:normal;font-variant:normal;font-weight:normal;font-stretch:normal;text-align:start;line-height:125%;writing-mode:lr-tb;text-anchor:start;font-family:Sans;-inkscape-font-specification:Sans">Analysis time/warning (XTU)</tspan></text>
</svg>
