<?xml version="1.0" encoding="UTF-8" standalone="no"?>
<svg xmlns="http://www.w3.org/2000/svg"
     xmlns:xlink="http://www.w3.org/1999/xlink"
     width="576px" height="432px" viewBox="0 0 576 432">
<title>glps_renderer figure</title>
<desc>
Creator: GL2PS 1.3.8, (C) 1999-2012 C. Geuzaine
For: Octave
CreationDate: Mon Nov  9 13:01:09 2015
</desc>
<defs>
</defs>
<g shape-rendering="crispEdges">
<polygon fill="#ffffff" points="521.28,384.48 521.28,32.4 521.28,384.48"/>
<polygon fill="#ffffff" points="521.28,32.4 521.28,32.4 521.28,384.48"/>
<polygon fill="#ffffff" points="74.88,32.4 521.28,32.4 74.88,32.4"/>
<polygon fill="#ffffff" points="521.28,32.4 521.28,32.4 74.88,32.4"/>
<polygon fill="#ffffff" points="74.88,384.48 521.28,384.48 74.88,32.4"/>
<polygon fill="#ffffff" points="521.28,384.48 521.28,32.4 74.88,32.4"/>
<polyline fill="none" stroke="#000000" stroke-width="0.5" stroke-dasharray="16,0" points="74.88,384.48 521.28,384.48"/>
<polyline fill="none" stroke="#000000" stroke-width="0.5" stroke-dasharray="16,0" points="74.88,32.4 521.28,32.4"/>
<polyline fill="none" stroke="#000000" stroke-width="0.5" stroke-dasharray="16,0" points="74.88,32.4 521.28,32.4"/>
<polyline fill="none" stroke="#000000" stroke-width="0.5" stroke-dasharray="16,0" points="74.88,384.48 521.28,384.48"/>
<polyline fill="none" stroke="#000000" stroke-width="0.5" stroke-dasharray="16,0" points="74.88,384.48 74.88,32.4"/>
<polyline fill="none" stroke="#000000" stroke-width="0.5" stroke-dasharray="16,0" points="521.28,384.48 521.28,32.4"/>
<polyline fill="none" stroke="#000000" stroke-width="0.5" stroke-dasharray="16,0" points="521.28,384.48 521.28,32.4"/>
<polyline fill="none" stroke="#000000" stroke-width="0.5" stroke-dasharray="16,0" points="74.88,384.48 74.88,32.4 74.88,32.4"/>
<polyline fill="none" stroke="#000000" stroke-width="0.5" stroke-dasharray="16,0" points="521.28,32.4 521.28,32.4"/>
<polyline fill="none" stroke="#000000" stroke-width="0.5" stroke-dasharray="16,0" points="521.28,384.48 521.28,384.48"/>
<polyline fill="none" stroke="#000000" stroke-width="0.5" stroke-dasharray="16,0" points="74.88,384.48 74.88,384.48"/>
<polyline fill="none" stroke="#000000" stroke-width="0.5" stroke-dasharray="0,3,1,3,1,3,1,3,1,0" points="74.88,384.48 74.88,32.4"/>
<polyline fill="none" stroke="#000000" stroke-width="0.5" stroke-dasharray="0,3,1,3,1,3,1,3,1,0" points="149.28,384.48 149.28,32.4"/>
<polyline fill="none" stroke="#000000" stroke-width="0.5" stroke-dasharray="0,3,1,3,1,3,1,3,1,0" points="223.68,384.48 223.68,32.4"/>
<polyline fill="none" stroke="#000000" stroke-width="0.5" stroke-dasharray="0,3,1,3,1,3,1,3,1,0" points="298.08,384.48 298.08,32.4"/>
<polyline fill="none" stroke="#000000" stroke-width="0.5" stroke-dasharray="0,3,1,3,1,3,1,3,1,0" points="372.48,384.48 372.48,32.4"/>
<polyline fill="none" stroke="#000000" stroke-width="0.5" stroke-dasharray="0,3,1,3,1,3,1,3,1,0" points="446.88,384.48 446.88,32.4"/>
<polyline fill="none" stroke="#000000" stroke-width="0.5" stroke-dasharray="0,3,1,3,1,3,1,3,1,0" points="521.28,384.48 521.28,32.4"/>
<polyline fill="none" stroke="#000000" stroke-width="0.5" stroke-dasharray="16,0" points="74.88,384.48 74.88,380.015"/>
<polyline fill="none" stroke="#000000" stroke-width="0.5" stroke-dasharray="16,0" points="74.88,32.4 74.88,36.865"/>
<polyline fill="none" stroke="#000000" stroke-width="0.5" stroke-dasharray="16,0" points="149.28,384.48 149.28,380.015"/>
<polyline fill="none" stroke="#000000" stroke-width="0.5" stroke-dasharray="16,0" points="149.28,32.4 149.28,36.865"/>
<polyline fill="none" stroke="#000000" stroke-width="0.5" stroke-dasharray="16,0" points="223.68,384.48 223.68,380.015"/>
<polyline fill="none" stroke="#000000" stroke-width="0.5" stroke-dasharray="16,0" points="223.68,32.4 223.68,36.865"/>
<polyline fill="none" stroke="#000000" stroke-width="0.5" stroke-dasharray="16,0" points="298.08,384.48 298.08,380.015"/>
<polyline fill="none" stroke="#000000" stroke-width="0.5" stroke-dasharray="16,0" points="298.08,32.4 298.08,36.865"/>
<polyline fill="none" stroke="#000000" stroke-width="0.5" stroke-dasharray="16,0" points="372.48,384.48 372.48,380.015"/>
<polyline fill="none" stroke="#000000" stroke-width="0.5" stroke-dasharray="16,0" points="372.48,32.4 372.48,36.865"/>
<polyline fill="none" stroke="#000000" stroke-width="0.5" stroke-dasharray="16,0" points="446.88,384.48 446.88,380.015"/>
<polyline fill="none" stroke="#000000" stroke-width="0.5" stroke-dasharray="16,0" points="446.88,32.4 446.88,36.865"/>
<polyline fill="none" stroke="#000000" stroke-width="0.5" stroke-dasharray="16,0" points="521.28,384.48 521.28,380.015"/>
<polyline fill="none" stroke="#000000" stroke-width="0.5" stroke-dasharray="16,0" points="521.28,32.4 521.28,36.865"/>
<text fill="#000000" x="74.88" y="389.481" font-size="14" text-anchor="middle" baseline-shift="-14" font-family="Helvetica">0</text>
<text fill="#000000" x="149.28" y="389.481" font-size="14" text-anchor="middle" baseline-shift="-14" font-family="Helvetica">50</text>
<text fill="#000000" x="223.68" y="389.481" font-size="14" text-anchor="middle" baseline-shift="-14" font-family="Helvetica">100</text>
<text fill="#000000" x="298.08" y="389.481" font-size="14" text-anchor="middle" baseline-shift="-14" font-family="Helvetica">150</text>
<text fill="#000000" x="372.48" y="389.481" font-size="14" text-anchor="middle" baseline-shift="-14" font-family="Helvetica">200</text>
<text fill="#000000" x="446.88" y="389.481" font-size="14" text-anchor="middle" baseline-shift="-14" font-family="Helvetica">250</text>
<text fill="#000000" x="521.28" y="389.481" font-size="14" text-anchor="middle" baseline-shift="-14" font-family="Helvetica">300</text>
<polyline fill="none" stroke="#000000" stroke-width="0.5" stroke-dasharray="0,3,1,3,1,3,1,3,1,0" points="74.88,384.48 521.28,384.48"/>
<polyline fill="none" stroke="#000000" stroke-width="0.5" stroke-dasharray="0,3,1,3,1,3,1,3,1,0" points="74.88,314.064 521.28,314.064"/>
<polyline fill="none" stroke="#000000" stroke-width="0.5" stroke-dasharray="0,3,1,3,1,3,1,3,1,0" points="74.88,243.648 521.28,243.648"/>
<polyline fill="none" stroke="#000000" stroke-width="0.5" stroke-dasharray="0,3,1,3,1,3,1,3,1,0" points="74.88,173.232 521.28,173.232"/>
<polyline fill="none" stroke="#000000" stroke-width="0.5" stroke-dasharray="0,3,1,3,1,3,1,3,1,0" points="74.88,102.816 521.28,102.816"/>
<polyline fill="none" stroke="#000000" stroke-width="0.5" stroke-dasharray="0,3,1,3,1,3,1,3,1,0" points="74.88,32.4 521.28,32.4"/>
<polyline fill="none" stroke="#000000" stroke-width="0.5" stroke-dasharray="16,0" points="74.88,384.48 79.348,384.48"/>
<polyline fill="none" stroke="#000000" stroke-width="0.5" stroke-dasharray="16,0" points="521.28,384.48 516.812,384.48"/>
<polyline fill="none" stroke="#000000" stroke-width="0.5" stroke-dasharray="16,0" points="74.88,314.064 79.348,314.064"/>
<polyline fill="none" stroke="#000000" stroke-width="0.5" stroke-dasharray="16,0" points="521.28,314.064 516.812,314.064"/>
<polyline fill="none" stroke="#000000" stroke-width="0.5" stroke-dasharray="16,0" points="74.88,243.648 79.348,243.648"/>
<polyline fill="none" stroke="#000000" stroke-width="0.5" stroke-dasharray="16,0" points="521.28,243.648 516.812,243.648"/>
<polyline fill="none" stroke="#000000" stroke-width="0.5" stroke-dasharray="16,0" points="74.88,173.232 79.348,173.232"/>
<polyline fill="none" stroke="#000000" stroke-width="0.5" stroke-dasharray="16,0" points="521.28,173.232 516.812,173.232"/>
<polyline fill="none" stroke="#000000" stroke-width="0.5" stroke-dasharray="16,0" points="74.88,102.816 79.348,102.816"/>
<polyline fill="none" stroke="#000000" stroke-width="0.5" stroke-dasharray="16,0" points="521.28,102.816 516.812,102.816"/>
<polyline fill="none" stroke="#000000" stroke-width="0.5" stroke-dasharray="16,0" points="74.88,32.4 79.348,32.4"/>
<polyline fill="none" stroke="#000000" stroke-width="0.5" stroke-dasharray="16,0" points="521.28,32.4 516.812,32.4"/>
<text fill="#000000" x="69.8755" y="384.48" font-size="14" text-anchor="end" baseline-shift="-7" font-family="Helvetica">0</text>
<text fill="#000000" x="69.8755" y="314.064" font-size="14" text-anchor="end" baseline-shift="-7" font-family="Helvetica">1e+06</text>
<text fill="#000000" x="69.8755" y="243.648" font-size="14" text-anchor="end" baseline-shift="-7" font-family="Helvetica">2e+06</text>
<text fill="#000000" x="69.8755" y="173.232" font-size="14" text-anchor="end" baseline-shift="-7" font-family="Helvetica">3e+06</text>
<text fill="#000000" x="69.8755" y="102.816" font-size="14" text-anchor="end" baseline-shift="-7" font-family="Helvetica">4e+06</text>
<text fill="#000000" x="69.8755" y="32.4" font-size="14" text-anchor="end" baseline-shift="-7" font-family="Helvetica">5e+06</text>
<text fill="#000000" x="298.08" y="406.481" font-size="14" text-anchor="middle" baseline-shift="-14" font-family="Helvetica">Время анализа (мин)</text>
<text fill="#000000" x="17.8755" y="208.44" font-size="14" transform="rotate(-90, 17.8755, 208.44)" text-anchor="middle" baseline-shift="0" font-family="Helvetica">Количество срабатываний</text>
<polyline fill="none" stroke="#0000ff" stroke-width="3" stroke-dasharray="12,4" points="103.152,378.916 113.568,373.267 134.4,362.722 173.088,341.741 253.44,302.216 415.632,230.612"/>
<polyline fill="none" stroke="#0000ff" stroke-width="3" points="100.152,375.916 106.152,381.916"/>
<polyline fill="none" stroke="#0000ff" stroke-width="3" points="100.152,381.916 106.152,375.916"/>
<polyline fill="none" stroke="#0000ff" stroke-width="3" points="110.568,370.267 116.568,376.267"/>
<polyline fill="none" stroke="#0000ff" stroke-width="3" points="110.568,376.267 116.568,370.267"/>
<polyline fill="none" stroke="#0000ff" stroke-width="3" points="131.4,359.722 137.4,365.722"/>
<polyline fill="none" stroke="#0000ff" stroke-width="3" points="131.4,365.722 137.4,359.722"/>
<polyline fill="none" stroke="#0000ff" stroke-width="3" points="170.088,338.741 176.088,344.741"/>
<polyline fill="none" stroke="#0000ff" stroke-width="3" points="170.088,344.741 176.088,338.741"/>
<polyline fill="none" stroke="#0000ff" stroke-width="3" points="250.44,299.216 256.44,305.216"/>
<polyline fill="none" stroke="#0000ff" stroke-width="3" points="250.44,305.216 256.44,299.216"/>
<polyline fill="none" stroke="#0000ff" stroke-width="3" points="412.632,227.612 418.632,233.612"/>
<polyline fill="none" stroke="#0000ff" stroke-width="3" points="412.632,233.612 418.632,227.612"/>
<polyline fill="none" stroke="#ff0000" stroke-width="3" points="106.128,369.895 125.472,359.226 143.328,338.485 187.968,302.82 269.808,219.094 482.592,68.4874"/>
<polyline fill="none" stroke="#ff0000" stroke-width="3" points="109.128,369.895 108.555,371.659 107.055,372.749 105.201,372.749 103.701,371.659 103.128,369.895 103.701,368.132 105.201,367.042 107.055,367.042 108.555,368.132 109.128,369.895"/>
<polyline fill="none" stroke="#ff0000" stroke-width="3" points="128.472,359.226 127.899,360.989 126.399,362.079 124.545,362.079 123.045,360.989 122.472,359.226 123.045,357.463 124.545,356.373 126.399,356.373 127.899,357.463 128.472,359.226"/>
<polyline fill="none" stroke="#ff0000" stroke-width="3" points="146.328,338.485 145.755,340.249 144.255,341.339 142.401,341.339 140.901,340.249 140.328,338.485 140.901,336.722 142.401,335.632 144.255,335.632 145.755,336.722 146.328,338.485"/>
<polyline fill="none" stroke="#ff0000" stroke-width="3" points="190.968,302.82 190.395,304.583 188.895,305.673 187.041,305.673 185.541,304.583 184.968,302.82 185.541,301.056 187.041,299.966 188.895,299.966 190.395,301.056 190.968,302.82"/>
<polyline fill="none" stroke="#ff0000" stroke-width="3" points="272.808,219.094 272.235,220.857 270.735,221.947 268.881,221.947 267.381,220.857 266.808,219.094 267.381,217.33 268.881,216.24 270.735,216.24 272.235,217.33 272.808,219.094"/>
<polyline fill="none" stroke="#ff0000" stroke-width="3" points="485.592,68.4874 485.019,70.2507 483.519,71.3405 481.665,71.3405 480.165,70.2507 479.592,68.4874 480.165,66.724 481.665,65.6342 483.519,65.6342 485.019,66.724 485.592,68.4874"/>
<polygon fill="#ffffff" points="388.223,381.729 388.223,341.257 388.223,381.729"/>
<polygon fill="#ffffff" points="388.223,341.257 388.223,341.257 388.223,381.729"/>
<polygon fill="#ffffff" points="209.171,341.257 388.223,341.257 209.171,341.257"/>
<polygon fill="#ffffff" points="388.223,341.257 388.223,341.257 209.171,341.257"/>
<polygon fill="#ffffff" points="209.171,381.729 388.223,381.729 209.171,341.257"/>
<polygon fill="#ffffff" points="388.223,381.729 388.223,341.257 209.171,341.257"/>
<polyline fill="none" stroke="#000000" stroke-width="0.5" stroke-dasharray="16,0" points="209.171,381.729 388.223,381.729"/>
<polyline fill="none" stroke="#000000" stroke-width="0.5" stroke-dasharray="16,0" points="209.171,341.257 388.223,341.257"/>
<polyline fill="none" stroke="#000000" stroke-width="0.5" stroke-dasharray="16,0" points="209.171,341.257 388.223,341.257"/>
<polyline fill="none" stroke="#000000" stroke-width="0.5" stroke-dasharray="16,0" points="209.171,381.729 388.223,381.729"/>
<polyline fill="none" stroke="#000000" stroke-width="0.5" stroke-dasharray="16,0" points="209.171,381.729 209.171,341.257"/>
<polyline fill="none" stroke="#000000" stroke-width="0.5" stroke-dasharray="16,0" points="388.223,381.729 388.223,341.257"/>
<polyline fill="none" stroke="#000000" stroke-width="0.5" stroke-dasharray="16,0" points="388.223,381.729 388.223,341.257"/>
<polyline fill="none" stroke="#000000" stroke-width="0.5" stroke-dasharray="16,0" points="209.171,381.729 209.171,341.257 209.171,341.257"/>
<polyline fill="none" stroke="#000000" stroke-width="0.5" stroke-dasharray="16,0" points="388.223,341.257 388.223,341.257"/>
<polyline fill="none" stroke="#000000" stroke-width="0.5" stroke-dasharray="16,0" points="388.223,381.729 388.223,381.729"/>
<polyline fill="none" stroke="#000000" stroke-width="0.5" stroke-dasharray="16,0" points="209.171,381.729 209.171,381.729"/>
<text fill="#000000" x="235.301" y="351.375" font-size="14" text-anchor="start" baseline-shift="-7" font-family="Helvetica">Метод встраивания</text>
<text fill="#000000" x="235.301" y="371.611" font-size="14" text-anchor="start" baseline-shift="-7" font-family="Helvetica">Метод резюме</text>
<polyline fill="none" stroke="#0000ff" stroke-width="0.5" stroke-dasharray="12,4" points="211.922,351.375 232.551,351.375"/>
<polyline fill="none" stroke="#0000ff" stroke-width="0.5" points="219.236,348.375 225.236,354.375"/>
<polyline fill="none" stroke="#0000ff" stroke-width="0.5" points="219.236,354.375 225.236,348.375"/>
<polyline fill="none" stroke="#ff0000" stroke-width="0.5" points="211.922,371.611 232.551,371.611"/>
<polyline fill="none" stroke="#ff0000" stroke-width="0.5" points="225.236,371.611 224.663,373.375 223.163,374.465 221.309,374.465 219.809,373.375 219.236,371.611 219.809,369.848 221.309,368.758 223.163,368.758 224.663,369.848 225.236,371.611"/>
</g>
</svg>
