<?xml version="1.0" encoding="UTF-8" standalone="no"?>
<svg xmlns="http://www.w3.org/2000/svg"
     xmlns:xlink="http://www.w3.org/1999/xlink"
     width="576px" height="432px" viewBox="0 0 576 432">
<title>glps_renderer figure</title>
<desc>
Creator: GL2PS 1.3.8, (C) 1999-2012 C. Geuzaine
For: Octave
CreationDate: Fri Oct 30 17:29:31 2015
</desc>
<defs>
</defs>
<g shape-rendering="crispEdges">
<polygon fill="#ffffff" points="521.28,384.48 521.28,32.4 521.28,384.48"/>
<polygon fill="#ffffff" points="521.28,32.4 521.28,32.4 521.28,384.48"/>
<polygon fill="#ffffff" points="74.88,32.4 521.28,32.4 74.88,32.4"/>
<polygon fill="#ffffff" points="521.28,32.4 521.28,32.4 74.88,32.4"/>
<polygon fill="#ffffff" points="74.88,384.48 521.28,384.48 74.88,32.4"/>
<polygon fill="#ffffff" points="521.28,384.48 521.28,32.4 74.88,32.4"/>
<polyline fill="none" stroke="#000000" stroke-width="0.5" stroke-dasharray="16,0" points="74.88,384.48 521.28,384.48"/>
<polyline fill="none" stroke="#000000" stroke-width="0.5" stroke-dasharray="16,0" points="74.88,32.4 521.28,32.4"/>
<polyline fill="none" stroke="#000000" stroke-width="0.5" stroke-dasharray="16,0" points="74.88,32.4 521.28,32.4"/>
<polyline fill="none" stroke="#000000" stroke-width="0.5" stroke-dasharray="16,0" points="74.88,384.48 521.28,384.48"/>
<polyline fill="none" stroke="#000000" stroke-width="0.5" stroke-dasharray="16,0" points="74.88,384.48 74.88,32.4"/>
<polyline fill="none" stroke="#000000" stroke-width="0.5" stroke-dasharray="16,0" points="521.28,384.48 521.28,32.4"/>
<polyline fill="none" stroke="#000000" stroke-width="0.5" stroke-dasharray="16,0" points="521.28,384.48 521.28,32.4"/>
<polyline fill="none" stroke="#000000" stroke-width="0.5" stroke-dasharray="16,0" points="74.88,384.48 74.88,32.4 74.88,32.4"/>
<polyline fill="none" stroke="#000000" stroke-width="0.5" stroke-dasharray="16,0" points="521.28,32.4 521.28,32.4"/>
<polyline fill="none" stroke="#000000" stroke-width="0.5" stroke-dasharray="16,0" points="521.28,384.48 521.28,384.48"/>
<polyline fill="none" stroke="#000000" stroke-width="0.5" stroke-dasharray="16,0" points="74.88,384.48 74.88,384.48"/>
<polyline fill="none" stroke="#000000" stroke-width="0.5" stroke-dasharray="0,3,1,3,1,3,1,3,1,0" points="74.88,384.48 74.88,32.4"/>
<polyline fill="none" stroke="#000000" stroke-width="0.5" stroke-dasharray="0,3,1,3,1,3,1,3,1,0" points="149.28,384.48 149.28,32.4"/>
<polyline fill="none" stroke="#000000" stroke-width="0.5" stroke-dasharray="0,3,1,3,1,3,1,3,1,0" points="223.68,384.48 223.68,32.4"/>
<polyline fill="none" stroke="#000000" stroke-width="0.5" stroke-dasharray="0,3,1,3,1,3,1,3,1,0" points="298.08,384.48 298.08,32.4"/>
<polyline fill="none" stroke="#000000" stroke-width="0.5" stroke-dasharray="0,3,1,3,1,3,1,3,1,0" points="372.48,384.48 372.48,32.4"/>
<polyline fill="none" stroke="#000000" stroke-width="0.5" stroke-dasharray="0,3,1,3,1,3,1,3,1,0" points="446.88,384.48 446.88,32.4"/>
<polyline fill="none" stroke="#000000" stroke-width="0.5" stroke-dasharray="0,3,1,3,1,3,1,3,1,0" points="521.28,384.48 521.28,32.4"/>
<polyline fill="none" stroke="#000000" stroke-width="0.5" stroke-dasharray="16,0" points="74.88,384.48 74.88,380.015"/>
<polyline fill="none" stroke="#000000" stroke-width="0.5" stroke-dasharray="16,0" points="74.88,32.4 74.88,36.8651"/>
<polyline fill="none" stroke="#000000" stroke-width="0.5" stroke-dasharray="16,0" points="149.28,384.48 149.28,380.015"/>
<polyline fill="none" stroke="#000000" stroke-width="0.5" stroke-dasharray="16,0" points="149.28,32.4 149.28,36.8651"/>
<polyline fill="none" stroke="#000000" stroke-width="0.5" stroke-dasharray="16,0" points="223.68,384.48 223.68,380.015"/>
<polyline fill="none" stroke="#000000" stroke-width="0.5" stroke-dasharray="16,0" points="223.68,32.4 223.68,36.8651"/>
<polyline fill="none" stroke="#000000" stroke-width="0.5" stroke-dasharray="16,0" points="298.08,384.48 298.08,380.015"/>
<polyline fill="none" stroke="#000000" stroke-width="0.5" stroke-dasharray="16,0" points="298.08,32.4 298.08,36.8651"/>
<polyline fill="none" stroke="#000000" stroke-width="0.5" stroke-dasharray="16,0" points="372.48,384.48 372.48,380.015"/>
<polyline fill="none" stroke="#000000" stroke-width="0.5" stroke-dasharray="16,0" points="372.48,32.4 372.48,36.8651"/>
<polyline fill="none" stroke="#000000" stroke-width="0.5" stroke-dasharray="16,0" points="446.88,384.48 446.88,380.015"/>
<polyline fill="none" stroke="#000000" stroke-width="0.5" stroke-dasharray="16,0" points="446.88,32.4 446.88,36.8651"/>
<polyline fill="none" stroke="#000000" stroke-width="0.5" stroke-dasharray="16,0" points="521.28,384.48 521.28,380.015"/>
<polyline fill="none" stroke="#000000" stroke-width="0.5" stroke-dasharray="16,0" points="521.28,32.4 521.28,36.8651"/>
<text fill="#000000" x="74.88" y="389.481" font-size="14" text-anchor="middle" baseline-shift="-14" font-family="Helvetica">0</text>
<text fill="#000000" x="149.28" y="389.481" font-size="14" text-anchor="middle" baseline-shift="-14" font-family="Helvetica">50</text>
<text fill="#000000" x="223.68" y="389.481" font-size="14" text-anchor="middle" baseline-shift="-14" font-family="Helvetica">100</text>
<text fill="#000000" x="298.08" y="389.481" font-size="14" text-anchor="middle" baseline-shift="-14" font-family="Helvetica">150</text>
<text fill="#000000" x="372.48" y="389.481" font-size="14" text-anchor="middle" baseline-shift="-14" font-family="Helvetica">200</text>
<text fill="#000000" x="446.88" y="389.481" font-size="14" text-anchor="middle" baseline-shift="-14" font-family="Helvetica">250</text>
<text fill="#000000" x="521.28" y="389.481" font-size="14" text-anchor="middle" baseline-shift="-14" font-family="Helvetica">300</text>
<polyline fill="none" stroke="#000000" stroke-width="0.5" stroke-dasharray="0,3,1,3,1,3,1,3,1,0" points="74.88,384.48 521.28,384.48"/>
<polyline fill="none" stroke="#000000" stroke-width="0.5" stroke-dasharray="0,3,1,3,1,3,1,3,1,0" points="74.88,325.8 521.28,325.8"/>
<polyline fill="none" stroke="#000000" stroke-width="0.5" stroke-dasharray="0,3,1,3,1,3,1,3,1,0" points="74.88,267.12 521.28,267.12"/>
<polyline fill="none" stroke="#000000" stroke-width="0.5" stroke-dasharray="0,3,1,3,1,3,1,3,1,0" points="74.88,208.44 521.28,208.44"/>
<polyline fill="none" stroke="#000000" stroke-width="0.5" stroke-dasharray="0,3,1,3,1,3,1,3,1,0" points="74.88,149.76 521.28,149.76"/>
<polyline fill="none" stroke="#000000" stroke-width="0.5" stroke-dasharray="0,3,1,3,1,3,1,3,1,0" points="74.88,91.08 521.28,91.08"/>
<polyline fill="none" stroke="#000000" stroke-width="0.5" stroke-dasharray="0,3,1,3,1,3,1,3,1,0" points="74.88,32.4 521.28,32.4"/>
<polyline fill="none" stroke="#000000" stroke-width="0.5" stroke-dasharray="16,0" points="74.88,384.48 79.348,384.48"/>
<polyline fill="none" stroke="#000000" stroke-width="0.5" stroke-dasharray="16,0" points="521.28,384.48 516.812,384.48"/>
<polyline fill="none" stroke="#000000" stroke-width="0.5" stroke-dasharray="16,0" points="74.88,325.8 79.348,325.8"/>
<polyline fill="none" stroke="#000000" stroke-width="0.5" stroke-dasharray="16,0" points="521.28,325.8 516.812,325.8"/>
<polyline fill="none" stroke="#000000" stroke-width="0.5" stroke-dasharray="16,0" points="74.88,267.12 79.348,267.12"/>
<polyline fill="none" stroke="#000000" stroke-width="0.5" stroke-dasharray="16,0" points="521.28,267.12 516.812,267.12"/>
<polyline fill="none" stroke="#000000" stroke-width="0.5" stroke-dasharray="16,0" points="74.88,208.44 79.348,208.44"/>
<polyline fill="none" stroke="#000000" stroke-width="0.5" stroke-dasharray="16,0" points="521.28,208.44 516.812,208.44"/>
<polyline fill="none" stroke="#000000" stroke-width="0.5" stroke-dasharray="16,0" points="74.88,149.76 79.348,149.76"/>
<polyline fill="none" stroke="#000000" stroke-width="0.5" stroke-dasharray="16,0" points="521.28,149.76 516.812,149.76"/>
<polyline fill="none" stroke="#000000" stroke-width="0.5" stroke-dasharray="16,0" points="74.88,91.08 79.348,91.08"/>
<polyline fill="none" stroke="#000000" stroke-width="0.5" stroke-dasharray="16,0" points="521.28,91.08 516.812,91.08"/>
<polyline fill="none" stroke="#000000" stroke-width="0.5" stroke-dasharray="16,0" points="74.88,32.4 79.348,32.4"/>
<polyline fill="none" stroke="#000000" stroke-width="0.5" stroke-dasharray="16,0" points="521.28,32.4 516.812,32.4"/>
<text fill="#000000" x="69.8755" y="384.48" font-size="14" text-anchor="end" baseline-shift="-7" font-family="Helvetica">4000</text>
<text fill="#000000" x="69.8755" y="325.8" font-size="14" text-anchor="end" baseline-shift="-7" font-family="Helvetica">6000</text>
<text fill="#000000" x="69.8755" y="267.12" font-size="14" text-anchor="end" baseline-shift="-7" font-family="Helvetica">8000</text>
<text fill="#000000" x="69.8755" y="208.44" font-size="14" text-anchor="end" baseline-shift="-7" font-family="Helvetica">10000</text>
<text fill="#000000" x="69.8755" y="149.76" font-size="14" text-anchor="end" baseline-shift="-7" font-family="Helvetica">12000</text>
<text fill="#000000" x="69.8755" y="91.08" font-size="14" text-anchor="end" baseline-shift="-7" font-family="Helvetica">14000</text>
<text fill="#000000" x="69.8755" y="32.4" font-size="14" text-anchor="end" baseline-shift="-7" font-family="Helvetica">16000</text>
<text fill="#000000" x="298.08" y="406.481" font-size="14" text-anchor="middle" baseline-shift="-14" font-family="Helvetica">Время анализа (мин)</text>
<text fill="#000000" x="30.8755" y="208.44" font-size="14" transform="rotate(-90, 30.8755, 208.44)" text-anchor="middle" baseline-shift="0" font-family="Helvetica">Количество срабатываний</text>
<polyline fill="none" stroke="#0000ff" stroke-width="3" stroke-dasharray="12,4" points="103.152,347.922 113.568,332.46 134.4,318.26 173.088,306.905 253.44,298.044 415.632,286.631"/>
<polyline fill="none" stroke="#0000ff" stroke-width="3" points="100.152,344.922 106.152,350.922"/>
<polyline fill="none" stroke="#0000ff" stroke-width="3" points="100.152,350.922 106.152,344.922"/>
<polyline fill="none" stroke="#0000ff" stroke-width="3" points="110.568,329.46 116.568,335.46"/>
<polyline fill="none" stroke="#0000ff" stroke-width="3" points="110.568,335.46 116.568,329.46"/>
<polyline fill="none" stroke="#0000ff" stroke-width="3" points="131.4,315.26 137.4,321.26"/>
<polyline fill="none" stroke="#0000ff" stroke-width="3" points="131.4,321.26 137.4,315.26"/>
<polyline fill="none" stroke="#0000ff" stroke-width="3" points="170.088,303.905 176.088,309.905"/>
<polyline fill="none" stroke="#0000ff" stroke-width="3" points="170.088,309.905 176.088,303.905"/>
<polyline fill="none" stroke="#0000ff" stroke-width="3" points="250.44,295.044 256.44,301.044"/>
<polyline fill="none" stroke="#0000ff" stroke-width="3" points="250.44,301.044 256.44,295.044"/>
<polyline fill="none" stroke="#0000ff" stroke-width="3" points="412.632,283.631 418.632,289.631"/>
<polyline fill="none" stroke="#0000ff" stroke-width="3" points="412.632,289.631 418.632,283.631"/>
<polyline fill="none" stroke="#ff0000" stroke-width="3" points="106.128,200.841 125.472,166.22 143.328,107.54 187.968,85.4761 269.808,77.4369 482.592,63.5298"/>
<polyline fill="none" stroke="#ff0000" stroke-width="3" points="109.128,200.841 108.555,202.604 107.055,203.694 105.201,203.694 103.701,202.604 103.128,200.841 103.701,199.078 105.201,197.988 107.055,197.988 108.555,199.078 109.128,200.841"/>
<polyline fill="none" stroke="#ff0000" stroke-width="3" points="128.472,166.22 127.899,167.983 126.399,169.073 124.545,169.073 123.045,167.983 122.472,166.22 123.045,164.456 124.545,163.367 126.399,163.367 127.899,164.456 128.472,166.22"/>
<polyline fill="none" stroke="#ff0000" stroke-width="3" points="146.328,107.54 145.755,109.303 144.255,110.393 142.401,110.393 140.901,109.303 140.328,107.54 140.901,105.776 142.401,104.687 144.255,104.687 145.755,105.776 146.328,107.54"/>
<polyline fill="none" stroke="#ff0000" stroke-width="3" points="190.968,85.4761 190.395,87.2394 188.895,88.3292 187.041,88.3292 185.541,87.2394 184.968,85.4761 185.541,83.7127 187.041,82.6229 188.895,82.6229 190.395,83.7127 190.968,85.4761"/>
<polyline fill="none" stroke="#ff0000" stroke-width="3" points="272.808,77.4369 272.235,79.2003 270.735,80.2901 268.881,80.2901 267.381,79.2003 266.808,77.4369 267.381,75.6735 268.881,74.5837 270.735,74.5837 272.235,75.6735 272.808,77.4369"/>
<polyline fill="none" stroke="#ff0000" stroke-width="3" points="485.592,63.5297 485.019,65.2931 483.519,66.3829 481.665,66.3829 480.165,65.2931 479.592,63.5297 480.165,61.7664 481.665,60.6766 483.519,60.6766 485.019,61.7664 485.592,63.5297"/>
<polygon fill="#ffffff" points="370.635,381.729 370.635,341.257 370.635,381.729"/>
<polygon fill="#ffffff" points="370.635,341.257 370.635,341.257 370.635,381.729"/>
<polygon fill="#ffffff" points="225.525,341.257 370.635,341.257 225.525,341.257"/>
<polygon fill="#ffffff" points="370.635,341.257 370.635,341.257 225.525,341.257"/>
<polygon fill="#ffffff" points="225.525,381.729 370.635,381.729 225.525,341.257"/>
<polygon fill="#ffffff" points="370.635,381.729 370.635,341.257 225.525,341.257"/>
<polyline fill="none" stroke="#000000" stroke-width="0.5" stroke-dasharray="16,0" points="225.525,381.729 370.635,381.729"/>
<polyline fill="none" stroke="#000000" stroke-width="0.5" stroke-dasharray="16,0" points="225.525,341.257 370.635,341.257"/>
<polyline fill="none" stroke="#000000" stroke-width="0.5" stroke-dasharray="16,0" points="225.525,341.257 370.635,341.257"/>
<polyline fill="none" stroke="#000000" stroke-width="0.5" stroke-dasharray="16,0" points="225.525,381.729 370.635,381.729"/>
<polyline fill="none" stroke="#000000" stroke-width="0.5" stroke-dasharray="16,0" points="225.525,381.729 225.525,341.257"/>
<polyline fill="none" stroke="#000000" stroke-width="0.5" stroke-dasharray="16,0" points="370.635,381.729 370.635,341.257"/>
<polyline fill="none" stroke="#000000" stroke-width="0.5" stroke-dasharray="16,0" points="370.635,381.729 370.635,341.257"/>
<polyline fill="none" stroke="#000000" stroke-width="0.5" stroke-dasharray="16,0" points="225.525,381.729 225.525,341.257 225.525,341.257"/>
<polyline fill="none" stroke="#000000" stroke-width="0.5" stroke-dasharray="16,0" points="370.635,341.257 370.635,341.257"/>
<polyline fill="none" stroke="#000000" stroke-width="0.5" stroke-dasharray="16,0" points="370.635,381.729 370.635,381.729"/>
<polyline fill="none" stroke="#000000" stroke-width="0.5" stroke-dasharray="16,0" points="225.525,381.729 225.525,381.729"/>
<text fill="#000000" x="251.655" y="351.375" font-size="14" text-anchor="start" baseline-shift="-7" font-family="Helvetica">Метод встраивания</text>
<text fill="#000000" x="251.655" y="371.611" font-size="14" text-anchor="start" baseline-shift="-7" font-family="Helvetica">Метод резюме</text>
<polyline fill="none" stroke="#0000ff" stroke-width="0.5" stroke-dasharray="12,4" points="228.276,351.375 248.905,351.375"/>
<polyline fill="none" stroke="#0000ff" stroke-width="0.5" points="235.59,348.375 241.59,354.375"/>
<polyline fill="none" stroke="#0000ff" stroke-width="0.5" points="235.59,354.375 241.59,348.375"/>
<polyline fill="none" stroke="#ff0000" stroke-width="0.5" points="228.276,371.611 248.905,371.611"/>
<polyline fill="none" stroke="#ff0000" stroke-width="0.5" points="241.59,371.611 241.018,373.375 239.518,374.465 237.663,374.465 236.163,373.375 235.59,371.611 236.163,369.848 237.663,368.758 239.518,368.758 241.018,369.848 241.59,371.611"/>
</g>
</svg>
