<?xml version="1.0" encoding="UTF-8" standalone="no"?>
<svg
   xmlns:dc="http://purl.org/dc/elements/1.1/"
   xmlns:cc="http://creativecommons.org/ns#"
   xmlns:rdf="http://www.w3.org/1999/02/22-rdf-syntax-ns#"
   xmlns:svg="http://www.w3.org/2000/svg"
   xmlns="http://www.w3.org/2000/svg"
   xmlns:sodipodi="http://sodipodi.sourceforge.net/DTD/sodipodi-0.dtd"
   xmlns:inkscape="http://www.inkscape.org/namespaces/inkscape"
   width="576px"
   height="432px"
   viewBox="0 0 576 432"
   id="svg2"
   version="1.1"
   inkscape:version="0.48.4 r9939"
   sodipodi:docname="xtu-nodes.pdf">
  <metadata
     id="metadata372">
    <rdf:RDF>
      <cc:Work
         rdf:about="">
        <dc:format>image/svg+xml</dc:format>
        <dc:type
           rdf:resource="http://purl.org/dc/dcmitype/StillImage" />
        <dc:title>glps_renderer figure</dc:title>
      </cc:Work>
    </rdf:RDF>
  </metadata>
  <sodipodi:namedview
     pagecolor="#ffffff"
     bordercolor="#666666"
     borderopacity="1"
     objecttolerance="10"
     gridtolerance="10"
     guidetolerance="10"
     inkscape:pageopacity="0"
     inkscape:pageshadow="2"
     inkscape:window-width="1814"
     inkscape:window-height="1060"
     id="namedview370"
     showgrid="false"
     inkscape:zoom="1.5451593"
     inkscape:cx="189.48284"
     inkscape:cy="132.6781"
     inkscape:window-x="104"
     inkscape:window-y="-3"
     inkscape:window-maximized="1"
     inkscape:current-layer="svg2" />
  <title
     id="title4">glps_renderer figure</title>
  <desc
     id="desc6">
Creator: GL2PS 1.3.8, (C) 1999-2012 C. Geuzaine
For: Octave
CreationDate: Mon Nov  9 12:21:42 2015
</desc>
  <defs
     id="defs8" />
  <polygon
     style="fill:#ffffff"
     id="polygon12"
     points="521.28,384.48 521.28,384.48 521.28,32.4 " />
  <polygon
     style="fill:#ffffff"
     id="polygon14"
     points="521.28,384.48 521.28,32.4 521.28,32.4 " />
  <polygon
     style="fill:#ffffff"
     id="polygon16"
     points="74.88,32.4 74.88,32.4 521.28,32.4 " />
  <polygon
     style="fill:#ffffff"
     id="polygon18"
     points="74.88,32.4 521.28,32.4 521.28,32.4 " />
  <polygon
     style="fill:#ffffff"
     id="polygon20"
     points="74.88,32.4 74.88,384.48 521.28,384.48 " />
  <polygon
     style="fill:#ffffff"
     id="polygon22"
     points="74.88,32.4 521.28,384.48 521.28,32.4 " />
  <polyline
     style="fill:none;stroke:#000000;stroke-width:0.5;stroke-dasharray:16, 0"
     id="polyline24"
     points="74.88,384.48 521.28,384.48" />
  <polyline
     style="fill:none;stroke:#000000;stroke-width:0.5;stroke-dasharray:16, 0"
     id="polyline26"
     points="74.88,32.4 521.28,32.4" />
  <polyline
     style="fill:none;stroke:#000000;stroke-width:0.5;stroke-dasharray:16, 0"
     id="polyline28"
     points="74.88,32.4 521.28,32.4" />
  <polyline
     style="fill:none;stroke:#000000;stroke-width:0.5;stroke-dasharray:16, 0"
     id="polyline30"
     points="74.88,384.48 521.28,384.48" />
  <polyline
     style="fill:none;stroke:#000000;stroke-width:0.5;stroke-dasharray:16, 0"
     id="polyline32"
     points="74.88,384.48 74.88,32.4" />
  <polyline
     style="fill:none;stroke:#000000;stroke-width:0.5;stroke-dasharray:16, 0"
     id="polyline34"
     points="521.28,384.48 521.28,32.4" />
  <polyline
     style="fill:none;stroke:#000000;stroke-width:0.5;stroke-dasharray:16, 0"
     id="polyline36"
     points="521.28,384.48 521.28,32.4" />
  <polyline
     style="fill:none;stroke:#000000;stroke-width:0.5;stroke-dasharray:16, 0"
     id="polyline38"
     points="74.88,384.48 74.88,32.4 74.88,32.4" />
  <polyline
     style="fill:none;stroke:#000000;stroke-width:0.5;stroke-dasharray:16, 0"
     id="polyline40"
     points="521.28,32.4 521.28,32.4" />
  <polyline
     style="fill:none;stroke:#000000;stroke-width:0.5;stroke-dasharray:16, 0"
     id="polyline42"
     points="521.28,384.48 521.28,384.48" />
  <polyline
     style="fill:none;stroke:#000000;stroke-width:0.5;stroke-dasharray:16, 0"
     id="polyline44"
     points="74.88,384.48 74.88,384.48" />
  <polyline
     style="fill:none;stroke:#000000;stroke-width:0.5;stroke-dasharray:0, 3, 1, 3, 1, 3, 1, 3, 1, 0"
     id="polyline46"
     points="74.88,384.48 74.88,32.4" />
  <polyline
     style="fill:none;stroke:#000000;stroke-width:0.5;stroke-dasharray:0, 3, 1, 3, 1, 3, 1, 3, 1, 0"
     id="polyline48"
     points="149.28,384.48 149.28,32.4" />
  <polyline
     style="fill:none;stroke:#000000;stroke-width:0.5;stroke-dasharray:0, 3, 1, 3, 1, 3, 1, 3, 1, 0"
     id="polyline50"
     points="223.68,384.48 223.68,32.4" />
  <polyline
     style="fill:none;stroke:#000000;stroke-width:0.5;stroke-dasharray:0, 3, 1, 3, 1, 3, 1, 3, 1, 0"
     id="polyline52"
     points="298.08,384.48 298.08,32.4" />
  <polyline
     style="fill:none;stroke:#000000;stroke-width:0.5;stroke-dasharray:0, 3, 1, 3, 1, 3, 1, 3, 1, 0"
     id="polyline54"
     points="372.48,384.48 372.48,32.4" />
  <polyline
     style="fill:none;stroke:#000000;stroke-width:0.5;stroke-dasharray:0, 3, 1, 3, 1, 3, 1, 3, 1, 0"
     id="polyline56"
     points="446.88,384.48 446.88,32.4" />
  <polyline
     style="fill:none;stroke:#000000;stroke-width:0.5;stroke-dasharray:0, 3, 1, 3, 1, 3, 1, 3, 1, 0"
     id="polyline58"
     points="521.28,384.48 521.28,32.4" />
  <polyline
     style="fill:none;stroke:#000000;stroke-width:0.5;stroke-dasharray:16, 0"
     id="polyline60"
     points="74.88,384.48 74.88,380.015" />
  <polyline
     style="fill:none;stroke:#000000;stroke-width:0.5;stroke-dasharray:16, 0"
     id="polyline62"
     points="74.88,32.4 74.88,36.8651" />
  <polyline
     style="fill:none;stroke:#000000;stroke-width:0.5;stroke-dasharray:16, 0"
     id="polyline64"
     points="149.28,384.48 149.28,380.015" />
  <polyline
     style="fill:none;stroke:#000000;stroke-width:0.5;stroke-dasharray:16, 0"
     id="polyline66"
     points="149.28,32.4 149.28,36.8651" />
  <polyline
     style="fill:none;stroke:#000000;stroke-width:0.5;stroke-dasharray:16, 0"
     id="polyline68"
     points="223.68,384.48 223.68,380.015" />
  <polyline
     style="fill:none;stroke:#000000;stroke-width:0.5;stroke-dasharray:16, 0"
     id="polyline70"
     points="223.68,32.4 223.68,36.8651" />
  <polyline
     style="fill:none;stroke:#000000;stroke-width:0.5;stroke-dasharray:16, 0"
     id="polyline72"
     points="298.08,384.48 298.08,380.015" />
  <polyline
     style="fill:none;stroke:#000000;stroke-width:0.5;stroke-dasharray:16, 0"
     id="polyline74"
     points="298.08,32.4 298.08,36.8651" />
  <polyline
     style="fill:none;stroke:#000000;stroke-width:0.5;stroke-dasharray:16, 0"
     id="polyline76"
     points="372.48,384.48 372.48,380.015" />
  <polyline
     style="fill:none;stroke:#000000;stroke-width:0.5;stroke-dasharray:16, 0"
     id="polyline78"
     points="372.48,32.4 372.48,36.8651" />
  <polyline
     style="fill:none;stroke:#000000;stroke-width:0.5;stroke-dasharray:16, 0"
     id="polyline80"
     points="446.88,384.48 446.88,380.015" />
  <polyline
     style="fill:none;stroke:#000000;stroke-width:0.5;stroke-dasharray:16, 0"
     id="polyline82"
     points="446.88,32.4 446.88,36.8651" />
  <polyline
     style="fill:none;stroke:#000000;stroke-width:0.5;stroke-dasharray:16, 0"
     id="polyline84"
     points="521.28,384.48 521.28,380.015" />
  <polyline
     style="fill:none;stroke:#000000;stroke-width:0.5;stroke-dasharray:16, 0"
     id="polyline86"
     points="521.28,32.4 521.28,36.8651" />
  <text
     style="font-size:14px;text-anchor:middle;baseline-shift:-14px;fill:#000000;font-family:Helvetica"
     id="text88"
     baseline-shift="-14"
     font-size="14"
     y="389.48099"
     x="74.879997">0</text>
  <text
     style="font-size:14px;text-anchor:middle;baseline-shift:-14px;fill:#000000;font-family:Helvetica"
     id="text90"
     baseline-shift="-14"
     font-size="14"
     y="389.48099"
     x="149.28">50</text>
  <text
     style="font-size:14px;text-anchor:middle;baseline-shift:-14px;fill:#000000;font-family:Helvetica"
     id="text92"
     baseline-shift="-14"
     font-size="14"
     y="389.48099"
     x="223.67999">100</text>
  <text
     style="font-size:14px;text-anchor:middle;baseline-shift:-14px;fill:#000000;font-family:Helvetica"
     id="text94"
     baseline-shift="-14"
     font-size="14"
     y="389.48099"
     x="298.07999">150</text>
  <text
     style="font-size:14px;text-anchor:middle;baseline-shift:-14px;fill:#000000;font-family:Helvetica"
     id="text96"
     baseline-shift="-14"
     font-size="14"
     y="389.48099"
     x="372.48001">200</text>
  <text
     style="font-size:14px;text-anchor:middle;baseline-shift:-14px;fill:#000000;font-family:Helvetica"
     id="text98"
     baseline-shift="-14"
     font-size="14"
     y="389.48099"
     x="446.88">250</text>
  <text
     style="font-size:14px;text-anchor:middle;baseline-shift:-14px;fill:#000000;font-family:Helvetica"
     id="text100"
     baseline-shift="-14"
     font-size="14"
     y="389.48099"
     x="521.28003">300</text>
  <polyline
     style="fill:none;stroke:#000000;stroke-width:0.5;stroke-dasharray:0, 3, 1, 3, 1, 3, 1, 3, 1, 0"
     id="polyline102"
     points="74.88,384.48 521.28,384.48" />
  <polyline
     style="fill:none;stroke:#000000;stroke-width:0.5;stroke-dasharray:0, 3, 1, 3, 1, 3, 1, 3, 1, 0"
     id="polyline104"
     points="74.88,267.12 521.28,267.12" />
  <polyline
     style="fill:none;stroke:#000000;stroke-width:0.5;stroke-dasharray:0, 3, 1, 3, 1, 3, 1, 3, 1, 0"
     id="polyline106"
     points="74.88,149.76 521.28,149.76" />
  <polyline
     style="fill:none;stroke:#000000;stroke-width:0.5;stroke-dasharray:0, 3, 1, 3, 1, 3, 1, 3, 1, 0"
     id="polyline108"
     points="74.88,32.4 521.28,32.4" />
  <polyline
     style="fill:none;stroke:#000000;stroke-width:0.5;stroke-dasharray:16, 0"
     id="polyline110"
     points="74.88,384.48 79.348,384.48" />
  <polyline
     style="fill:none;stroke:#000000;stroke-width:0.5;stroke-dasharray:16, 0"
     id="polyline112"
     points="521.28,384.48 516.812,384.48" />
  <polyline
     style="fill:none;stroke:#000000;stroke-width:0.5;stroke-dasharray:16, 0"
     id="polyline114"
     points="74.88,267.12 79.348,267.12" />
  <polyline
     style="fill:none;stroke:#000000;stroke-width:0.5;stroke-dasharray:16, 0"
     id="polyline116"
     points="521.28,267.12 516.812,267.12" />
  <polyline
     style="fill:none;stroke:#000000;stroke-width:0.5;stroke-dasharray:16, 0"
     id="polyline118"
     points="74.88,149.76 79.348,149.76" />
  <polyline
     style="fill:none;stroke:#000000;stroke-width:0.5;stroke-dasharray:16, 0"
     id="polyline120"
     points="521.28,149.76 516.812,149.76" />
  <polyline
     style="fill:none;stroke:#000000;stroke-width:0.5;stroke-dasharray:16, 0"
     id="polyline122"
     points="74.88,32.4 79.348,32.4" />
  <polyline
     style="fill:none;stroke:#000000;stroke-width:0.5;stroke-dasharray:16, 0"
     id="polyline124"
     points="521.28,32.4 516.812,32.4" />
  <text
     style="font-size:14px;text-anchor:end;baseline-shift:-7px;fill:#000000;font-family:Helvetica"
     id="text126"
     baseline-shift="-7"
     font-size="14"
     y="384.48001"
     x="69.875504">1e+08</text>
  <text
     style="font-size:14px;text-anchor:end;baseline-shift:-7px;fill:#000000;font-family:Helvetica"
     id="text128"
     baseline-shift="-7"
     font-size="14"
     y="267.12"
     x="69.875504">1e+09</text>
  <text
     style="font-size:14px;text-anchor:end;baseline-shift:-7px;fill:#000000;font-family:Helvetica"
     id="text130"
     baseline-shift="-7"
     font-size="14"
     y="149.75999"
     x="69.875504">1e+10</text>
  <text
     style="font-size:14px;text-anchor:end;baseline-shift:-7px;fill:#000000;font-family:Helvetica"
     id="text132"
     baseline-shift="-7"
     font-size="14"
     y="32.400002"
     x="69.875504">1e+11</text>
  <polyline
     style="fill:none;stroke:#000000;stroke-width:0.5;stroke-dasharray:0, 3, 1, 3, 1, 3, 1, 3, 1, 0"
     id="polyline134"
     points="74.88,349.151 521.28,349.151" />
  <polyline
     style="fill:none;stroke:#000000;stroke-width:0.5;stroke-dasharray:0, 3, 1, 3, 1, 3, 1, 3, 1, 0"
     id="polyline136"
     points="74.88,328.485 521.28,328.485" />
  <polyline
     style="fill:none;stroke:#000000;stroke-width:0.5;stroke-dasharray:0, 3, 1, 3, 1, 3, 1, 3, 1, 0"
     id="polyline138"
     points="74.88,313.822 521.28,313.822" />
  <polyline
     style="fill:none;stroke:#000000;stroke-width:0.5;stroke-dasharray:0, 3, 1, 3, 1, 3, 1, 3, 1, 0"
     id="polyline140"
     points="74.88,302.449 521.28,302.449" />
  <polyline
     style="fill:none;stroke:#000000;stroke-width:0.5;stroke-dasharray:0, 3, 1, 3, 1, 3, 1, 3, 1, 0"
     id="polyline142"
     points="74.88,293.156 521.28,293.156" />
  <polyline
     style="fill:none;stroke:#000000;stroke-width:0.5;stroke-dasharray:0, 3, 1, 3, 1, 3, 1, 3, 1, 0"
     id="polyline144"
     points="74.88,285.299 521.28,285.299" />
  <polyline
     style="fill:none;stroke:#000000;stroke-width:0.5;stroke-dasharray:0, 3, 1, 3, 1, 3, 1, 3, 1, 0"
     id="polyline146"
     points="74.88,278.493 521.28,278.493" />
  <polyline
     style="fill:none;stroke:#000000;stroke-width:0.5;stroke-dasharray:0, 3, 1, 3, 1, 3, 1, 3, 1, 0"
     id="polyline148"
     points="74.88,272.49 521.28,272.49" />
  <polyline
     style="fill:none;stroke:#000000;stroke-width:0.5;stroke-dasharray:0, 3, 1, 3, 1, 3, 1, 3, 1, 0"
     id="polyline150"
     points="74.88,231.791 521.28,231.791" />
  <polyline
     style="fill:none;stroke:#000000;stroke-width:0.5;stroke-dasharray:0, 3, 1, 3, 1, 3, 1, 3, 1, 0"
     id="polyline152"
     points="74.88,211.125 521.28,211.125" />
  <polyline
     style="fill:none;stroke:#000000;stroke-width:0.5;stroke-dasharray:0, 3, 1, 3, 1, 3, 1, 3, 1, 0"
     id="polyline154"
     points="74.88,196.462 521.28,196.462" />
  <polyline
     style="fill:none;stroke:#000000;stroke-width:0.5;stroke-dasharray:0, 3, 1, 3, 1, 3, 1, 3, 1, 0"
     id="polyline156"
     points="74.88,185.089 521.28,185.089" />
  <polyline
     style="fill:none;stroke:#000000;stroke-width:0.5;stroke-dasharray:0, 3, 1, 3, 1, 3, 1, 3, 1, 0"
     id="polyline158"
     points="74.88,175.796 521.28,175.796" />
  <polyline
     style="fill:none;stroke:#000000;stroke-width:0.5;stroke-dasharray:0, 3, 1, 3, 1, 3, 1, 3, 1, 0"
     id="polyline160"
     points="74.88,167.939 521.28,167.939" />
  <polyline
     style="fill:none;stroke:#000000;stroke-width:0.5;stroke-dasharray:0, 3, 1, 3, 1, 3, 1, 3, 1, 0"
     id="polyline162"
     points="74.88,161.133 521.28,161.133" />
  <polyline
     style="fill:none;stroke:#000000;stroke-width:0.5;stroke-dasharray:0, 3, 1, 3, 1, 3, 1, 3, 1, 0"
     id="polyline164"
     points="74.88,155.13 521.28,155.13" />
  <polyline
     style="fill:none;stroke:#000000;stroke-width:0.5;stroke-dasharray:0, 3, 1, 3, 1, 3, 1, 3, 1, 0"
     id="polyline166"
     points="74.88,114.431 521.28,114.431" />
  <polyline
     style="fill:none;stroke:#000000;stroke-width:0.5;stroke-dasharray:0, 3, 1, 3, 1, 3, 1, 3, 1, 0"
     id="polyline168"
     points="74.88,93.7651 521.28,93.7651" />
  <polyline
     style="fill:none;stroke:#000000;stroke-width:0.5;stroke-dasharray:0, 3, 1, 3, 1, 3, 1, 3, 1, 0"
     id="polyline170"
     points="74.88,79.1023 521.28,79.1023" />
  <polyline
     style="fill:none;stroke:#000000;stroke-width:0.5;stroke-dasharray:0, 3, 1, 3, 1, 3, 1, 3, 1, 0"
     id="polyline172"
     points="74.88,67.7289 521.28,67.7289" />
  <polyline
     style="fill:none;stroke:#000000;stroke-width:0.5;stroke-dasharray:0, 3, 1, 3, 1, 3, 1, 3, 1, 0"
     id="polyline174"
     points="74.88,58.4362 521.28,58.4362" />
  <polyline
     style="fill:none;stroke:#000000;stroke-width:0.5;stroke-dasharray:0, 3, 1, 3, 1, 3, 1, 3, 1, 0"
     id="polyline176"
     points="74.88,50.5793 521.28,50.5793" />
  <polyline
     style="fill:none;stroke:#000000;stroke-width:0.5;stroke-dasharray:0, 3, 1, 3, 1, 3, 1, 3, 1, 0"
     id="polyline178"
     points="74.88,43.7734 521.28,43.7734" />
  <polyline
     style="fill:none;stroke:#000000;stroke-width:0.5;stroke-dasharray:0, 3, 1, 3, 1, 3, 1, 3, 1, 0"
     id="polyline180"
     points="74.88,37.7701 521.28,37.7701" />
  <polyline
     style="fill:none;stroke:#000000;stroke-width:0.5;stroke-dasharray:16, 0"
     id="polyline182"
     points="74.88,349.151 77.114,349.151" />
  <polyline
     style="fill:none;stroke:#000000;stroke-width:0.5;stroke-dasharray:16, 0"
     id="polyline184"
     points="521.28,349.151 519.046,349.151" />
  <polyline
     style="fill:none;stroke:#000000;stroke-width:0.5;stroke-dasharray:16, 0"
     id="polyline186"
     points="74.88,328.485 77.114,328.485" />
  <polyline
     style="fill:none;stroke:#000000;stroke-width:0.5;stroke-dasharray:16, 0"
     id="polyline188"
     points="521.28,328.485 519.046,328.485" />
  <polyline
     style="fill:none;stroke:#000000;stroke-width:0.5;stroke-dasharray:16, 0"
     id="polyline190"
     points="74.88,313.822 77.114,313.822" />
  <polyline
     style="fill:none;stroke:#000000;stroke-width:0.5;stroke-dasharray:16, 0"
     id="polyline192"
     points="521.28,313.822 519.046,313.822" />
  <polyline
     style="fill:none;stroke:#000000;stroke-width:0.5;stroke-dasharray:16, 0"
     id="polyline194"
     points="74.88,302.449 77.114,302.449" />
  <polyline
     style="fill:none;stroke:#000000;stroke-width:0.5;stroke-dasharray:16, 0"
     id="polyline196"
     points="521.28,302.449 519.046,302.449" />
  <polyline
     style="fill:none;stroke:#000000;stroke-width:0.5;stroke-dasharray:16, 0"
     id="polyline198"
     points="74.88,293.156 77.114,293.156" />
  <polyline
     style="fill:none;stroke:#000000;stroke-width:0.5;stroke-dasharray:16, 0"
     id="polyline200"
     points="521.28,293.156 519.046,293.156" />
  <polyline
     style="fill:none;stroke:#000000;stroke-width:0.5;stroke-dasharray:16, 0"
     id="polyline202"
     points="74.88,285.299 77.114,285.299" />
  <polyline
     style="fill:none;stroke:#000000;stroke-width:0.5;stroke-dasharray:16, 0"
     id="polyline204"
     points="521.28,285.299 519.046,285.299" />
  <polyline
     style="fill:none;stroke:#000000;stroke-width:0.5;stroke-dasharray:16, 0"
     id="polyline206"
     points="74.88,278.493 77.114,278.493" />
  <polyline
     style="fill:none;stroke:#000000;stroke-width:0.5;stroke-dasharray:16, 0"
     id="polyline208"
     points="521.28,278.493 519.046,278.493" />
  <polyline
     style="fill:none;stroke:#000000;stroke-width:0.5;stroke-dasharray:16, 0"
     id="polyline210"
     points="74.88,272.49 77.114,272.49" />
  <polyline
     style="fill:none;stroke:#000000;stroke-width:0.5;stroke-dasharray:16, 0"
     id="polyline212"
     points="521.28,272.49 519.046,272.49" />
  <polyline
     style="fill:none;stroke:#000000;stroke-width:0.5;stroke-dasharray:16, 0"
     id="polyline214"
     points="74.88,231.791 77.114,231.791" />
  <polyline
     style="fill:none;stroke:#000000;stroke-width:0.5;stroke-dasharray:16, 0"
     id="polyline216"
     points="521.28,231.791 519.046,231.791" />
  <polyline
     style="fill:none;stroke:#000000;stroke-width:0.5;stroke-dasharray:16, 0"
     id="polyline218"
     points="74.88,211.125 77.114,211.125" />
  <polyline
     style="fill:none;stroke:#000000;stroke-width:0.5;stroke-dasharray:16, 0"
     id="polyline220"
     points="521.28,211.125 519.046,211.125" />
  <polyline
     style="fill:none;stroke:#000000;stroke-width:0.5;stroke-dasharray:16, 0"
     id="polyline222"
     points="74.88,196.462 77.114,196.462" />
  <polyline
     style="fill:none;stroke:#000000;stroke-width:0.5;stroke-dasharray:16, 0"
     id="polyline224"
     points="521.28,196.462 519.046,196.462" />
  <polyline
     style="fill:none;stroke:#000000;stroke-width:0.5;stroke-dasharray:16, 0"
     id="polyline226"
     points="74.88,185.089 77.114,185.089" />
  <polyline
     style="fill:none;stroke:#000000;stroke-width:0.5;stroke-dasharray:16, 0"
     id="polyline228"
     points="521.28,185.089 519.046,185.089" />
  <polyline
     style="fill:none;stroke:#000000;stroke-width:0.5;stroke-dasharray:16, 0"
     id="polyline230"
     points="74.88,175.796 77.114,175.796" />
  <polyline
     style="fill:none;stroke:#000000;stroke-width:0.5;stroke-dasharray:16, 0"
     id="polyline232"
     points="521.28,175.796 519.046,175.796" />
  <polyline
     style="fill:none;stroke:#000000;stroke-width:0.5;stroke-dasharray:16, 0"
     id="polyline234"
     points="74.88,167.939 77.114,167.939" />
  <polyline
     style="fill:none;stroke:#000000;stroke-width:0.5;stroke-dasharray:16, 0"
     id="polyline236"
     points="521.28,167.939 519.046,167.939" />
  <polyline
     style="fill:none;stroke:#000000;stroke-width:0.5;stroke-dasharray:16, 0"
     id="polyline238"
     points="74.88,161.133 77.114,161.133" />
  <polyline
     style="fill:none;stroke:#000000;stroke-width:0.5;stroke-dasharray:16, 0"
     id="polyline240"
     points="521.28,161.133 519.046,161.133" />
  <polyline
     style="fill:none;stroke:#000000;stroke-width:0.5;stroke-dasharray:16, 0"
     id="polyline242"
     points="74.88,155.13 77.114,155.13" />
  <polyline
     style="fill:none;stroke:#000000;stroke-width:0.5;stroke-dasharray:16, 0"
     id="polyline244"
     points="521.28,155.13 519.046,155.13" />
  <polyline
     style="fill:none;stroke:#000000;stroke-width:0.5;stroke-dasharray:16, 0"
     id="polyline246"
     points="74.88,114.431 77.114,114.431" />
  <polyline
     style="fill:none;stroke:#000000;stroke-width:0.5;stroke-dasharray:16, 0"
     id="polyline248"
     points="521.28,114.431 519.046,114.431" />
  <polyline
     style="fill:none;stroke:#000000;stroke-width:0.5;stroke-dasharray:16, 0"
     id="polyline250"
     points="74.88,93.7651 77.114,93.7651" />
  <polyline
     style="fill:none;stroke:#000000;stroke-width:0.5;stroke-dasharray:16, 0"
     id="polyline252"
     points="521.28,93.7651 519.046,93.7651" />
  <polyline
     style="fill:none;stroke:#000000;stroke-width:0.5;stroke-dasharray:16, 0"
     id="polyline254"
     points="74.88,79.1023 77.114,79.1023" />
  <polyline
     style="fill:none;stroke:#000000;stroke-width:0.5;stroke-dasharray:16, 0"
     id="polyline256"
     points="521.28,79.1023 519.046,79.1023" />
  <polyline
     style="fill:none;stroke:#000000;stroke-width:0.5;stroke-dasharray:16, 0"
     id="polyline258"
     points="74.88,67.7289 77.114,67.7289" />
  <polyline
     style="fill:none;stroke:#000000;stroke-width:0.5;stroke-dasharray:16, 0"
     id="polyline260"
     points="521.28,67.7289 519.046,67.7289" />
  <polyline
     style="fill:none;stroke:#000000;stroke-width:0.5;stroke-dasharray:16, 0"
     id="polyline262"
     points="74.88,58.4362 77.114,58.4362" />
  <polyline
     style="fill:none;stroke:#000000;stroke-width:0.5;stroke-dasharray:16, 0"
     id="polyline264"
     points="521.28,58.4362 519.046,58.4362" />
  <polyline
     style="fill:none;stroke:#000000;stroke-width:0.5;stroke-dasharray:16, 0"
     id="polyline266"
     points="74.88,50.5793 77.114,50.5793" />
  <polyline
     style="fill:none;stroke:#000000;stroke-width:0.5;stroke-dasharray:16, 0"
     id="polyline268"
     points="521.28,50.5793 519.046,50.5793" />
  <polyline
     style="fill:none;stroke:#000000;stroke-width:0.5;stroke-dasharray:16, 0"
     id="polyline270"
     points="74.88,43.7734 77.114,43.7734" />
  <polyline
     style="fill:none;stroke:#000000;stroke-width:0.5;stroke-dasharray:16, 0"
     id="polyline272"
     points="521.28,43.7734 519.046,43.7734" />
  <polyline
     style="fill:none;stroke:#000000;stroke-width:0.5;stroke-dasharray:16, 0"
     id="polyline274"
     points="74.88,37.7701 77.114,37.7701" />
  <polyline
     style="fill:none;stroke:#000000;stroke-width:0.5;stroke-dasharray:16, 0"
     id="polyline276"
     points="521.28,37.7701 519.046,37.7701" />
  <text
     style="font-size:14px;text-anchor:middle;baseline-shift:-14px;fill:#000000;font-family:Helvetica"
     id="text278"
     baseline-shift="-14"
     font-size="14"
     y="406.48099"
     x="298.07999">Время анализа (мин)</text>
  <text
     style="font-size:14px;text-anchor:middle;baseline-shift:0px;fill:#000000;font-family:Helvetica"
     id="text280"
     baseline-shift="0"
     transform="matrix(0,-1,1,0,0,0)"
     font-size="14"
     y="17.875502"
     x="-208.44">Размер графа выполнения</text>
  <polyline
     style="fill:none;stroke:#0000ff;stroke-width:3;stroke-dasharray:12, 4"
     id="polyline282"
     points="103.152,340.29 113.568,308.511 134.4,276.812 173.088,245.037 253.44,213.019 415.632,180.913" />
  <polyline
     style="fill:none;stroke:#0000ff;stroke-width:3"
     id="polyline284"
     points="100.152,337.29 106.152,343.29" />
  <polyline
     style="fill:none;stroke:#0000ff;stroke-width:3"
     id="polyline286"
     points="100.152,343.29 106.152,337.29" />
  <polyline
     style="fill:none;stroke:#0000ff;stroke-width:3"
     id="polyline288"
     points="110.568,305.511 116.568,311.511" />
  <polyline
     style="fill:none;stroke:#0000ff;stroke-width:3"
     id="polyline290"
     points="110.568,311.511 116.568,305.511" />
  <polyline
     style="fill:none;stroke:#0000ff;stroke-width:3"
     id="polyline292"
     points="131.4,273.812 137.4,279.812" />
  <polyline
     style="fill:none;stroke:#0000ff;stroke-width:3"
     id="polyline294"
     points="131.4,279.812 137.4,273.812" />
  <polyline
     style="fill:none;stroke:#0000ff;stroke-width:3"
     id="polyline296"
     points="170.088,242.037 176.088,248.037" />
  <polyline
     style="fill:none;stroke:#0000ff;stroke-width:3"
     id="polyline298"
     points="170.088,248.037 176.088,242.037" />
  <polyline
     style="fill:none;stroke:#0000ff;stroke-width:3"
     id="polyline300"
     points="250.44,210.019 256.44,216.019" />
  <polyline
     style="fill:none;stroke:#0000ff;stroke-width:3"
     id="polyline302"
     points="250.44,216.019 256.44,210.019" />
  <polyline
     style="fill:none;stroke:#0000ff;stroke-width:3"
     id="polyline304"
     points="412.632,177.913 418.632,183.913" />
  <polyline
     style="fill:none;stroke:#0000ff;stroke-width:3"
     id="polyline306"
     points="412.632,183.913 418.632,177.913" />
  <polyline
     style="fill:none;stroke:#ff0000;stroke-width:3"
     id="polyline308"
     points="106.128,234.979 125.472,199.132 143.328,159.688 187.968,124.637 269.808,89.9521 482.592,54.1909" />
  <polyline
     style="fill:none;stroke:#ff0000;stroke-width:3"
     id="polyline310"
     points="109.128,234.979 108.555,236.743 107.055,237.832 105.201,237.832 103.701,236.743 103.128,234.979 103.701,233.216 105.201,232.126 107.055,232.126 108.555,233.216 109.128,234.979" />
  <polyline
     style="fill:none;stroke:#ff0000;stroke-width:3"
     id="polyline312"
     points="128.472,199.132 127.899,200.895 126.399,201.985 124.545,201.985 123.045,200.895 122.472,199.132 123.045,197.368 124.545,196.278 126.399,196.278 127.899,197.368 128.472,199.132" />
  <polyline
     style="fill:none;stroke:#ff0000;stroke-width:3"
     id="polyline314"
     points="146.328,159.688 145.755,161.451 144.255,162.541 142.401,162.541 140.901,161.451 140.328,159.688 140.901,157.925 142.401,156.835 144.255,156.835 145.755,157.925 146.328,159.688" />
  <polyline
     style="fill:none;stroke:#ff0000;stroke-width:3"
     id="polyline316"
     points="190.968,124.637 190.395,126.401 188.895,127.49 187.041,127.49 185.541,126.401 184.968,124.637 185.541,122.874 187.041,121.784 188.895,121.784 190.395,122.874 190.968,124.637" />
  <polyline
     style="fill:none;stroke:#ff0000;stroke-width:3"
     id="polyline318"
     points="272.808,89.9521 272.235,91.7155 270.735,92.8052 268.881,92.8052 267.381,91.7155 266.808,89.9521 267.381,88.1887 268.881,87.0989 270.735,87.0989 272.235,88.1887 272.808,89.9521" />
  <polyline
     style="fill:none;stroke:#ff0000;stroke-width:3"
     id="polyline320"
     points="485.592,54.1907 485.019,55.9541 483.519,57.0439 481.665,57.0439 480.165,55.9541 479.592,54.1907 480.165,52.4274 481.665,51.3376 483.519,51.3376 485.019,52.4274 485.592,54.1907" />
  <polygon
     style="fill:#ffffff"
     id="polygon322"
     points="388.223,381.729 388.223,381.729 388.223,341.257 " />
  <polygon
     style="fill:#ffffff"
     id="polygon324"
     points="388.223,381.729 388.223,341.257 388.223,341.257 " />
  <polygon
     style="fill:#ffffff"
     id="polygon326"
     points="209.171,341.257 209.171,341.257 388.223,341.257 " />
  <polygon
     style="fill:#ffffff"
     id="polygon328"
     points="209.171,341.257 388.223,341.257 388.223,341.257 " />
  <polygon
     style="fill:#ffffff"
     id="polygon330"
     points="209.171,341.257 209.171,381.729 388.223,381.729 " />
  <polygon
     style="fill:#ffffff"
     id="polygon332"
     points="209.171,341.257 388.223,381.729 388.223,341.257 " />
  <polyline
     style="fill:none;stroke:#000000;stroke-width:0.5;stroke-dasharray:16, 0"
     id="polyline334"
     points="209.171,381.729 388.223,381.729" />
  <polyline
     style="fill:none;stroke:#000000;stroke-width:0.5;stroke-dasharray:16, 0"
     id="polyline336"
     points="209.171,341.257 388.223,341.257" />
  <polyline
     style="fill:none;stroke:#000000;stroke-width:0.5;stroke-dasharray:16, 0"
     id="polyline338"
     points="209.171,341.257 388.223,341.257" />
  <polyline
     style="fill:none;stroke:#000000;stroke-width:0.5;stroke-dasharray:16, 0"
     id="polyline340"
     points="209.171,381.729 388.223,381.729" />
  <polyline
     style="fill:none;stroke:#000000;stroke-width:0.5;stroke-dasharray:16, 0"
     id="polyline342"
     points="209.171,381.729 209.171,341.257" />
  <polyline
     style="fill:none;stroke:#000000;stroke-width:0.5;stroke-dasharray:16, 0"
     id="polyline344"
     points="388.223,381.729 388.223,341.257" />
  <polyline
     style="fill:none;stroke:#000000;stroke-width:0.5;stroke-dasharray:16, 0"
     id="polyline346"
     points="388.223,381.729 388.223,341.257" />
  <polyline
     style="fill:none;stroke:#000000;stroke-width:0.5;stroke-dasharray:16, 0"
     id="polyline348"
     points="209.171,381.729 209.171,341.257 209.171,341.257" />
  <polyline
     style="fill:none;stroke:#000000;stroke-width:0.5;stroke-dasharray:16, 0"
     id="polyline350"
     points="388.223,341.257 388.223,341.257" />
  <polyline
     style="fill:none;stroke:#000000;stroke-width:0.5;stroke-dasharray:16, 0"
     id="polyline352"
     points="388.223,381.729 388.223,381.729" />
  <polyline
     style="fill:none;stroke:#000000;stroke-width:0.5;stroke-dasharray:16, 0"
     id="polyline354"
     points="209.171,381.729 209.171,381.729" />
  <text
     style="font-size:14px;text-anchor:start;baseline-shift:-7px;fill:#000000;font-family:Helvetica"
     id="text356"
     baseline-shift="-7"
     font-size="14"
     y="351.375"
     x="235.30099">Метод встраивания</text>
  <text
     style="font-size:14px;text-anchor:start;baseline-shift:-7px;fill:#000000;font-family:Helvetica"
     id="text358"
     baseline-shift="-7"
     font-size="14"
     y="371.61099"
     x="235.30099">Метод резюме</text>
  <polyline
     style="fill:none;stroke:#0000ff;stroke-width:0.5;stroke-dasharray:12, 4"
     id="polyline360"
     points="211.922,351.375 232.551,351.375" />
  <polyline
     style="fill:none;stroke:#0000ff;stroke-width:0.5"
     id="polyline362"
     points="219.236,348.375 225.236,354.375" />
  <polyline
     style="fill:none;stroke:#0000ff;stroke-width:0.5"
     id="polyline364"
     points="219.236,354.375 225.236,348.375" />
  <polyline
     style="fill:none;stroke:#ff0000;stroke-width:0.5"
     id="polyline366"
     points="211.922,371.611 232.551,371.611" />
  <polyline
     style="fill:none;stroke:#ff0000;stroke-width:0.5"
     id="polyline368"
     points="225.236,371.611 224.663,373.375 223.163,374.465 221.309,374.465 219.809,373.375 219.236,371.611 219.809,369.848 221.309,368.758 223.163,368.758 224.663,369.848 225.236,371.611" />
</svg>
